<svg width="571" height="1339" viewBox="0 0 571 1339" fill="none" xmlns="http://www.w3.org/2000/svg">
<g filter="url(#filter0_ddd_2029_14129)">
<rect x="4" width="563" height="1331.81" rx="42.5227" fill="#3C3C7A"/>
</g>
<path d="M107.169 90.3101C107.169 87.6567 107.743 85.2967 108.891 83.2301C110.039 81.1379 111.634 79.5178 113.675 78.3697C115.742 77.1961 118.076 76.6093 120.679 76.6093C123.868 76.6093 126.598 77.4512 128.868 79.1351C131.139 80.819 132.657 83.1152 133.423 86.0238H126.228C125.692 84.9012 124.927 84.0465 123.932 83.4597C122.962 82.8729 121.852 82.5795 120.602 82.5795C118.587 82.5795 116.954 83.2811 115.703 84.6843C114.453 86.0876 113.828 87.9628 113.828 90.3101C113.828 92.6573 114.453 94.5326 115.703 95.9358C116.954 97.3391 118.587 98.0407 120.602 98.0407C121.852 98.0407 122.962 97.7473 123.932 97.1605C124.927 96.5737 125.692 95.719 126.228 94.5964H133.423C132.657 97.5049 131.139 99.8011 128.868 101.485C126.598 103.143 123.868 103.973 120.679 103.973C118.076 103.973 115.742 103.399 113.675 102.25C111.634 101.077 110.039 99.4567 108.891 97.3901C107.743 95.3235 107.169 92.9635 107.169 90.3101ZM136.129 93.0655C136.129 90.8714 136.537 88.9451 137.354 87.2867C138.196 85.6283 139.331 84.3526 140.76 83.4597C142.189 82.5667 143.783 82.1202 145.544 82.1202C147.049 82.1202 148.363 82.4264 149.485 83.0387C150.634 83.651 151.514 84.4547 152.126 85.4497V82.4264H158.67V103.781H152.126V100.758C151.488 101.753 150.595 102.557 149.447 103.169C148.325 103.781 147.011 104.087 145.505 104.087C143.77 104.087 142.189 103.641 140.76 102.748C139.331 101.829 138.196 100.541 137.354 98.8826C136.537 97.1987 136.129 95.2597 136.129 93.0655ZM152.126 93.1038C152.126 91.4709 151.667 90.1825 150.748 89.2385C149.855 88.2945 148.758 87.8225 147.457 87.8225C146.156 87.8225 145.046 88.2945 144.128 89.2385C143.235 90.157 142.788 91.4327 142.788 93.0655C142.788 94.6984 143.235 95.9996 144.128 96.9691C145.046 97.9131 146.156 98.3851 147.457 98.3851C148.758 98.3851 149.855 97.9131 150.748 96.9691C151.667 96.0251 152.126 94.7367 152.126 93.1038ZM175.307 98.232V103.781H171.977C169.605 103.781 167.755 103.207 166.428 102.059C165.101 100.885 164.438 98.9847 164.438 96.3568V87.8608H161.836V82.4264H164.438V77.2216H170.982V82.4264H175.269V87.8608H170.982V96.4333C170.982 97.0712 171.135 97.5304 171.442 97.8111C171.748 98.0917 172.258 98.232 172.972 98.232H175.307ZM199.082 92.7594C199.082 93.3717 199.044 94.0095 198.968 94.6729H184.157C184.259 95.9996 184.68 97.0201 185.42 97.7345C186.185 98.4234 187.117 98.7678 188.214 98.7678C189.846 98.7678 190.982 98.079 191.62 96.7012H198.585C198.228 98.1045 197.577 99.3674 196.633 100.49C195.715 101.613 194.554 102.493 193.15 103.131C191.747 103.768 190.178 104.087 188.443 104.087C186.351 104.087 184.489 103.641 182.856 102.748C181.223 101.855 179.947 100.579 179.029 98.9209C178.11 97.2625 177.651 95.3235 177.651 93.1038C177.651 90.8841 178.097 88.9451 178.99 87.2867C179.909 85.6283 181.185 84.3526 182.817 83.4597C184.45 82.5667 186.326 82.1202 188.443 82.1202C190.51 82.1202 192.347 82.5539 193.954 83.4214C195.562 84.2889 196.812 85.5263 197.705 87.1336C198.623 88.741 199.082 90.6162 199.082 92.7594ZM192.385 91.0372C192.385 89.9146 192.002 89.0216 191.237 88.3583C190.472 87.6949 189.515 87.3633 188.367 87.3633C187.27 87.3633 186.338 87.6822 185.573 88.32C184.833 88.9579 184.374 89.8636 184.195 91.0372H192.385ZM210.648 82.1202C212.153 82.1202 213.467 82.4264 214.59 83.0387C215.738 83.651 216.618 84.4547 217.231 85.4497V82.4264H223.775V103.743C223.775 105.708 223.379 107.481 222.588 109.063C221.823 110.67 220.637 111.946 219.029 112.89C217.447 113.834 215.47 114.306 213.097 114.306C209.934 114.306 207.37 113.553 205.405 112.048C203.441 110.568 202.318 108.552 202.037 106.001H208.505C208.709 106.817 209.194 107.455 209.959 107.914C210.725 108.399 211.669 108.642 212.791 108.642C214.143 108.642 215.215 108.246 216.006 107.455C216.822 106.69 217.231 105.452 217.231 103.743V100.72C216.593 101.715 215.713 102.531 214.59 103.169C213.467 103.781 212.153 104.087 210.648 104.087C208.888 104.087 207.293 103.641 205.864 102.748C204.436 101.829 203.3 100.541 202.458 98.8826C201.642 97.1987 201.234 95.2597 201.234 93.0655C201.234 90.8714 201.642 88.9451 202.458 87.2867C203.3 85.6283 204.436 84.3526 205.864 83.4597C207.293 82.5667 208.888 82.1202 210.648 82.1202ZM217.231 93.1038C217.231 91.4709 216.771 90.1825 215.853 89.2385C214.96 88.2945 213.863 87.8225 212.562 87.8225C211.26 87.8225 210.151 88.2945 209.232 89.2385C208.339 90.157 207.893 91.4327 207.893 93.0655C207.893 94.6984 208.339 95.9996 209.232 96.9691C210.151 97.9131 211.26 98.3851 212.562 98.3851C213.863 98.3851 214.96 97.9131 215.853 96.9691C216.771 96.0251 217.231 94.7367 217.231 93.1038ZM238.23 104.087C236.138 104.087 234.25 103.641 232.566 102.748C230.908 101.855 229.594 100.579 228.624 98.9209C227.68 97.2625 227.208 95.3235 227.208 93.1038C227.208 90.9096 227.693 88.9834 228.662 87.325C229.632 85.6411 230.959 84.3526 232.643 83.4597C234.326 82.5667 236.214 82.1202 238.307 82.1202C240.399 82.1202 242.287 82.5667 243.971 83.4597C245.654 84.3526 246.981 85.6411 247.951 87.325C248.92 88.9834 249.405 90.9096 249.405 93.1038C249.405 95.298 248.907 97.237 247.912 98.9209C246.943 100.579 245.603 101.855 243.894 102.748C242.21 103.641 240.322 104.087 238.23 104.087ZM238.23 98.4234C239.48 98.4234 240.539 97.9642 241.406 97.0457C242.299 96.1272 242.746 94.8132 242.746 93.1038C242.746 91.3944 242.312 90.0804 241.445 89.162C240.603 88.2435 239.557 87.7842 238.307 87.7842C237.031 87.7842 235.972 88.2435 235.13 89.162C234.288 90.0549 233.867 91.3689 233.867 93.1038C233.867 94.8132 234.275 96.1272 235.092 97.0457C235.934 97.9642 236.98 98.4234 238.23 98.4234ZM259.421 85.9855C260.186 84.8119 261.143 83.8934 262.291 83.2301C263.439 82.5412 264.715 82.1967 266.118 82.1967V89.1237H264.32C262.687 89.1237 261.462 89.4809 260.646 90.1953C259.829 90.8841 259.421 92.1088 259.421 93.8692V103.781H252.877V82.4264H259.421V85.9855ZM272.538 80.2067C271.39 80.2067 270.445 79.875 269.706 79.2117C268.991 78.5228 268.634 77.6808 268.634 76.6858C268.634 75.6653 268.991 74.8233 269.706 74.16C270.445 73.4711 271.39 73.1267 272.538 73.1267C273.66 73.1267 274.579 73.4711 275.293 74.16C276.033 74.8233 276.403 75.6653 276.403 76.6858C276.403 77.6808 276.033 78.5228 275.293 79.2117C274.579 79.875 273.66 80.2067 272.538 80.2067ZM275.791 82.4264V103.781H269.246V82.4264H275.791ZM279.232 93.0655C279.232 90.8714 279.64 88.9451 280.457 87.2867C281.299 85.6283 282.434 84.3526 283.863 83.4597C285.291 82.5667 286.886 82.1202 288.646 82.1202C290.152 82.1202 291.466 82.4264 292.588 83.0387C293.736 83.651 294.617 84.4547 295.229 85.4497V82.4264H301.773V103.781H295.229V100.758C294.591 101.753 293.698 102.557 292.55 103.169C291.427 103.781 290.113 104.087 288.608 104.087C286.873 104.087 285.291 103.641 283.863 102.748C282.434 101.829 281.299 100.541 280.457 98.8826C279.64 97.1987 279.232 95.2597 279.232 93.0655ZM295.229 93.1038C295.229 91.4709 294.77 90.1825 293.851 89.2385C292.958 88.2945 291.861 87.8225 290.56 87.8225C289.259 87.8225 288.149 88.2945 287.23 89.2385C286.337 90.157 285.891 91.4327 285.891 93.0655C285.891 94.6984 286.337 95.9996 287.23 96.9691C288.149 97.9131 289.259 98.3851 290.56 98.3851C291.861 98.3851 292.958 97.9131 293.851 96.9691C294.77 96.0251 295.229 94.7367 295.229 93.1038ZM315.195 104.087C313.333 104.087 311.674 103.768 310.22 103.131C308.766 102.493 307.618 101.625 306.776 100.528C305.934 99.4057 305.462 98.1555 305.36 96.7778H311.827C311.904 97.5177 312.248 98.1172 312.861 98.5765C313.473 99.0357 314.226 99.2653 315.119 99.2653C315.935 99.2653 316.56 99.1123 316.994 98.8061C317.453 98.4744 317.683 98.0534 317.683 97.5432C317.683 96.9309 317.364 96.4844 316.726 96.2037C316.088 95.8975 315.055 95.5659 313.626 95.2087C312.095 94.8515 310.819 94.4815 309.799 94.0988C308.778 93.6906 307.898 93.0655 307.158 92.2236C306.418 91.3561 306.048 90.1953 306.048 88.741C306.048 87.5163 306.38 86.4065 307.043 85.4115C307.732 84.3909 308.727 83.5872 310.029 83.0004C311.355 82.4136 312.924 82.1202 314.736 82.1202C317.415 82.1202 319.52 82.7836 321.05 84.1103C322.607 85.437 323.5 87.1974 323.729 89.3916H317.683C317.581 88.6517 317.249 88.0649 316.688 87.6311C316.152 87.1974 315.437 86.9805 314.544 86.9805C313.779 86.9805 313.192 87.1336 312.784 87.4398C312.376 87.7204 312.172 88.1159 312.172 88.6262C312.172 89.2385 312.491 89.6977 313.128 90.0039C313.792 90.3101 314.812 90.6162 316.19 90.9224C317.772 91.3306 319.06 91.7388 320.055 92.1471C321.05 92.5298 321.918 93.1676 322.658 94.0606C323.423 94.928 323.819 96.1017 323.844 97.5814C323.844 98.8316 323.487 99.9542 322.773 100.949C322.084 101.919 321.076 102.684 319.749 103.245C318.448 103.807 316.93 104.087 315.195 104.087ZM353.448 76.9154V82.1585H342.502V87.8225H350.692V92.9125H342.502V103.781H335.958V76.9154H353.448ZM355.586 93.0655C355.586 90.8714 355.994 88.9451 356.811 87.2867C357.652 85.6283 358.788 84.3526 360.217 83.4597C361.645 82.5667 363.24 82.1202 365 82.1202C366.506 82.1202 367.82 82.4264 368.942 83.0387C370.09 83.651 370.971 84.4547 371.583 85.4497V82.4264H378.127V103.781H371.583V100.758C370.945 101.753 370.052 102.557 368.904 103.169C367.781 103.781 366.467 104.087 364.962 104.087C363.227 104.087 361.645 103.641 360.217 102.748C358.788 101.829 357.652 100.541 356.811 98.8826C355.994 97.1987 355.586 95.2597 355.586 93.0655ZM371.583 93.1038C371.583 91.4709 371.124 90.1825 370.205 89.2385C369.312 88.2945 368.215 87.8225 366.914 87.8225C365.613 87.8225 364.503 88.2945 363.584 89.2385C362.691 90.157 362.245 91.4327 362.245 93.0655C362.245 94.6984 362.691 95.9996 363.584 96.9691C364.503 97.9131 365.613 98.3851 366.914 98.3851C368.215 98.3851 369.312 97.9131 370.205 96.9691C371.124 96.0251 371.583 94.7367 371.583 93.1038ZM392.467 97.658L397.098 82.4264H404.063L396.486 103.781H388.411L380.833 82.4264H387.837L392.467 97.658ZM416.539 104.087C414.447 104.087 412.559 103.641 410.875 102.748C409.216 101.855 407.902 100.579 406.933 98.9209C405.989 97.2625 405.517 95.3235 405.517 93.1038C405.517 90.9096 406.002 88.9834 406.971 87.325C407.941 85.6411 409.267 84.3526 410.951 83.4597C412.635 82.5667 414.523 82.1202 416.615 82.1202C418.707 82.1202 420.595 82.5667 422.279 83.4597C423.963 84.3526 425.29 85.6411 426.259 87.325C427.229 88.9834 427.714 90.9096 427.714 93.1038C427.714 95.298 427.216 97.237 426.221 98.9209C425.252 100.579 423.912 101.855 422.203 102.748C420.519 103.641 418.631 104.087 416.539 104.087ZM416.539 98.4234C417.789 98.4234 418.848 97.9642 419.715 97.0457C420.608 96.1272 421.055 94.8132 421.055 93.1038C421.055 91.3944 420.621 90.0804 419.753 89.162C418.911 88.2435 417.865 87.7842 416.615 87.7842C415.339 87.7842 414.281 88.2435 413.439 89.162C412.597 90.0549 412.176 91.3689 412.176 93.1038C412.176 94.8132 412.584 96.1272 413.4 97.0457C414.242 97.9642 415.288 98.4234 416.539 98.4234ZM437.73 85.9855C438.495 84.8119 439.452 83.8934 440.6 83.2301C441.748 82.5412 443.024 82.1967 444.427 82.1967V89.1237H442.628C440.995 89.1237 439.771 89.4809 438.954 90.1953C438.138 90.8841 437.73 92.1088 437.73 93.8692V103.781H431.185V82.4264H437.73V85.9855ZM450.846 80.2067C449.698 80.2067 448.754 79.875 448.014 79.2117C447.3 78.5228 446.943 77.6808 446.943 76.6858C446.943 75.6653 447.3 74.8233 448.014 74.16C448.754 73.4711 449.698 73.1267 450.846 73.1267C451.969 73.1267 452.887 73.4711 453.602 74.16C454.342 74.8233 454.712 75.6653 454.712 76.6858C454.712 77.6808 454.342 78.5228 453.602 79.2117C452.887 79.875 451.969 80.2067 450.846 80.2067ZM454.099 82.4264V103.781H447.555V82.4264H454.099ZM470.744 98.232V103.781H467.414C465.042 103.781 463.192 103.207 461.865 102.059C460.538 100.885 459.875 98.9847 459.875 96.3568V87.8608H457.273V82.4264H459.875V77.2216H466.419V82.4264H470.706V87.8608H466.419V96.4333C466.419 97.0712 466.572 97.5304 466.879 97.8111C467.185 98.0917 467.695 98.232 468.409 98.232H470.744ZM473.088 93.0655C473.088 90.8714 473.496 88.9451 474.313 87.2867C475.154 85.6283 476.29 84.3526 477.719 83.4597C479.147 82.5667 480.742 82.1202 482.502 82.1202C484.008 82.1202 485.322 82.4264 486.444 83.0387C487.592 83.651 488.473 84.4547 489.085 85.4497V82.4264H495.629V103.781H489.085V100.758C488.447 101.753 487.554 102.557 486.406 103.169C485.283 103.781 483.969 104.087 482.464 104.087C480.729 104.087 479.147 103.641 477.719 102.748C476.29 101.829 475.154 100.541 474.313 98.8826C473.496 97.1987 473.088 95.2597 473.088 93.0655ZM489.085 93.1038C489.085 91.4709 488.626 90.1825 487.707 89.2385C486.814 88.2945 485.717 87.8225 484.416 87.8225C483.115 87.8225 482.005 88.2945 481.086 89.2385C480.193 90.157 479.747 91.4327 479.747 93.0655C479.747 94.6984 480.193 95.9996 481.086 96.9691C482.005 97.9131 483.115 98.3851 484.416 98.3851C485.717 98.3851 486.814 97.9131 487.707 96.9691C488.626 96.0251 489.085 94.7367 489.085 93.1038ZM509.051 104.087C507.189 104.087 505.53 103.768 504.076 103.131C502.622 102.493 501.473 101.625 500.632 100.528C499.79 99.4057 499.318 98.1555 499.216 96.7778H505.683C505.76 97.5177 506.104 98.1172 506.717 98.5765C507.329 99.0357 508.082 99.2653 508.974 99.2653C509.791 99.2653 510.416 99.1123 510.85 98.8061C511.309 98.4744 511.539 98.0534 511.539 97.5432C511.539 96.9309 511.22 96.4844 510.582 96.2037C509.944 95.8975 508.911 95.5659 507.482 95.2087C505.951 94.8515 504.675 94.4815 503.655 94.0988C502.634 93.6906 501.754 93.0655 501.014 92.2236C500.274 91.3561 499.904 90.1953 499.904 88.741C499.904 87.5163 500.236 86.4065 500.899 85.4115C501.588 84.3909 502.583 83.5872 503.885 83.0004C505.211 82.4136 506.78 82.1202 508.592 82.1202C511.271 82.1202 513.376 82.7836 514.906 84.1103C516.463 85.437 517.356 87.1974 517.585 89.3916H511.539C511.437 88.6517 511.105 88.0649 510.544 87.6311C510.008 87.1974 509.293 86.9805 508.4 86.9805C507.635 86.9805 507.048 87.1336 506.64 87.4398C506.232 87.7204 506.028 88.1159 506.028 88.6262C506.028 89.2385 506.347 89.6977 506.984 90.0039C507.648 90.3101 508.668 90.6162 510.046 90.9224C511.628 91.3306 512.916 91.7388 513.911 92.1471C514.906 92.5298 515.774 93.1676 516.514 94.0606C517.279 94.928 517.675 96.1017 517.7 97.5814C517.7 98.8316 517.343 99.9542 516.629 100.949C515.94 101.919 514.932 102.684 513.605 103.245C512.304 103.807 510.786 104.087 509.051 104.087Z" fill="white"/>
<path d="M67.7796 101.151L58.6374 105.609C56.9855 106.415 55.1305 106.287 53.2926 106.287C53.1985 106.287 53.0863 106.253 52.9642 106.196C51.9698 105.731 51.621 104.531 51.621 103.433L53.2926 91.4486L45.2904 83.2525C45.0538 83.0102 44.8417 82.7452 44.6569 82.4614L44.214 81.7809C43.9571 81.3862 43.8203 80.9253 43.8203 80.4543V80.3685C43.8203 79.7886 44.0471 79.2317 44.4522 78.8167C44.7665 78.4949 45.171 78.276 45.6123 78.1891L59.4217 75.4691L64.381 65.8181C64.7764 65.0486 65.4336 64.4455 66.2342 64.1175L66.3245 64.0805C67.2481 63.7021 68.2909 63.7462 69.1792 64.2011C69.7221 64.4792 70.1807 64.8973 70.5076 65.4123L77.2519 76.0398L89.7096 78.1664C90.3043 78.2679 90.8515 78.555 91.273 78.9867L91.3963 79.1129C91.6217 79.3438 91.7909 79.6236 91.8908 79.9304C92.1389 80.6928 91.9314 81.5299 91.356 82.0882L81.7095 91.4486L83.795 103.731C83.8871 104.274 83.7716 104.831 83.4715 105.292C83.0675 105.912 82.3772 106.287 81.6367 106.287H80.7914C80.294 106.287 79.8017 106.188 79.3429 105.996L67.7796 101.151Z" fill="#D5CE27"/>
<rect x="75.2891" y="1103.59" width="86.7462" height="76.5408" rx="17.0091" fill="#E75F24"/>
<path d="M130.992 1117.62V1108.69H133.969V1114.64H137.796V1117.62H130.992Z" fill="#0A0707"/>
<path d="M119.516 1117.62V1108.69H122.492L124.193 1111.66L126.319 1108.69H129.721V1117.62H126.319V1113.79L124.193 1115.92L122.492 1113.79V1117.62H119.516Z" fill="#0A0707"/>
<path d="M109.734 1111.66V1108.69H118.239V1111.66H115.688V1117.62H112.286V1111.66H109.734Z" fill="#0A0707"/>
<path d="M100.375 1117.62V1109.12H102.926V1111.67H105.903V1109.12H108.454V1117.62H105.478V1114.65H102.926V1117.62H100.375Z" fill="#0A0707"/>
<g filter="url(#filter1_ddd_2029_14129)">
<path d="M138.651 1167.79L142.478 1121.02H95.7031L99.9554 1167.79L119.941 1174.6L138.651 1167.79Z" fill="#E75F24"/>
</g>
<path d="M133.12 1130.8H105.055L106.756 1148.66H125.466V1155.46L118.237 1158.02L113.134 1155.46V1151.64H106.756V1160.99L119.938 1164.39L131.419 1160.99V1141.86H111.008V1136.33H133.12V1130.8Z" fill="white"/>
<rect x="76.1406" y="355.188" width="86.7462" height="76.5408" rx="17.0091" fill="#006EB8"/>
<rect x="75.2891" y="804.227" width="86.7462" height="76.5408" rx="17.0091" fill="#006EB8"/>
<rect x="75.2891" y="804.227" width="86.7462" height="76.5408" rx="17.0091" fill="#006EB8"/>
<g filter="url(#filter2_ddd_2029_14129)">
<path d="M142.044 372.625H94.8438L100.372 419.825L119.507 425.778L138.642 419.825L142.044 372.625Z" fill="#006EB8"/>
</g>
<g filter="url(#filter3_ddd_2029_14129)">
<path d="M141.2 821.66H94L99.5279 868.86L118.663 874.813L137.798 868.86L141.2 821.66Z" fill="#006EB8"/>
</g>
<g filter="url(#filter4_ddd_2029_14129)">
<path d="M141.2 821.66H94L99.5279 868.86L118.663 874.813L137.798 868.86L141.2 821.66Z" fill="#006EB8"/>
</g>
<g filter="url(#filter5_ddd_2029_14129)">
<path d="M142.044 372.625H94.8438L100.372 419.825L119.507 425.778L138.642 419.825L142.044 372.625Z" fill="#006EB8"/>
</g>
<g filter="url(#filter6_ddd_2029_14129)">
<path d="M141.2 821.66H94L99.5279 868.86L118.663 874.813L137.798 868.86L141.2 821.66Z" fill="#006EB8"/>
</g>
<g filter="url(#filter7_ddd_2029_14129)">
<path d="M141.2 821.66H94L99.5279 868.86L118.663 874.813L137.798 868.86L141.2 821.66Z" fill="#006EB8"/>
</g>
<path d="M104.203 387.505V381.977H133.119V387.505L120.362 393.883L133.119 394.733L131.843 411.742L120.362 415.569L106.329 411.742V403.238H113.558V406.64L120.362 408.766L125.89 406.64V399.411H106.329V393.883L120.362 387.505H104.203Z" fill="white"/>
<path d="M103.359 836.544V831.016H132.275V836.544L119.518 842.922L132.275 843.772L130.999 860.781L119.518 864.609L105.486 860.781V852.277H112.714V855.679L119.518 857.805L125.046 855.679V848.45H105.486V842.922L119.518 836.544H103.359Z" fill="white"/>
<path d="M103.359 836.544V831.016H132.275V836.544L119.518 842.922L132.275 843.772L130.999 860.781L119.518 864.609L105.486 860.781V852.277H112.714V855.679L119.518 857.805L125.046 855.679V848.45H105.486V842.922L119.518 836.544H103.359Z" fill="white"/>
<path d="M104.203 369.648V360.293H112.708V362.844H107.983V366.515H112.708V369.648H104.203Z" fill="#0A0707"/>
<path d="M103.359 818.687V809.332H111.864V811.883H107.139V815.554H111.864V818.687H103.359Z" fill="#0A0707"/>
<path d="M103.359 818.687V809.332H111.864V811.883H107.139V815.554H111.864V818.687H103.359Z" fill="#0A0707"/>
<path d="M124.614 360.293H116.109V363.567L118.767 366.374H116.109V369.648H124.614V366.374L121.956 363.567H124.614V360.293Z" fill="#0A0707"/>
<path d="M123.762 809.332H115.258V812.606L117.915 815.413H115.258V818.687H123.762V815.413L121.105 812.606H123.762V809.332Z" fill="#0A0707"/>
<path d="M123.762 809.332H115.258V812.606L117.915 815.413H115.258V818.687H123.762V815.413L121.105 812.606H123.762V809.332Z" fill="#0A0707"/>
<path d="M136.52 360.293H128.016V363.567L130.673 366.374H128.016V369.648H136.52V366.374L133.862 363.567H136.52V360.293Z" fill="#0A0707"/>
<path d="M135.676 809.332H127.172V812.606L129.83 815.413H127.172V818.687H135.676V815.413L133.019 812.606H135.676V809.332Z" fill="#0A0707"/>
<path d="M135.676 809.332H127.172V812.606L129.83 815.413H127.172V818.687H135.676V815.413L133.019 812.606H135.676V809.332Z" fill="#0A0707"/>
<rect x="76.1406" y="504.867" width="86.7462" height="76.5408" rx="17.0091" fill="#FCAC28"/>
<rect x="76.1406" y="953.906" width="86.7462" height="76.5408" rx="17.0091" fill="#FCAC28"/>
<path d="M128.864 512.52H120.359V515.794L123.017 518.6H120.359V521.875H128.864V518.6L126.206 515.794H128.864V512.52Z" fill="#0A0707"/>
<path d="M128.864 961.562H120.359V964.837L123.017 967.643H120.359V970.917H128.864V967.643L126.206 964.837H128.864V961.562Z" fill="#0A0707"/>
<g filter="url(#filter8_ddd_2029_14129)">
<path d="M139.495 568.65L143.322 521.875H96.5469L100.799 568.65L120.785 575.454L139.495 568.65Z" fill="#FCAC28"/>
</g>
<g filter="url(#filter9_ddd_2029_14129)">
<path d="M139.495 1017.69L143.322 970.918H96.5469L100.799 1017.69L120.785 1024.5L139.495 1017.69Z" fill="#FCAC28"/>
</g>
<path d="M105.906 560.545V552.502H112.502V556.169L119.518 557.943L125.973 556.169L126.674 549.9H105.906L107.871 530.383H132.428L133.971 541.738H127.797L126.674 536.415H113.905L112.502 544.577H133.971L132.428 560.545L119.518 563.976L105.906 560.545Z" fill="white"/>
<path d="M105.906 1009.58V1001.54H112.502V1005.21L119.518 1006.98L125.973 1005.21L126.674 998.939H105.906L107.871 979.422H132.428L133.971 990.777H127.797L126.674 985.454H113.905L112.502 993.616H133.971L132.428 1009.58L119.518 1013.01L105.906 1009.58Z" fill="white"/>
<path d="M115.317 512.537L118.719 512.558L118.682 518.353L118.719 521.45L112.71 521.45L112.728 518.474L115.28 518.49L115.317 512.537Z" fill="#010101"/>
<path d="M115.317 961.58L118.719 961.601L118.682 967.396L118.719 970.493L112.71 970.493L112.728 967.517L115.28 967.533L115.317 961.58Z" fill="#010101"/>
<path d="M198.536 1138.1V1161.85H193.773V1151.74H183.602V1161.85H178.839V1138.1H183.602V1147.87H193.773V1138.1H198.536ZM219.382 1138.1V1141.95H213.055V1161.85H208.292V1141.95H201.965V1138.1H219.382ZM248.745 1138.1V1161.85H243.982V1146.4L237.621 1161.85H234.015L227.62 1146.4V1161.85H222.857V1138.1H228.266L235.818 1155.76L243.37 1138.1H248.745ZM258.216 1158.07H266.04V1161.85H253.453V1138.1H258.216V1158.07ZM293.298 1141.16H282.276V1146.98C282.752 1146.39 283.432 1145.92 284.317 1145.55C285.201 1145.17 286.143 1144.97 287.14 1144.97C288.955 1144.97 290.44 1145.37 291.597 1146.17C292.753 1146.96 293.593 1147.98 294.114 1149.23C294.636 1150.45 294.897 1151.77 294.897 1153.17C294.897 1155.78 294.148 1157.88 292.651 1159.47C291.177 1161.05 289.068 1161.85 286.324 1161.85C283.739 1161.85 281.675 1161.2 280.133 1159.91C278.591 1158.62 277.717 1156.93 277.513 1154.84H282.14C282.344 1155.75 282.797 1156.47 283.5 1157.02C284.226 1157.56 285.145 1157.83 286.256 1157.83C287.594 1157.83 288.603 1157.41 289.284 1156.57C289.964 1155.74 290.304 1154.62 290.304 1153.24C290.304 1151.83 289.953 1150.77 289.25 1150.04C288.569 1149.29 287.56 1148.92 286.222 1148.92C285.269 1148.92 284.476 1149.16 283.841 1149.64C283.206 1150.11 282.752 1150.75 282.48 1151.54H277.921V1136.98H293.298V1141.16Z" fill="white"/>
<rect x="76.1406" y="205.508" width="86.7462" height="76.5408" rx="17.0091" fill="#E75F24"/>
<path d="M131.844 219.539V210.609H134.82V216.563H138.647V219.539H131.844Z" fill="#0A0707"/>
<path d="M120.359 219.539V210.609H123.336L125.037 213.586L127.163 210.609H130.565V219.539H127.163V215.712L125.037 217.838L123.336 215.712V219.539H120.359Z" fill="#0A0707"/>
<path d="M110.578 213.586V210.609H119.083V213.586H116.531V219.539H113.129V213.586H110.578Z" fill="#0A0707"/>
<path d="M101.227 219.54V211.035H103.778V213.587H106.755V211.035H109.306V219.54H106.329V216.563H103.778V219.54H101.227Z" fill="#0A0707"/>
<g filter="url(#filter10_ddd_2029_14129)">
<path d="M139.495 269.716L143.322 222.941H96.5469L100.799 269.716L120.785 276.52L139.495 269.716Z" fill="#E75F24"/>
</g>
<path d="M133.971 232.723H105.906L107.607 250.582H126.317V257.386L119.088 259.937L113.986 257.386V253.559H107.607V262.914L120.789 266.316L132.27 262.914V243.779H111.859V238.251H133.971V232.723Z" fill="white"/>
<path d="M199.044 243.255V267H194.281V256.897H184.11V267H179.347V243.255H184.11V253.019H194.281V243.255H199.044ZM219.89 243.255V247.099H213.563V267H208.8V247.099H202.473V243.255H219.89ZM249.253 243.255V267H244.49V251.556L238.129 267H234.523L228.127 251.556V267H223.365V243.255H228.774L236.326 260.911L243.878 243.255H249.253ZM258.724 263.224H266.548V267H253.961V243.255H258.724V263.224ZM293.805 246.317H282.784V252.134C283.26 251.544 283.94 251.068 284.825 250.705C285.709 250.32 286.65 250.127 287.648 250.127C289.463 250.127 290.948 250.524 292.105 251.318C293.261 252.111 294.1 253.132 294.622 254.379C295.144 255.604 295.404 256.919 295.404 258.325C295.404 260.933 294.656 263.031 293.159 264.619C291.685 266.206 289.576 267 286.832 267C284.246 267 282.183 266.354 280.64 265.061C279.098 263.768 278.225 262.079 278.021 259.992H282.648C282.852 260.899 283.305 261.625 284.008 262.169C284.734 262.714 285.652 262.986 286.764 262.986C288.102 262.986 289.111 262.566 289.791 261.727C290.472 260.888 290.812 259.777 290.812 258.393C290.812 256.987 290.46 255.921 289.757 255.196C289.077 254.447 288.068 254.073 286.73 254.073C285.777 254.073 284.983 254.311 284.348 254.787C283.713 255.264 283.26 255.899 282.988 256.693H278.429V242.133H293.805V246.317Z" fill="white"/>
<path d="M177.683 404.945C177.683 402.609 178.204 400.523 179.248 398.686C180.314 396.826 181.754 395.386 183.568 394.366C185.405 393.322 187.457 392.801 189.725 392.801C192.379 392.801 194.703 393.481 196.699 394.842C198.695 396.203 200.089 398.085 200.883 400.489H195.406C194.862 399.355 194.091 398.504 193.093 397.937C192.118 397.371 190.984 397.087 189.691 397.087C188.308 397.087 187.072 397.416 185.983 398.074C184.917 398.709 184.078 399.616 183.466 400.795C182.876 401.974 182.581 403.358 182.581 404.945C182.581 406.51 182.876 407.893 183.466 409.095C184.078 410.275 184.917 411.193 185.983 411.851C187.072 412.486 188.308 412.803 189.691 412.803C190.984 412.803 192.118 412.52 193.093 411.953C194.091 411.363 194.862 410.502 195.406 409.368H200.883C200.089 411.794 198.695 413.688 196.699 415.049C194.726 416.387 192.401 417.056 189.725 417.056C187.457 417.056 185.405 416.545 183.568 415.525C181.754 414.482 180.314 413.042 179.248 411.205C178.204 409.368 177.683 407.281 177.683 404.945ZM213.149 417.09C211.494 417.09 209.997 416.806 208.659 416.239C207.344 415.672 206.3 414.856 205.529 413.79C204.758 412.724 204.361 411.465 204.339 410.014H209.441C209.509 410.989 209.85 411.76 210.462 412.327C211.097 412.894 211.959 413.178 213.047 413.178C214.159 413.178 215.032 412.917 215.667 412.395C216.302 411.851 216.619 411.148 216.619 410.286C216.619 409.583 216.404 409.005 215.973 408.551C215.542 408.098 214.998 407.746 214.34 407.497C213.705 407.224 212.821 406.93 211.687 406.612C210.144 406.159 208.886 405.716 207.911 405.285C206.958 404.832 206.13 404.163 205.427 403.278C204.747 402.371 204.407 401.169 204.407 399.672C204.407 398.266 204.758 397.042 205.461 395.998C206.164 394.955 207.151 394.161 208.421 393.617C209.691 393.05 211.142 392.767 212.775 392.767C215.224 392.767 217.209 393.368 218.728 394.57C220.271 395.749 221.121 397.405 221.28 399.536H216.041C215.996 398.72 215.644 398.051 214.986 397.529C214.351 396.985 213.501 396.713 212.435 396.713C211.505 396.713 210.757 396.951 210.19 397.427C209.646 397.903 209.373 398.595 209.373 399.502C209.373 400.137 209.577 400.67 209.986 401.101C210.417 401.509 210.938 401.85 211.551 402.122C212.186 402.371 213.07 402.666 214.204 403.006C215.746 403.46 217.005 403.913 217.98 404.367C218.955 404.82 219.794 405.501 220.497 406.408C221.2 407.315 221.552 408.506 221.552 409.98C221.552 411.25 221.223 412.429 220.565 413.518C219.908 414.606 218.944 415.479 217.674 416.137C216.404 416.772 214.896 417.09 213.149 417.09ZM233.879 417.09C232.224 417.09 230.727 416.806 229.389 416.239C228.073 415.672 227.03 414.856 226.259 413.79C225.488 412.724 225.091 411.465 225.068 410.014H230.171C230.239 410.989 230.579 411.76 231.192 412.327C231.827 412.894 232.689 413.178 233.777 413.178C234.888 413.178 235.762 412.917 236.397 412.395C237.032 411.851 237.349 411.148 237.349 410.286C237.349 409.583 237.134 409.005 236.703 408.551C236.272 408.098 235.727 407.746 235.07 407.497C234.435 407.224 233.55 406.93 232.416 406.612C230.874 406.159 229.616 405.716 228.64 405.285C227.688 404.832 226.86 404.163 226.157 403.278C225.477 402.371 225.137 401.169 225.137 399.672C225.137 398.266 225.488 397.042 226.191 395.998C226.894 394.955 227.881 394.161 229.151 393.617C230.421 393.05 231.872 392.767 233.505 392.767C235.954 392.767 237.939 393.368 239.458 394.57C241 395.749 241.851 397.405 242.01 399.536H236.771C236.725 398.72 236.374 398.051 235.716 397.529C235.081 396.985 234.231 396.713 233.165 396.713C232.235 396.713 231.487 396.951 230.92 397.427C230.375 397.903 230.103 398.595 230.103 399.502C230.103 400.137 230.307 400.67 230.715 401.101C231.146 401.509 231.668 401.85 232.28 402.122C232.915 402.371 233.8 402.666 234.934 403.006C236.476 403.46 237.735 403.913 238.71 404.367C239.685 404.82 240.524 405.501 241.227 406.408C241.93 407.315 242.282 408.506 242.282 409.98C242.282 411.25 241.953 412.429 241.295 413.518C240.637 414.606 239.674 415.479 238.404 416.137C237.134 416.772 235.625 417.09 233.879 417.09ZM254.04 398.584C254.154 396.316 254.947 394.57 256.422 393.345C257.918 392.098 259.88 391.474 262.307 391.474C263.962 391.474 265.38 391.769 266.559 392.359C267.738 392.925 268.623 393.708 269.212 394.706C269.825 395.681 270.131 396.792 270.131 398.04C270.131 399.468 269.757 400.682 269.008 401.679C268.282 402.655 267.409 403.312 266.389 403.653V403.789C267.704 404.197 268.725 404.923 269.45 405.966C270.199 407.009 270.573 408.347 270.573 409.98C270.573 411.341 270.256 412.554 269.621 413.62C269.008 414.686 268.09 415.525 266.865 416.137C265.663 416.727 264.212 417.022 262.511 417.022C259.948 417.022 257.862 416.375 256.251 415.083C254.641 413.79 253.791 411.885 253.7 409.368H258.327C258.372 410.479 258.746 411.375 259.449 412.055C260.175 412.713 261.161 413.042 262.409 413.042C263.565 413.042 264.45 412.724 265.062 412.089C265.697 411.431 266.015 410.592 266.015 409.572C266.015 408.211 265.584 407.236 264.722 406.646C263.86 406.056 262.522 405.762 260.708 405.762H259.721V401.85H260.708C263.928 401.85 265.538 400.772 265.538 398.618C265.538 397.643 265.244 396.883 264.654 396.339C264.087 395.794 263.259 395.522 262.171 395.522C261.105 395.522 260.277 395.817 259.687 396.407C259.12 396.974 258.791 397.699 258.701 398.584H254.04Z" fill="white"/>
<path d="M177.683 853.984C177.683 851.648 178.204 849.562 179.248 847.725C180.314 845.865 181.754 844.425 183.568 843.405C185.405 842.361 187.457 841.84 189.725 841.84C192.379 841.84 194.703 842.52 196.699 843.881C198.695 845.242 200.089 847.124 200.883 849.528H195.406C194.862 848.394 194.091 847.544 193.093 846.977C192.118 846.41 190.984 846.126 189.691 846.126C188.308 846.126 187.072 846.455 185.983 847.113C184.917 847.748 184.078 848.655 183.466 849.834C182.876 851.013 182.581 852.397 182.581 853.984C182.581 855.549 182.876 856.933 183.466 858.134C184.078 859.314 184.917 860.232 185.983 860.89C187.072 861.525 188.308 861.842 189.691 861.842C190.984 861.842 192.118 861.559 193.093 860.992C194.091 860.402 194.862 859.541 195.406 858.407H200.883C200.089 860.833 198.695 862.727 196.699 864.088C194.726 865.426 192.401 866.095 189.725 866.095C187.457 866.095 185.405 865.584 183.568 864.564C181.754 863.521 180.314 862.081 179.248 860.244C178.204 858.407 177.683 856.32 177.683 853.984ZM213.149 866.129C211.494 866.129 209.997 865.845 208.659 865.278C207.344 864.711 206.3 863.895 205.529 862.829C204.758 861.763 204.361 860.504 204.339 859.053H209.441C209.509 860.028 209.85 860.799 210.462 861.366C211.097 861.933 211.959 862.217 213.047 862.217C214.159 862.217 215.032 861.956 215.667 861.434C216.302 860.89 216.619 860.187 216.619 859.325C216.619 858.622 216.404 858.044 215.973 857.59C215.542 857.137 214.998 856.785 214.34 856.536C213.705 856.263 212.821 855.969 211.687 855.651C210.144 855.198 208.886 854.755 207.911 854.324C206.958 853.871 206.13 853.202 205.427 852.317C204.747 851.41 204.407 850.208 204.407 848.711C204.407 847.305 204.758 846.081 205.461 845.038C206.164 843.994 207.151 843.201 208.421 842.656C209.691 842.089 211.142 841.806 212.775 841.806C215.224 841.806 217.209 842.407 218.728 843.609C220.271 844.788 221.121 846.444 221.28 848.575H216.041C215.996 847.759 215.644 847.09 214.986 846.568C214.351 846.024 213.501 845.752 212.435 845.752C211.505 845.752 210.757 845.99 210.19 846.466C209.646 846.943 209.373 847.634 209.373 848.541C209.373 849.176 209.577 849.709 209.986 850.14C210.417 850.548 210.938 850.889 211.551 851.161C212.186 851.41 213.07 851.705 214.204 852.045C215.746 852.499 217.005 852.952 217.98 853.406C218.955 853.86 219.794 854.54 220.497 855.447C221.2 856.354 221.552 857.545 221.552 859.019C221.552 860.289 221.223 861.468 220.565 862.557C219.908 863.645 218.944 864.519 217.674 865.176C216.404 865.811 214.896 866.129 213.149 866.129ZM233.879 866.129C232.224 866.129 230.727 865.845 229.389 865.278C228.073 864.711 227.03 863.895 226.259 862.829C225.488 861.763 225.091 860.504 225.068 859.053H230.171C230.239 860.028 230.579 860.799 231.192 861.366C231.827 861.933 232.689 862.217 233.777 862.217C234.888 862.217 235.762 861.956 236.397 861.434C237.032 860.89 237.349 860.187 237.349 859.325C237.349 858.622 237.134 858.044 236.703 857.59C236.272 857.137 235.727 856.785 235.07 856.536C234.435 856.263 233.55 855.969 232.416 855.651C230.874 855.198 229.616 854.755 228.64 854.324C227.688 853.871 226.86 853.202 226.157 852.317C225.477 851.41 225.137 850.208 225.137 848.711C225.137 847.305 225.488 846.081 226.191 845.038C226.894 843.994 227.881 843.201 229.151 842.656C230.421 842.089 231.872 841.806 233.505 841.806C235.954 841.806 237.939 842.407 239.458 843.609C241 844.788 241.851 846.444 242.01 848.575H236.771C236.725 847.759 236.374 847.09 235.716 846.568C235.081 846.024 234.231 845.752 233.165 845.752C232.235 845.752 231.487 845.99 230.92 846.466C230.375 846.943 230.103 847.634 230.103 848.541C230.103 849.176 230.307 849.709 230.715 850.14C231.146 850.548 231.668 850.889 232.28 851.161C232.915 851.41 233.8 851.705 234.934 852.045C236.476 852.499 237.735 852.952 238.71 853.406C239.685 853.86 240.524 854.54 241.227 855.447C241.93 856.354 242.282 857.545 242.282 859.019C242.282 860.289 241.953 861.468 241.295 862.557C240.637 863.645 239.674 864.519 238.404 865.176C237.134 865.811 235.625 866.129 233.879 866.129ZM254.04 847.623C254.154 845.355 254.947 843.609 256.422 842.384C257.918 841.137 259.88 840.513 262.307 840.513C263.962 840.513 265.38 840.808 266.559 841.398C267.738 841.965 268.623 842.747 269.212 843.745C269.825 844.72 270.131 845.831 270.131 847.079C270.131 848.507 269.757 849.721 269.008 850.719C268.282 851.694 267.409 852.351 266.389 852.692V852.828C267.704 853.236 268.725 853.962 269.45 855.005C270.199 856.048 270.573 857.386 270.573 859.019C270.573 860.38 270.256 861.593 269.621 862.659C269.008 863.725 268.09 864.564 266.865 865.176C265.663 865.766 264.212 866.061 262.511 866.061C259.948 866.061 257.862 865.414 256.251 864.122C254.641 862.829 253.791 860.924 253.7 858.407H258.327C258.372 859.518 258.746 860.414 259.449 861.094C260.175 861.752 261.161 862.081 262.409 862.081C263.565 862.081 264.45 861.763 265.062 861.128C265.697 860.47 266.015 859.631 266.015 858.611C266.015 857.25 265.584 856.275 264.722 855.685C263.86 855.096 262.522 854.801 260.708 854.801H259.721V850.889H260.708C263.928 850.889 265.538 849.811 265.538 847.657C265.538 846.682 265.244 845.922 264.654 845.378C264.087 844.833 263.259 844.561 262.171 844.561C261.105 844.561 260.277 844.856 259.687 845.446C259.12 846.013 258.791 846.738 258.701 847.623H254.04Z" fill="white"/>
<path d="M192.685 991.826V1008.49C192.685 1010.81 192.016 1012.61 190.678 1013.9C189.34 1015.17 187.548 1015.81 185.303 1015.81C183.035 1015.81 181.198 1015.15 179.792 1013.84C178.409 1012.52 177.717 1010.68 177.717 1008.32H182.479C182.502 1009.34 182.74 1010.14 183.194 1010.71C183.67 1011.27 184.35 1011.56 185.235 1011.56C186.097 1011.56 186.754 1011.28 187.208 1010.74C187.661 1010.2 187.888 1009.45 187.888 1008.49V991.826H192.685ZM197.016 1006.08C197.016 1004.17 197.39 1002.48 198.138 1001.01C198.909 999.536 199.941 998.402 201.234 997.609C202.549 996.815 204.012 996.418 205.622 996.418C207.028 996.418 208.253 996.702 209.296 997.269C210.362 997.836 211.213 998.55 211.848 999.412V996.724H216.644V1015.57H211.848V1012.81C211.235 1013.7 210.385 1014.44 209.296 1015.03C208.23 1015.59 206.994 1015.88 205.588 1015.88C204.001 1015.88 202.549 1015.47 201.234 1014.65C199.941 1013.84 198.909 1012.69 198.138 1011.22C197.39 1009.72 197.016 1008.01 197.016 1006.08ZM211.848 1006.15C211.848 1004.99 211.621 1004 211.167 1003.19C210.714 1002.35 210.101 1001.71 209.33 1001.28C208.559 1000.83 207.731 1000.6 206.847 1000.6C205.963 1000.6 205.146 1000.82 204.398 1001.25C203.649 1001.68 203.037 1002.31 202.561 1003.15C202.107 1003.97 201.88 1004.95 201.88 1006.08C201.88 1007.21 202.107 1008.21 202.561 1009.07C203.037 1009.91 203.649 1010.56 204.398 1011.01C205.169 1011.47 205.985 1011.69 206.847 1011.69C207.731 1011.69 208.559 1011.48 209.33 1011.05C210.101 1010.59 210.714 1009.96 211.167 1009.14C211.621 1008.3 211.848 1007.3 211.848 1006.15ZM229.154 1011.18L233.916 996.724H238.985L232.011 1015.57H226.228L219.289 996.724H224.391L229.154 1011.18ZM240.435 1006.08C240.435 1004.17 240.81 1002.48 241.558 1001.01C242.329 999.536 243.361 998.402 244.654 997.609C245.969 996.815 247.432 996.418 249.042 996.418C250.448 996.418 251.673 996.702 252.716 997.269C253.782 997.836 254.632 998.55 255.267 999.412V996.724H260.064V1015.57H255.267V1012.81C254.655 1013.7 253.804 1014.44 252.716 1015.03C251.65 1015.59 250.414 1015.88 249.008 1015.88C247.42 1015.88 245.969 1015.47 244.654 1014.65C243.361 1013.84 242.329 1012.69 241.558 1011.22C240.81 1009.72 240.435 1008.01 240.435 1006.08ZM255.267 1006.15C255.267 1004.99 255.04 1004 254.587 1003.19C254.133 1002.35 253.521 1001.71 252.75 1001.28C251.979 1000.83 251.151 1000.6 250.267 1000.6C249.382 1000.6 248.566 1000.82 247.817 1001.25C247.069 1001.68 246.457 1002.31 245.98 1003.15C245.527 1003.97 245.3 1004.95 245.3 1006.08C245.3 1007.21 245.527 1008.21 245.98 1009.07C246.457 1009.91 247.069 1010.56 247.817 1011.01C248.588 1011.47 249.405 1011.69 250.267 1011.69C251.151 1011.69 251.979 1011.48 252.75 1011.05C253.521 1010.59 254.133 1009.96 254.587 1009.14C255.04 1008.3 255.267 1007.3 255.267 1006.15ZM272.914 1015.81C271.258 1015.81 269.761 1015.52 268.423 1014.96C267.108 1014.39 266.065 1013.57 265.294 1012.51C264.523 1011.44 264.126 1010.18 264.103 1008.73H269.206C269.274 1009.71 269.614 1010.48 270.226 1011.05C270.861 1011.61 271.723 1011.9 272.812 1011.9C273.923 1011.9 274.796 1011.64 275.431 1011.11C276.066 1010.57 276.383 1009.87 276.383 1009C276.383 1008.3 276.168 1007.72 275.737 1007.27C275.306 1006.82 274.762 1006.46 274.104 1006.22C273.469 1005.94 272.585 1005.65 271.451 1005.33C269.909 1004.88 268.65 1004.44 267.675 1004C266.722 1003.55 265.895 1002.88 265.192 1002C264.511 1001.09 264.171 999.888 264.171 998.391C264.171 996.985 264.523 995.76 265.226 994.717C265.929 993.674 266.915 992.88 268.185 992.336C269.455 991.769 270.907 991.485 272.539 991.485C274.989 991.485 276.973 992.086 278.493 993.288C280.035 994.468 280.885 996.123 281.044 998.255H275.805C275.76 997.439 275.408 996.77 274.751 996.248C274.116 995.704 273.265 995.432 272.199 995.432C271.269 995.432 270.521 995.67 269.954 996.146C269.41 996.622 269.138 997.314 269.138 998.221C269.138 998.856 269.342 999.389 269.75 999.82C270.181 1000.23 270.702 1000.57 271.315 1000.84C271.95 1001.09 272.834 1001.38 273.968 1001.72C275.51 1002.18 276.769 1002.63 277.744 1003.09C278.719 1003.54 279.559 1004.22 280.262 1005.13C280.965 1006.03 281.316 1007.22 281.316 1008.7C281.316 1009.97 280.987 1011.15 280.33 1012.24C279.672 1013.33 278.708 1014.2 277.438 1014.86C276.168 1015.49 274.66 1015.81 272.914 1015.81ZM284.22 1006.15C284.22 1004.2 284.617 1002.5 285.411 1001.04C286.205 999.57 287.305 998.437 288.711 997.643C290.117 996.826 291.727 996.418 293.541 996.418C295.877 996.418 297.805 997.008 299.324 998.187C300.867 999.344 301.899 1000.98 302.42 1003.09H297.283C297.011 1002.27 296.546 1001.63 295.889 1001.18C295.254 1000.7 294.46 1000.47 293.507 1000.47C292.147 1000.47 291.069 1000.97 290.276 1001.96C289.482 1002.94 289.085 1004.33 289.085 1006.15C289.085 1007.94 289.482 1009.33 290.276 1010.33C291.069 1011.31 292.147 1011.79 293.507 1011.79C295.435 1011.79 296.694 1010.93 297.283 1009.21H302.42C301.899 1011.25 300.867 1012.87 299.324 1014.07C297.782 1015.28 295.855 1015.88 293.541 1015.88C291.727 1015.88 290.117 1015.48 288.711 1014.69C287.305 1013.87 286.205 1012.74 285.411 1011.28C284.617 1009.81 284.22 1008.1 284.22 1006.15ZM310.672 999.65C311.284 998.652 312.078 997.87 313.053 997.303C314.051 996.736 315.185 996.452 316.455 996.452V1001.45H315.196C313.699 1001.45 312.565 1001.8 311.794 1002.51C311.046 1003.21 310.672 1004.44 310.672 1006.18V1015.57H305.909V996.724H310.672V999.65ZM322.078 994.479C321.239 994.479 320.536 994.218 319.969 993.697C319.424 993.152 319.152 992.483 319.152 991.69C319.152 990.896 319.424 990.238 319.969 989.717C320.536 989.172 321.239 988.9 322.078 988.9C322.917 988.9 323.609 989.172 324.153 989.717C324.72 990.238 325.003 990.896 325.003 991.69C325.003 992.483 324.72 993.152 324.153 993.697C323.609 994.218 322.917 994.479 322.078 994.479ZM324.425 996.724V1015.57H319.663V996.724H324.425ZM333.893 999.446C334.505 998.584 335.344 997.87 336.41 997.303C337.499 996.713 338.735 996.418 340.118 996.418C341.729 996.418 343.18 996.815 344.473 997.609C345.788 998.402 346.82 999.536 347.568 1001.01C348.339 1002.46 348.725 1004.15 348.725 1006.08C348.725 1008.01 348.339 1009.72 347.568 1011.22C346.82 1012.69 345.788 1013.84 344.473 1014.65C343.18 1015.47 341.729 1015.88 340.118 1015.88C338.735 1015.88 337.51 1015.59 336.444 1015.03C335.401 1014.46 334.551 1013.74 333.893 1012.88V1024.55H329.13V996.724H333.893V999.446ZM343.86 1006.08C343.86 1004.95 343.622 1003.97 343.146 1003.15C342.692 1002.31 342.08 1001.68 341.309 1001.25C340.561 1000.82 339.744 1000.6 338.86 1000.6C337.998 1000.6 337.181 1000.83 336.41 1001.28C335.662 1001.71 335.05 1002.35 334.573 1003.19C334.12 1004.03 333.893 1005.01 333.893 1006.15C333.893 1007.28 334.12 1008.27 334.573 1009.11C335.05 1009.95 335.662 1010.59 336.41 1011.05C337.181 1011.48 337.998 1011.69 338.86 1011.69C339.744 1011.69 340.561 1011.47 341.309 1011.01C342.08 1010.56 342.692 1009.91 343.146 1009.07C343.622 1008.23 343.86 1007.24 343.86 1006.08ZM357.731 1000.64V1009.75C357.731 1010.39 357.878 1010.85 358.173 1011.15C358.49 1011.42 359.012 1011.56 359.738 1011.56H361.949V1015.57H358.955C354.941 1015.57 352.934 1013.62 352.934 1009.72V1000.64H350.689V996.724H352.934V992.064H357.731V996.724H361.949V1000.64H357.731Z" fill="white"/>
<path d="M192.685 538.533V555.202C192.685 557.515 192.016 559.318 190.678 560.61C189.34 561.88 187.548 562.515 185.303 562.515C183.035 562.515 181.198 561.858 179.792 560.542C178.409 559.227 177.717 557.39 177.717 555.031H182.479C182.502 556.052 182.74 556.846 183.194 557.413C183.67 557.98 184.35 558.263 185.235 558.263C186.097 558.263 186.754 557.991 187.208 557.447C187.661 556.902 187.888 556.154 187.888 555.202V538.533H192.685ZM197.016 552.786C197.016 550.881 197.39 549.192 198.138 547.718C198.909 546.243 199.941 545.11 201.234 544.316C202.549 543.522 204.012 543.125 205.622 543.125C207.028 543.125 208.253 543.409 209.296 543.976C210.362 544.543 211.213 545.257 211.848 546.119V543.431H216.644V562.277H211.848V559.522C211.235 560.406 210.385 561.143 209.296 561.733C208.23 562.3 206.994 562.584 205.588 562.584C204.001 562.584 202.549 562.175 201.234 561.359C199.941 560.542 198.909 559.397 198.138 557.923C197.39 556.426 197.016 554.714 197.016 552.786ZM211.848 552.854C211.848 551.698 211.621 550.711 211.167 549.895C210.714 549.056 210.101 548.421 209.33 547.99C208.559 547.536 207.731 547.309 206.847 547.309C205.963 547.309 205.146 547.525 204.398 547.956C203.649 548.387 203.037 549.022 202.561 549.861C202.107 550.677 201.88 551.652 201.88 552.786C201.88 553.92 202.107 554.918 202.561 555.78C203.037 556.619 203.649 557.265 204.398 557.719C205.169 558.172 205.985 558.399 206.847 558.399C207.731 558.399 208.559 558.184 209.33 557.753C210.101 557.299 210.714 556.664 211.167 555.848C211.621 555.009 211.848 554.011 211.848 552.854ZM229.154 557.889L233.916 543.431H238.985L232.011 562.277H226.228L219.289 543.431H224.391L229.154 557.889ZM240.435 552.786C240.435 550.881 240.81 549.192 241.558 547.718C242.329 546.243 243.361 545.11 244.654 544.316C245.969 543.522 247.432 543.125 249.042 543.125C250.448 543.125 251.673 543.409 252.716 543.976C253.782 544.543 254.632 545.257 255.267 546.119V543.431H260.064V562.277H255.267V559.522C254.655 560.406 253.804 561.143 252.716 561.733C251.65 562.3 250.414 562.584 249.008 562.584C247.42 562.584 245.969 562.175 244.654 561.359C243.361 560.542 242.329 559.397 241.558 557.923C240.81 556.426 240.435 554.714 240.435 552.786ZM255.267 552.854C255.267 551.698 255.04 550.711 254.587 549.895C254.133 549.056 253.521 548.421 252.75 547.99C251.979 547.536 251.151 547.309 250.267 547.309C249.382 547.309 248.566 547.525 247.817 547.956C247.069 548.387 246.457 549.022 245.98 549.861C245.527 550.677 245.3 551.652 245.3 552.786C245.3 553.92 245.527 554.918 245.98 555.78C246.457 556.619 247.069 557.265 247.817 557.719C248.588 558.172 249.405 558.399 250.267 558.399C251.151 558.399 251.979 558.184 252.75 557.753C253.521 557.299 254.133 556.664 254.587 555.848C255.04 555.009 255.267 554.011 255.267 552.854ZM272.914 562.515C271.258 562.515 269.761 562.232 268.423 561.665C267.108 561.098 266.065 560.282 265.294 559.216C264.523 558.15 264.126 556.891 264.103 555.44H269.206C269.274 556.415 269.614 557.186 270.226 557.753C270.861 558.32 271.723 558.603 272.812 558.603C273.923 558.603 274.796 558.343 275.431 557.821C276.066 557.277 276.383 556.574 276.383 555.712C276.383 555.009 276.168 554.43 275.737 553.977C275.306 553.523 274.762 553.172 274.104 552.922C273.469 552.65 272.585 552.355 271.451 552.038C269.909 551.584 268.65 551.142 267.675 550.711C266.722 550.258 265.895 549.589 265.192 548.704C264.511 547.797 264.171 546.595 264.171 545.098C264.171 543.692 264.523 542.467 265.226 541.424C265.929 540.381 266.915 539.587 268.185 539.043C269.455 538.476 270.907 538.193 272.539 538.193C274.989 538.193 276.973 538.793 278.493 539.995C280.035 541.175 280.885 542.83 281.044 544.962H275.805C275.76 544.146 275.408 543.477 274.751 542.955C274.116 542.411 273.265 542.139 272.199 542.139C271.269 542.139 270.521 542.377 269.954 542.853C269.41 543.329 269.138 544.021 269.138 544.928C269.138 545.563 269.342 546.096 269.75 546.527C270.181 546.935 270.702 547.275 271.315 547.547C271.95 547.797 272.834 548.092 273.968 548.432C275.51 548.886 276.769 549.339 277.744 549.793C278.719 550.246 279.559 550.927 280.262 551.834C280.965 552.741 281.316 553.932 281.316 555.406C281.316 556.676 280.987 557.855 280.33 558.944C279.672 560.032 278.708 560.905 277.438 561.563C276.168 562.198 274.66 562.515 272.914 562.515ZM284.22 552.854C284.22 550.904 284.617 549.203 285.411 547.752C286.205 546.277 287.305 545.144 288.711 544.35C290.117 543.533 291.727 543.125 293.541 543.125C295.877 543.125 297.805 543.715 299.324 544.894C300.867 546.051 301.899 547.684 302.42 549.793H297.283C297.011 548.976 296.546 548.341 295.889 547.888C295.254 547.411 294.46 547.173 293.507 547.173C292.147 547.173 291.069 547.672 290.276 548.67C289.482 549.645 289.085 551.04 289.085 552.854C289.085 554.646 289.482 556.041 290.276 557.039C291.069 558.014 292.147 558.501 293.507 558.501C295.435 558.501 296.694 557.64 297.283 555.916H302.42C301.899 557.957 300.867 559.579 299.324 560.781C297.782 561.983 295.855 562.584 293.541 562.584C291.727 562.584 290.117 562.187 288.711 561.393C287.305 560.576 286.205 559.442 285.411 557.991C284.617 556.517 284.22 554.805 284.22 552.854ZM310.672 546.357C311.284 545.359 312.078 544.577 313.053 544.01C314.051 543.443 315.185 543.159 316.455 543.159V548.16H315.196C313.699 548.16 312.565 548.511 311.794 549.214C311.046 549.917 310.672 551.142 310.672 552.888V562.277H305.909V543.431H310.672V546.357ZM322.078 541.186C321.239 541.186 320.536 540.925 319.969 540.404C319.424 539.859 319.152 539.19 319.152 538.397C319.152 537.603 319.424 536.945 319.969 536.424C320.536 535.879 321.239 535.607 322.078 535.607C322.917 535.607 323.609 535.879 324.153 536.424C324.72 536.945 325.003 537.603 325.003 538.397C325.003 539.19 324.72 539.859 324.153 540.404C323.609 540.925 322.917 541.186 322.078 541.186ZM324.425 543.431V562.277H319.663V543.431H324.425ZM333.893 546.153C334.505 545.291 335.344 544.577 336.41 544.01C337.499 543.42 338.735 543.125 340.118 543.125C341.729 543.125 343.18 543.522 344.473 544.316C345.788 545.11 346.82 546.243 347.568 547.718C348.339 549.169 348.725 550.859 348.725 552.786C348.725 554.714 348.339 556.426 347.568 557.923C346.82 559.397 345.788 560.542 344.473 561.359C343.18 562.175 341.729 562.584 340.118 562.584C338.735 562.584 337.51 562.3 336.444 561.733C335.401 561.166 334.551 560.452 333.893 559.59V571.258H329.13V543.431H333.893V546.153ZM343.86 552.786C343.86 551.652 343.622 550.677 343.146 549.861C342.692 549.022 342.08 548.387 341.309 547.956C340.561 547.525 339.744 547.309 338.86 547.309C337.998 547.309 337.181 547.536 336.41 547.99C335.662 548.421 335.05 549.056 334.573 549.895C334.12 550.734 333.893 551.72 333.893 552.854C333.893 553.988 334.12 554.975 334.573 555.814C335.05 556.653 335.662 557.299 336.41 557.753C337.181 558.184 337.998 558.399 338.86 558.399C339.744 558.399 340.561 558.172 341.309 557.719C342.08 557.265 342.692 556.619 343.146 555.78C343.622 554.941 343.86 553.943 343.86 552.786ZM357.731 547.343V556.46C357.731 557.095 357.878 557.56 358.173 557.855C358.49 558.127 359.012 558.263 359.738 558.263H361.949V562.277H358.955C354.941 562.277 352.934 560.327 352.934 556.426V547.343H350.689V543.431H352.934V538.771H357.731V543.431H361.949V547.343H357.731Z" fill="white"/>
<path d="M187.889 713.898C186.234 713.898 184.737 713.615 183.399 713.048C182.084 712.481 181.04 711.664 180.269 710.599C179.498 709.533 179.101 708.274 179.079 706.823H184.181C184.249 707.798 184.59 708.569 185.202 709.136C185.837 709.703 186.699 709.986 187.787 709.986C188.899 709.986 189.772 709.725 190.407 709.204C191.042 708.659 191.359 707.956 191.359 707.095C191.359 706.392 191.144 705.813 190.713 705.36C190.282 704.906 189.738 704.555 189.08 704.305C188.445 704.033 187.561 703.738 186.427 703.421C184.884 702.967 183.626 702.525 182.651 702.094C181.698 701.64 180.87 700.971 180.167 700.087C179.487 699.18 179.147 697.978 179.147 696.481C179.147 695.075 179.498 693.85 180.201 692.807C180.904 691.764 181.891 690.97 183.161 690.426C184.431 689.859 185.882 689.575 187.515 689.575C189.964 689.575 191.949 690.176 193.468 691.378C195.01 692.558 195.861 694.213 196.02 696.345H190.781C190.736 695.528 190.384 694.859 189.726 694.338C189.091 693.794 188.241 693.521 187.175 693.521C186.245 693.521 185.497 693.76 184.93 694.236C184.386 694.712 184.113 695.404 184.113 696.311C184.113 696.946 184.317 697.479 184.726 697.91C185.157 698.318 185.678 698.658 186.291 698.93C186.926 699.18 187.81 699.475 188.944 699.815C190.486 700.268 191.745 700.722 192.72 701.176C193.695 701.629 194.534 702.309 195.237 703.217C195.94 704.124 196.292 705.314 196.292 706.788C196.292 708.059 195.963 709.238 195.305 710.326C194.648 711.415 193.684 712.288 192.414 712.946C191.144 713.581 189.636 713.898 187.889 713.898ZM199.264 701.754C199.264 699.418 199.786 697.331 200.829 695.494C201.895 693.635 203.335 692.195 205.149 691.174C206.986 690.131 209.039 689.609 211.307 689.609C213.96 689.609 216.285 690.29 218.28 691.65C220.276 693.011 221.671 694.893 222.465 697.297H216.988C216.443 696.163 215.672 695.313 214.674 694.746C213.699 694.179 212.565 693.896 211.273 693.896C209.889 693.896 208.653 694.224 207.565 694.882C206.499 695.517 205.66 696.424 205.047 697.604C204.458 698.783 204.163 700.166 204.163 701.754C204.163 703.319 204.458 704.702 205.047 705.904C205.66 707.083 206.499 708.002 207.565 708.659C208.653 709.294 209.889 709.612 211.273 709.612C212.565 709.612 213.699 709.329 214.674 708.762C215.672 708.172 216.443 707.31 216.988 706.176H222.465C221.671 708.603 220.276 710.496 218.28 711.857C216.307 713.195 213.983 713.864 211.307 713.864C209.039 713.864 206.986 713.354 205.149 712.333C203.335 711.29 201.895 709.85 200.829 708.013C199.786 706.176 199.264 704.09 199.264 701.754ZM238.779 713.66L233.54 704.407H231.295V713.66H226.532V689.916H235.445C237.282 689.916 238.847 690.244 240.14 690.902C241.432 691.537 242.396 692.41 243.031 693.521C243.689 694.61 244.018 695.835 244.018 697.195C244.018 698.76 243.564 700.178 242.657 701.448C241.75 702.695 240.4 703.557 238.609 704.033L244.29 713.66H238.779ZM231.295 700.835H235.275C236.568 700.835 237.532 700.529 238.167 699.917C238.802 699.282 239.119 698.409 239.119 697.297C239.119 696.209 238.802 695.37 238.167 694.78C237.532 694.168 236.568 693.862 235.275 693.862H231.295V700.835ZM253.02 689.916V704.611C253.02 706.222 253.439 707.458 254.278 708.319C255.118 709.158 256.297 709.578 257.816 709.578C259.358 709.578 260.549 709.158 261.388 708.319C262.227 707.458 262.647 706.222 262.647 704.611V689.916H267.443V704.577C267.443 706.596 267.001 708.308 266.117 709.714C265.255 711.097 264.087 712.141 262.613 712.844C261.161 713.547 259.54 713.898 257.748 713.898C255.979 713.898 254.369 713.547 252.918 712.844C251.489 712.141 250.355 711.097 249.516 709.714C248.677 708.308 248.257 706.596 248.257 704.577V689.916H253.02ZM297.933 689.916V713.66H293.17V698.216L286.809 713.66H283.203L276.807 698.216V713.66H272.045V689.916H277.454L285.006 707.571L292.558 689.916H297.933Z" fill="white"/>
<rect x="76.1406" y="654.547" width="86.7462" height="76.5408" rx="17.0091" fill="#1F204C"/>
<g filter="url(#filter11_ddd_2029_14129)">
<path d="M106.142 681.62L106.225 681.868C106.294 682.073 106.399 682.265 106.536 682.432C107.037 683.044 107.074 683.913 106.628 684.565L104.569 687.574C104.449 687.749 104.202 687.776 104.047 687.632L103.882 687.477C103.026 686.678 102.311 685.74 101.767 684.703L101.742 684.653C101.45 684.096 101.208 683.513 101.02 682.912L101.011 682.884C100.816 682.259 100.682 681.618 100.61 680.968L100.598 680.867C100.523 680.185 100.523 679.497 100.598 678.815L100.628 678.553C100.688 678.011 100.811 677.478 100.994 676.964C101.199 676.391 101.477 675.847 101.822 675.345L102.132 674.894C102.436 674.452 102.771 674.033 103.135 673.639L103.369 673.384C103.783 672.936 104.232 672.522 104.712 672.145L105.202 671.76C105.485 671.537 105.79 671.344 106.112 671.183C106.718 670.88 107.377 670.695 108.053 670.639L108.767 670.579C109.477 670.52 110.191 670.545 110.895 670.653L111.355 670.724L112.888 671.085C113.156 671.148 113.433 671.023 113.563 670.781L114.311 669.392C114.564 668.922 115.255 668.982 115.423 669.488L117.583 675.967C117.692 676.295 117.507 676.648 117.174 676.743L110.612 678.631C110.099 678.779 109.658 678.24 109.904 677.766L110.56 676.505C110.656 676.321 110.522 676.101 110.315 676.101H110.286C109.986 676.101 109.687 676.128 109.392 676.181C108.834 676.283 108.298 676.478 107.806 676.759L107.731 676.802L107.305 677.122C106.969 677.374 106.685 677.688 106.469 678.049C106.223 678.459 106.07 678.919 106.023 679.396L105.978 679.841V680.607C105.978 680.951 106.034 681.293 106.142 681.62Z" stroke="white" stroke-width="0.850453" shape-rendering="crispEdges"/>
</g>
<g filter="url(#filter12_ddd_2029_14129)">
<path d="M122.661 709.063H94.0307C93.4558 709.063 93.2018 709.787 93.6508 710.146L94.6774 710.967C94.9644 711.197 94.9838 711.626 94.7187 711.881L93.4038 713.143C93.0064 713.525 93.2804 714.196 93.8313 714.19L124.414 713.876C125.747 713.862 127.067 713.621 128.318 713.162L129.151 712.857C129.673 712.665 130.18 712.437 130.669 712.174L132.974 710.933L134.62 709.836C135.62 709.169 136.512 708.351 137.263 707.412L137.338 707.319C137.778 706.768 138.168 706.179 138.502 705.558L139.636 703.452L140.227 702.153C140.611 701.308 140.893 700.42 141.066 699.508C141.204 698.788 141.272 698.057 141.272 697.325V696.79L141.039 693.751L140.805 691.764L140.68 691.18C140.53 690.479 140.316 689.794 140.04 689.133L139.668 688.24C139.413 687.629 139.107 687.041 138.753 686.482L137.572 684.617C137.234 684.083 136.854 683.578 136.434 683.106L136.234 682.881C135.544 682.105 134.753 681.424 133.883 680.856L132.506 679.958L130.907 679.079C130.415 678.808 129.904 678.573 129.378 678.376L128.298 677.971L127.795 677.812C126.657 677.453 125.47 677.27 124.275 677.27H123.973H122.22L120.413 677.486C119.671 677.575 118.94 677.735 118.229 677.964L116.025 678.672L114.381 679.459C113.686 679.791 113.026 680.191 112.411 680.652L111.925 681.017C111.309 681.479 110.74 682 110.227 682.574L109.566 683.313C109.197 683.725 108.858 684.163 108.551 684.623L107.142 686.737L106.29 688.441C105.923 689.173 105.635 689.942 105.43 690.735L105.295 691.256C105.046 692.214 104.921 693.199 104.921 694.189V695.036V697.257L105.271 699.946L105.665 701.916C105.708 702.131 105.597 702.346 105.397 702.435L103.588 703.239C103.211 703.407 103.22 703.945 103.602 704.1L110.206 706.779C110.449 706.878 110.725 706.758 110.819 706.513L113.597 699.245C113.632 699.155 113.543 699.067 113.453 699.102L111.972 699.684C111.156 700.005 110.247 699.517 110.064 698.66L109.922 697.032C109.861 696.326 109.864 695.617 109.931 694.911L110.064 693.517L110.283 692.463C110.525 691.302 110.953 690.178 111.541 689.149C111.878 688.559 112.272 687.996 112.711 687.477C113.127 686.985 113.586 686.53 114.081 686.117L115.44 684.984L116.532 684.295C117.282 683.821 118.091 683.451 118.939 683.193L119.008 683.172C119.898 682.901 120.822 682.763 121.752 682.763H124.324L126.077 682.997L127.446 683.357C128.013 683.506 128.562 683.713 129.086 683.975C129.65 684.257 130.181 684.601 130.669 685L131.22 685.452L132.272 686.387L133.165 687.407C133.66 687.972 134.098 688.584 134.474 689.234C134.953 690.06 135.327 690.942 135.589 691.86L135.68 692.177C135.978 693.221 136.129 694.302 136.129 695.388V695.925C136.129 697.041 135.97 698.152 135.655 699.223L135.387 700.132C135.104 701.094 134.69 702.012 134.155 702.861C133.375 704.1 132.354 705.168 131.152 706.003L130.144 706.703C129.23 707.338 128.229 707.839 127.173 708.191L126.357 708.463C125.165 708.86 123.917 709.063 122.661 709.063Z" stroke="white" stroke-width="0.850453" shape-rendering="crispEdges"/>
</g>
<g filter="url(#filter13_ddd_2029_14129)">
<path d="M135.249 711.904L133.594 712.835C133.048 713.142 133.266 713.973 133.892 713.973H142.885C143.22 713.973 143.493 714.246 143.493 714.581V715.968C143.493 716.516 144.16 716.785 144.54 716.389L148.721 712.034C148.938 711.808 148.948 711.454 148.744 711.217L144.563 706.338C144.195 705.909 143.493 706.169 143.493 706.734V708.456C143.493 708.792 143.22 709.064 142.885 709.064H138.588C138.435 709.064 138.287 709.122 138.175 709.225L136.83 710.467L135.363 711.821C135.328 711.853 135.29 711.881 135.249 711.904Z" stroke="white" stroke-width="0.850453" shape-rendering="crispEdges"/>
</g>
<line opacity="0.2" x1="76.1462" y1="312.525" x2="516.681" y2="314.981" stroke="url(#paint0_linear_2029_14129)" stroke-width="1.98198"/>
<line opacity="0.2" x1="76.1462" y1="467.306" x2="516.681" y2="469.762" stroke="url(#paint1_linear_2029_14129)" stroke-width="1.98198"/>
<line opacity="0.2" x1="68.4899" y1="626.341" x2="509.025" y2="628.798" stroke="url(#paint2_linear_2029_14129)" stroke-width="1.98198"/>
<line opacity="0.2" x1="68.4899" y1="768.368" x2="509.025" y2="770.825" stroke="url(#paint3_linear_2029_14129)" stroke-width="1.98198"/>
<line opacity="0.2" x1="68.4899" y1="923.15" x2="509.025" y2="925.606" stroke="url(#paint4_linear_2029_14129)" stroke-width="1.98198"/>
<line opacity="0.2" x1="68.4899" y1="1069.43" x2="509.025" y2="1071.88" stroke="url(#paint5_linear_2029_14129)" stroke-width="1.98198"/>
<line opacity="0.2" x1="68.4899" y1="1214.01" x2="509.025" y2="1216.46" stroke="url(#paint6_linear_2029_14129)" stroke-width="1.98198"/>
<defs>
<filter id="filter0_ddd_2029_14129" x="0.598187" y="0" width="569.804" height="1338.61" filterUnits="userSpaceOnUse" color-interpolation-filters="sRGB">
<feFlood flood-opacity="0" result="BackgroundImageFix"/>
<feColorMatrix in="SourceAlpha" type="matrix" values="0 0 0 0 0 0 0 0 0 0 0 0 0 0 0 0 0 0 127 0" result="hardAlpha"/>
<feOffset dy="3.40181"/>
<feGaussianBlur stdDeviation="1.70091"/>
<feComposite in2="hardAlpha" operator="out"/>
<feColorMatrix type="matrix" values="0 0 0 0 0 0 0 0 0 0 0 0 0 0 0 0 0 0 0.25 0"/>
<feBlend mode="normal" in2="BackgroundImageFix" result="effect1_dropShadow_2029_14129"/>
<feColorMatrix in="SourceAlpha" type="matrix" values="0 0 0 0 0 0 0 0 0 0 0 0 0 0 0 0 0 0 127 0" result="hardAlpha"/>
<feOffset dy="3.40181"/>
<feGaussianBlur stdDeviation="1.70091"/>
<feComposite in2="hardAlpha" operator="out"/>
<feColorMatrix type="matrix" values="0 0 0 0 0 0 0 0 0 0 0 0 0 0 0 0 0 0 0.25 0"/>
<feBlend mode="normal" in2="effect1_dropShadow_2029_14129" result="effect2_dropShadow_2029_14129"/>
<feColorMatrix in="SourceAlpha" type="matrix" values="0 0 0 0 0 0 0 0 0 0 0 0 0 0 0 0 0 0 127 0" result="hardAlpha"/>
<feOffset dy="3.40181"/>
<feGaussianBlur stdDeviation="1.70091"/>
<feComposite in2="hardAlpha" operator="out"/>
<feColorMatrix type="matrix" values="0 0 0 0 0 0 0 0 0 0 0 0 0 0 0 0 0 0 0.25 0"/>
<feBlend mode="normal" in2="effect2_dropShadow_2029_14129" result="effect3_dropShadow_2029_14129"/>
<feBlend mode="normal" in="SourceGraphic" in2="effect3_dropShadow_2029_14129" result="shape"/>
</filter>
<filter id="filter1_ddd_2029_14129" x="92.3013" y="1121.02" width="53.5771" height="60.3818" filterUnits="userSpaceOnUse" color-interpolation-filters="sRGB">
<feFlood flood-opacity="0" result="BackgroundImageFix"/>
<feColorMatrix in="SourceAlpha" type="matrix" values="0 0 0 0 0 0 0 0 0 0 0 0 0 0 0 0 0 0 127 0" result="hardAlpha"/>
<feOffset dy="3.40181"/>
<feGaussianBlur stdDeviation="1.70091"/>
<feComposite in2="hardAlpha" operator="out"/>
<feColorMatrix type="matrix" values="0 0 0 0 0 0 0 0 0 0 0 0 0 0 0 0 0 0 0.25 0"/>
<feBlend mode="normal" in2="BackgroundImageFix" result="effect1_dropShadow_2029_14129"/>
<feColorMatrix in="SourceAlpha" type="matrix" values="0 0 0 0 0 0 0 0 0 0 0 0 0 0 0 0 0 0 127 0" result="hardAlpha"/>
<feOffset dy="3.40181"/>
<feGaussianBlur stdDeviation="1.70091"/>
<feComposite in2="hardAlpha" operator="out"/>
<feColorMatrix type="matrix" values="0 0 0 0 0 0 0 0 0 0 0 0 0 0 0 0 0 0 0.25 0"/>
<feBlend mode="normal" in2="effect1_dropShadow_2029_14129" result="effect2_dropShadow_2029_14129"/>
<feColorMatrix in="SourceAlpha" type="matrix" values="0 0 0 0 0 0 0 0 0 0 0 0 0 0 0 0 0 0 127 0" result="hardAlpha"/>
<feOffset dy="3.40181"/>
<feGaussianBlur stdDeviation="1.70091"/>
<feComposite in2="hardAlpha" operator="out"/>
<feColorMatrix type="matrix" values="0 0 0 0 0 0 0 0 0 0 0 0 0 0 0 0 0 0 0.25 0"/>
<feBlend mode="normal" in2="effect2_dropShadow_2029_14129" result="effect3_dropShadow_2029_14129"/>
<feBlend mode="normal" in="SourceGraphic" in2="effect3_dropShadow_2029_14129" result="shape"/>
</filter>
<filter id="filter2_ddd_2029_14129" x="91.4419" y="372.625" width="54.0068" height="59.956" filterUnits="userSpaceOnUse" color-interpolation-filters="sRGB">
<feFlood flood-opacity="0" result="BackgroundImageFix"/>
<feColorMatrix in="SourceAlpha" type="matrix" values="0 0 0 0 0 0 0 0 0 0 0 0 0 0 0 0 0 0 127 0" result="hardAlpha"/>
<feOffset dy="3.40181"/>
<feGaussianBlur stdDeviation="1.70091"/>
<feComposite in2="hardAlpha" operator="out"/>
<feColorMatrix type="matrix" values="0 0 0 0 0 0 0 0 0 0 0 0 0 0 0 0 0 0 0.25 0"/>
<feBlend mode="normal" in2="BackgroundImageFix" result="effect1_dropShadow_2029_14129"/>
<feColorMatrix in="SourceAlpha" type="matrix" values="0 0 0 0 0 0 0 0 0 0 0 0 0 0 0 0 0 0 127 0" result="hardAlpha"/>
<feOffset dy="3.40181"/>
<feGaussianBlur stdDeviation="1.70091"/>
<feComposite in2="hardAlpha" operator="out"/>
<feColorMatrix type="matrix" values="0 0 0 0 0 0 0 0 0 0 0 0 0 0 0 0 0 0 0.25 0"/>
<feBlend mode="normal" in2="effect1_dropShadow_2029_14129" result="effect2_dropShadow_2029_14129"/>
<feColorMatrix in="SourceAlpha" type="matrix" values="0 0 0 0 0 0 0 0 0 0 0 0 0 0 0 0 0 0 127 0" result="hardAlpha"/>
<feOffset dy="3.40181"/>
<feGaussianBlur stdDeviation="1.70091"/>
<feComposite in2="hardAlpha" operator="out"/>
<feColorMatrix type="matrix" values="0 0 0 0 0 0 0 0 0 0 0 0 0 0 0 0 0 0 0.25 0"/>
<feBlend mode="normal" in2="effect2_dropShadow_2029_14129" result="effect3_dropShadow_2029_14129"/>
<feBlend mode="normal" in="SourceGraphic" in2="effect3_dropShadow_2029_14129" result="shape"/>
</filter>
<filter id="filter3_ddd_2029_14129" x="90.5982" y="821.66" width="54.0068" height="59.956" filterUnits="userSpaceOnUse" color-interpolation-filters="sRGB">
<feFlood flood-opacity="0" result="BackgroundImageFix"/>
<feColorMatrix in="SourceAlpha" type="matrix" values="0 0 0 0 0 0 0 0 0 0 0 0 0 0 0 0 0 0 127 0" result="hardAlpha"/>
<feOffset dy="3.40181"/>
<feGaussianBlur stdDeviation="1.70091"/>
<feComposite in2="hardAlpha" operator="out"/>
<feColorMatrix type="matrix" values="0 0 0 0 0 0 0 0 0 0 0 0 0 0 0 0 0 0 0.25 0"/>
<feBlend mode="normal" in2="BackgroundImageFix" result="effect1_dropShadow_2029_14129"/>
<feColorMatrix in="SourceAlpha" type="matrix" values="0 0 0 0 0 0 0 0 0 0 0 0 0 0 0 0 0 0 127 0" result="hardAlpha"/>
<feOffset dy="3.40181"/>
<feGaussianBlur stdDeviation="1.70091"/>
<feComposite in2="hardAlpha" operator="out"/>
<feColorMatrix type="matrix" values="0 0 0 0 0 0 0 0 0 0 0 0 0 0 0 0 0 0 0.25 0"/>
<feBlend mode="normal" in2="effect1_dropShadow_2029_14129" result="effect2_dropShadow_2029_14129"/>
<feColorMatrix in="SourceAlpha" type="matrix" values="0 0 0 0 0 0 0 0 0 0 0 0 0 0 0 0 0 0 127 0" result="hardAlpha"/>
<feOffset dy="3.40181"/>
<feGaussianBlur stdDeviation="1.70091"/>
<feComposite in2="hardAlpha" operator="out"/>
<feColorMatrix type="matrix" values="0 0 0 0 0 0 0 0 0 0 0 0 0 0 0 0 0 0 0.25 0"/>
<feBlend mode="normal" in2="effect2_dropShadow_2029_14129" result="effect3_dropShadow_2029_14129"/>
<feBlend mode="normal" in="SourceGraphic" in2="effect3_dropShadow_2029_14129" result="shape"/>
</filter>
<filter id="filter4_ddd_2029_14129" x="90.5982" y="821.66" width="54.0068" height="59.956" filterUnits="userSpaceOnUse" color-interpolation-filters="sRGB">
<feFlood flood-opacity="0" result="BackgroundImageFix"/>
<feColorMatrix in="SourceAlpha" type="matrix" values="0 0 0 0 0 0 0 0 0 0 0 0 0 0 0 0 0 0 127 0" result="hardAlpha"/>
<feOffset dy="3.40181"/>
<feGaussianBlur stdDeviation="1.70091"/>
<feComposite in2="hardAlpha" operator="out"/>
<feColorMatrix type="matrix" values="0 0 0 0 0 0 0 0 0 0 0 0 0 0 0 0 0 0 0.25 0"/>
<feBlend mode="normal" in2="BackgroundImageFix" result="effect1_dropShadow_2029_14129"/>
<feColorMatrix in="SourceAlpha" type="matrix" values="0 0 0 0 0 0 0 0 0 0 0 0 0 0 0 0 0 0 127 0" result="hardAlpha"/>
<feOffset dy="3.40181"/>
<feGaussianBlur stdDeviation="1.70091"/>
<feComposite in2="hardAlpha" operator="out"/>
<feColorMatrix type="matrix" values="0 0 0 0 0 0 0 0 0 0 0 0 0 0 0 0 0 0 0.25 0"/>
<feBlend mode="normal" in2="effect1_dropShadow_2029_14129" result="effect2_dropShadow_2029_14129"/>
<feColorMatrix in="SourceAlpha" type="matrix" values="0 0 0 0 0 0 0 0 0 0 0 0 0 0 0 0 0 0 127 0" result="hardAlpha"/>
<feOffset dy="3.40181"/>
<feGaussianBlur stdDeviation="1.70091"/>
<feComposite in2="hardAlpha" operator="out"/>
<feColorMatrix type="matrix" values="0 0 0 0 0 0 0 0 0 0 0 0 0 0 0 0 0 0 0.25 0"/>
<feBlend mode="normal" in2="effect2_dropShadow_2029_14129" result="effect3_dropShadow_2029_14129"/>
<feBlend mode="normal" in="SourceGraphic" in2="effect3_dropShadow_2029_14129" result="shape"/>
</filter>
<filter id="filter5_ddd_2029_14129" x="91.4419" y="372.625" width="54.0068" height="59.956" filterUnits="userSpaceOnUse" color-interpolation-filters="sRGB">
<feFlood flood-opacity="0" result="BackgroundImageFix"/>
<feColorMatrix in="SourceAlpha" type="matrix" values="0 0 0 0 0 0 0 0 0 0 0 0 0 0 0 0 0 0 127 0" result="hardAlpha"/>
<feOffset dy="3.40181"/>
<feGaussianBlur stdDeviation="1.70091"/>
<feComposite in2="hardAlpha" operator="out"/>
<feColorMatrix type="matrix" values="0 0 0 0 0 0 0 0 0 0 0 0 0 0 0 0 0 0 0.25 0"/>
<feBlend mode="normal" in2="BackgroundImageFix" result="effect1_dropShadow_2029_14129"/>
<feColorMatrix in="SourceAlpha" type="matrix" values="0 0 0 0 0 0 0 0 0 0 0 0 0 0 0 0 0 0 127 0" result="hardAlpha"/>
<feOffset dy="3.40181"/>
<feGaussianBlur stdDeviation="1.70091"/>
<feComposite in2="hardAlpha" operator="out"/>
<feColorMatrix type="matrix" values="0 0 0 0 0 0 0 0 0 0 0 0 0 0 0 0 0 0 0.25 0"/>
<feBlend mode="normal" in2="effect1_dropShadow_2029_14129" result="effect2_dropShadow_2029_14129"/>
<feColorMatrix in="SourceAlpha" type="matrix" values="0 0 0 0 0 0 0 0 0 0 0 0 0 0 0 0 0 0 127 0" result="hardAlpha"/>
<feOffset dy="3.40181"/>
<feGaussianBlur stdDeviation="1.70091"/>
<feComposite in2="hardAlpha" operator="out"/>
<feColorMatrix type="matrix" values="0 0 0 0 0 0 0 0 0 0 0 0 0 0 0 0 0 0 0.25 0"/>
<feBlend mode="normal" in2="effect2_dropShadow_2029_14129" result="effect3_dropShadow_2029_14129"/>
<feBlend mode="normal" in="SourceGraphic" in2="effect3_dropShadow_2029_14129" result="shape"/>
</filter>
<filter id="filter6_ddd_2029_14129" x="90.5982" y="821.66" width="54.0068" height="59.956" filterUnits="userSpaceOnUse" color-interpolation-filters="sRGB">
<feFlood flood-opacity="0" result="BackgroundImageFix"/>
<feColorMatrix in="SourceAlpha" type="matrix" values="0 0 0 0 0 0 0 0 0 0 0 0 0 0 0 0 0 0 127 0" result="hardAlpha"/>
<feOffset dy="3.40181"/>
<feGaussianBlur stdDeviation="1.70091"/>
<feComposite in2="hardAlpha" operator="out"/>
<feColorMatrix type="matrix" values="0 0 0 0 0 0 0 0 0 0 0 0 0 0 0 0 0 0 0.25 0"/>
<feBlend mode="normal" in2="BackgroundImageFix" result="effect1_dropShadow_2029_14129"/>
<feColorMatrix in="SourceAlpha" type="matrix" values="0 0 0 0 0 0 0 0 0 0 0 0 0 0 0 0 0 0 127 0" result="hardAlpha"/>
<feOffset dy="3.40181"/>
<feGaussianBlur stdDeviation="1.70091"/>
<feComposite in2="hardAlpha" operator="out"/>
<feColorMatrix type="matrix" values="0 0 0 0 0 0 0 0 0 0 0 0 0 0 0 0 0 0 0.25 0"/>
<feBlend mode="normal" in2="effect1_dropShadow_2029_14129" result="effect2_dropShadow_2029_14129"/>
<feColorMatrix in="SourceAlpha" type="matrix" values="0 0 0 0 0 0 0 0 0 0 0 0 0 0 0 0 0 0 127 0" result="hardAlpha"/>
<feOffset dy="3.40181"/>
<feGaussianBlur stdDeviation="1.70091"/>
<feComposite in2="hardAlpha" operator="out"/>
<feColorMatrix type="matrix" values="0 0 0 0 0 0 0 0 0 0 0 0 0 0 0 0 0 0 0.25 0"/>
<feBlend mode="normal" in2="effect2_dropShadow_2029_14129" result="effect3_dropShadow_2029_14129"/>
<feBlend mode="normal" in="SourceGraphic" in2="effect3_dropShadow_2029_14129" result="shape"/>
</filter>
<filter id="filter7_ddd_2029_14129" x="90.5982" y="821.66" width="54.0068" height="59.956" filterUnits="userSpaceOnUse" color-interpolation-filters="sRGB">
<feFlood flood-opacity="0" result="BackgroundImageFix"/>
<feColorMatrix in="SourceAlpha" type="matrix" values="0 0 0 0 0 0 0 0 0 0 0 0 0 0 0 0 0 0 127 0" result="hardAlpha"/>
<feOffset dy="3.40181"/>
<feGaussianBlur stdDeviation="1.70091"/>
<feComposite in2="hardAlpha" operator="out"/>
<feColorMatrix type="matrix" values="0 0 0 0 0 0 0 0 0 0 0 0 0 0 0 0 0 0 0.25 0"/>
<feBlend mode="normal" in2="BackgroundImageFix" result="effect1_dropShadow_2029_14129"/>
<feColorMatrix in="SourceAlpha" type="matrix" values="0 0 0 0 0 0 0 0 0 0 0 0 0 0 0 0 0 0 127 0" result="hardAlpha"/>
<feOffset dy="3.40181"/>
<feGaussianBlur stdDeviation="1.70091"/>
<feComposite in2="hardAlpha" operator="out"/>
<feColorMatrix type="matrix" values="0 0 0 0 0 0 0 0 0 0 0 0 0 0 0 0 0 0 0.25 0"/>
<feBlend mode="normal" in2="effect1_dropShadow_2029_14129" result="effect2_dropShadow_2029_14129"/>
<feColorMatrix in="SourceAlpha" type="matrix" values="0 0 0 0 0 0 0 0 0 0 0 0 0 0 0 0 0 0 127 0" result="hardAlpha"/>
<feOffset dy="3.40181"/>
<feGaussianBlur stdDeviation="1.70091"/>
<feComposite in2="hardAlpha" operator="out"/>
<feColorMatrix type="matrix" values="0 0 0 0 0 0 0 0 0 0 0 0 0 0 0 0 0 0 0.25 0"/>
<feBlend mode="normal" in2="effect2_dropShadow_2029_14129" result="effect3_dropShadow_2029_14129"/>
<feBlend mode="normal" in="SourceGraphic" in2="effect3_dropShadow_2029_14129" result="shape"/>
</filter>
<filter id="filter8_ddd_2029_14129" x="93.1451" y="521.875" width="53.5771" height="60.3818" filterUnits="userSpaceOnUse" color-interpolation-filters="sRGB">
<feFlood flood-opacity="0" result="BackgroundImageFix"/>
<feColorMatrix in="SourceAlpha" type="matrix" values="0 0 0 0 0 0 0 0 0 0 0 0 0 0 0 0 0 0 127 0" result="hardAlpha"/>
<feOffset dy="3.40181"/>
<feGaussianBlur stdDeviation="1.70091"/>
<feComposite in2="hardAlpha" operator="out"/>
<feColorMatrix type="matrix" values="0 0 0 0 0 0 0 0 0 0 0 0 0 0 0 0 0 0 0.25 0"/>
<feBlend mode="normal" in2="BackgroundImageFix" result="effect1_dropShadow_2029_14129"/>
<feColorMatrix in="SourceAlpha" type="matrix" values="0 0 0 0 0 0 0 0 0 0 0 0 0 0 0 0 0 0 127 0" result="hardAlpha"/>
<feOffset dy="3.40181"/>
<feGaussianBlur stdDeviation="1.70091"/>
<feComposite in2="hardAlpha" operator="out"/>
<feColorMatrix type="matrix" values="0 0 0 0 0 0 0 0 0 0 0 0 0 0 0 0 0 0 0.25 0"/>
<feBlend mode="normal" in2="effect1_dropShadow_2029_14129" result="effect2_dropShadow_2029_14129"/>
<feColorMatrix in="SourceAlpha" type="matrix" values="0 0 0 0 0 0 0 0 0 0 0 0 0 0 0 0 0 0 127 0" result="hardAlpha"/>
<feOffset dy="3.40181"/>
<feGaussianBlur stdDeviation="1.70091"/>
<feComposite in2="hardAlpha" operator="out"/>
<feColorMatrix type="matrix" values="0 0 0 0 0 0 0 0 0 0 0 0 0 0 0 0 0 0 0.25 0"/>
<feBlend mode="normal" in2="effect2_dropShadow_2029_14129" result="effect3_dropShadow_2029_14129"/>
<feBlend mode="normal" in="SourceGraphic" in2="effect3_dropShadow_2029_14129" result="shape"/>
</filter>
<filter id="filter9_ddd_2029_14129" x="93.1451" y="970.918" width="53.5771" height="60.3818" filterUnits="userSpaceOnUse" color-interpolation-filters="sRGB">
<feFlood flood-opacity="0" result="BackgroundImageFix"/>
<feColorMatrix in="SourceAlpha" type="matrix" values="0 0 0 0 0 0 0 0 0 0 0 0 0 0 0 0 0 0 127 0" result="hardAlpha"/>
<feOffset dy="3.40181"/>
<feGaussianBlur stdDeviation="1.70091"/>
<feComposite in2="hardAlpha" operator="out"/>
<feColorMatrix type="matrix" values="0 0 0 0 0 0 0 0 0 0 0 0 0 0 0 0 0 0 0.25 0"/>
<feBlend mode="normal" in2="BackgroundImageFix" result="effect1_dropShadow_2029_14129"/>
<feColorMatrix in="SourceAlpha" type="matrix" values="0 0 0 0 0 0 0 0 0 0 0 0 0 0 0 0 0 0 127 0" result="hardAlpha"/>
<feOffset dy="3.40181"/>
<feGaussianBlur stdDeviation="1.70091"/>
<feComposite in2="hardAlpha" operator="out"/>
<feColorMatrix type="matrix" values="0 0 0 0 0 0 0 0 0 0 0 0 0 0 0 0 0 0 0.25 0"/>
<feBlend mode="normal" in2="effect1_dropShadow_2029_14129" result="effect2_dropShadow_2029_14129"/>
<feColorMatrix in="SourceAlpha" type="matrix" values="0 0 0 0 0 0 0 0 0 0 0 0 0 0 0 0 0 0 127 0" result="hardAlpha"/>
<feOffset dy="3.40181"/>
<feGaussianBlur stdDeviation="1.70091"/>
<feComposite in2="hardAlpha" operator="out"/>
<feColorMatrix type="matrix" values="0 0 0 0 0 0 0 0 0 0 0 0 0 0 0 0 0 0 0.25 0"/>
<feBlend mode="normal" in2="effect2_dropShadow_2029_14129" result="effect3_dropShadow_2029_14129"/>
<feBlend mode="normal" in="SourceGraphic" in2="effect3_dropShadow_2029_14129" result="shape"/>
</filter>
<filter id="filter10_ddd_2029_14129" x="93.1451" y="222.941" width="53.5771" height="60.3818" filterUnits="userSpaceOnUse" color-interpolation-filters="sRGB">
<feFlood flood-opacity="0" result="BackgroundImageFix"/>
<feColorMatrix in="SourceAlpha" type="matrix" values="0 0 0 0 0 0 0 0 0 0 0 0 0 0 0 0 0 0 127 0" result="hardAlpha"/>
<feOffset dy="3.40181"/>
<feGaussianBlur stdDeviation="1.70091"/>
<feComposite in2="hardAlpha" operator="out"/>
<feColorMatrix type="matrix" values="0 0 0 0 0 0 0 0 0 0 0 0 0 0 0 0 0 0 0.25 0"/>
<feBlend mode="normal" in2="BackgroundImageFix" result="effect1_dropShadow_2029_14129"/>
<feColorMatrix in="SourceAlpha" type="matrix" values="0 0 0 0 0 0 0 0 0 0 0 0 0 0 0 0 0 0 127 0" result="hardAlpha"/>
<feOffset dy="3.40181"/>
<feGaussianBlur stdDeviation="1.70091"/>
<feComposite in2="hardAlpha" operator="out"/>
<feColorMatrix type="matrix" values="0 0 0 0 0 0 0 0 0 0 0 0 0 0 0 0 0 0 0.25 0"/>
<feBlend mode="normal" in2="effect1_dropShadow_2029_14129" result="effect2_dropShadow_2029_14129"/>
<feColorMatrix in="SourceAlpha" type="matrix" values="0 0 0 0 0 0 0 0 0 0 0 0 0 0 0 0 0 0 127 0" result="hardAlpha"/>
<feOffset dy="3.40181"/>
<feGaussianBlur stdDeviation="1.70091"/>
<feComposite in2="hardAlpha" operator="out"/>
<feColorMatrix type="matrix" values="0 0 0 0 0 0 0 0 0 0 0 0 0 0 0 0 0 0 0.25 0"/>
<feBlend mode="normal" in2="effect2_dropShadow_2029_14129" result="effect3_dropShadow_2029_14129"/>
<feBlend mode="normal" in="SourceGraphic" in2="effect3_dropShadow_2029_14129" result="shape"/>
</filter>
<filter id="filter11_ddd_2029_14129" x="96.7154" y="668.648" width="24.7255" height="26.3036" filterUnits="userSpaceOnUse" color-interpolation-filters="sRGB">
<feFlood flood-opacity="0" result="BackgroundImageFix"/>
<feColorMatrix in="SourceAlpha" type="matrix" values="0 0 0 0 0 0 0 0 0 0 0 0 0 0 0 0 0 0 127 0" result="hardAlpha"/>
<feOffset dy="3.40181"/>
<feGaussianBlur stdDeviation="1.70091"/>
<feComposite in2="hardAlpha" operator="out"/>
<feColorMatrix type="matrix" values="0 0 0 0 0 0 0 0 0 0 0 0 0 0 0 0 0 0 0.25 0"/>
<feBlend mode="normal" in2="BackgroundImageFix" result="effect1_dropShadow_2029_14129"/>
<feColorMatrix in="SourceAlpha" type="matrix" values="0 0 0 0 0 0 0 0 0 0 0 0 0 0 0 0 0 0 127 0" result="hardAlpha"/>
<feOffset dy="3.40181"/>
<feGaussianBlur stdDeviation="1.70091"/>
<feComposite in2="hardAlpha" operator="out"/>
<feColorMatrix type="matrix" values="0 0 0 0 0 0 0 0 0 0 0 0 0 0 0 0 0 0 0.25 0"/>
<feBlend mode="normal" in2="effect1_dropShadow_2029_14129" result="effect2_dropShadow_2029_14129"/>
<feColorMatrix in="SourceAlpha" type="matrix" values="0 0 0 0 0 0 0 0 0 0 0 0 0 0 0 0 0 0 127 0" result="hardAlpha"/>
<feOffset dy="3.40181"/>
<feGaussianBlur stdDeviation="1.70091"/>
<feComposite in2="hardAlpha" operator="out"/>
<feColorMatrix type="matrix" values="0 0 0 0 0 0 0 0 0 0 0 0 0 0 0 0 0 0 0.25 0"/>
<feBlend mode="normal" in2="effect2_dropShadow_2029_14129" result="effect3_dropShadow_2029_14129"/>
<feBlend mode="normal" in="SourceGraphic" in2="effect3_dropShadow_2029_14129" result="shape"/>
</filter>
<filter id="filter12_ddd_2029_14129" x="89.3872" y="676.844" width="55.7099" height="44.5771" filterUnits="userSpaceOnUse" color-interpolation-filters="sRGB">
<feFlood flood-opacity="0" result="BackgroundImageFix"/>
<feColorMatrix in="SourceAlpha" type="matrix" values="0 0 0 0 0 0 0 0 0 0 0 0 0 0 0 0 0 0 127 0" result="hardAlpha"/>
<feOffset dy="3.40181"/>
<feGaussianBlur stdDeviation="1.70091"/>
<feComposite in2="hardAlpha" operator="out"/>
<feColorMatrix type="matrix" values="0 0 0 0 0 0 0 0 0 0 0 0 0 0 0 0 0 0 0.25 0"/>
<feBlend mode="normal" in2="BackgroundImageFix" result="effect1_dropShadow_2029_14129"/>
<feColorMatrix in="SourceAlpha" type="matrix" values="0 0 0 0 0 0 0 0 0 0 0 0 0 0 0 0 0 0 127 0" result="hardAlpha"/>
<feOffset dy="3.40181"/>
<feGaussianBlur stdDeviation="1.70091"/>
<feComposite in2="hardAlpha" operator="out"/>
<feColorMatrix type="matrix" values="0 0 0 0 0 0 0 0 0 0 0 0 0 0 0 0 0 0 0.25 0"/>
<feBlend mode="normal" in2="effect1_dropShadow_2029_14129" result="effect2_dropShadow_2029_14129"/>
<feColorMatrix in="SourceAlpha" type="matrix" values="0 0 0 0 0 0 0 0 0 0 0 0 0 0 0 0 0 0 127 0" result="hardAlpha"/>
<feOffset dy="3.40181"/>
<feGaussianBlur stdDeviation="1.70091"/>
<feComposite in2="hardAlpha" operator="out"/>
<feColorMatrix type="matrix" values="0 0 0 0 0 0 0 0 0 0 0 0 0 0 0 0 0 0 0.25 0"/>
<feBlend mode="normal" in2="effect2_dropShadow_2029_14129" result="effect3_dropShadow_2029_14129"/>
<feBlend mode="normal" in="SourceGraphic" in2="effect3_dropShadow_2029_14129" result="shape"/>
</filter>
<filter id="filter13_ddd_2029_14129" x="129.458" y="705.699" width="23.2568" height="18.1083" filterUnits="userSpaceOnUse" color-interpolation-filters="sRGB">
<feFlood flood-opacity="0" result="BackgroundImageFix"/>
<feColorMatrix in="SourceAlpha" type="matrix" values="0 0 0 0 0 0 0 0 0 0 0 0 0 0 0 0 0 0 127 0" result="hardAlpha"/>
<feOffset dy="3.40181"/>
<feGaussianBlur stdDeviation="1.70091"/>
<feComposite in2="hardAlpha" operator="out"/>
<feColorMatrix type="matrix" values="0 0 0 0 0 0 0 0 0 0 0 0 0 0 0 0 0 0 0.25 0"/>
<feBlend mode="normal" in2="BackgroundImageFix" result="effect1_dropShadow_2029_14129"/>
<feColorMatrix in="SourceAlpha" type="matrix" values="0 0 0 0 0 0 0 0 0 0 0 0 0 0 0 0 0 0 127 0" result="hardAlpha"/>
<feOffset dy="3.40181"/>
<feGaussianBlur stdDeviation="1.70091"/>
<feComposite in2="hardAlpha" operator="out"/>
<feColorMatrix type="matrix" values="0 0 0 0 0 0 0 0 0 0 0 0 0 0 0 0 0 0 0.25 0"/>
<feBlend mode="normal" in2="effect1_dropShadow_2029_14129" result="effect2_dropShadow_2029_14129"/>
<feColorMatrix in="SourceAlpha" type="matrix" values="0 0 0 0 0 0 0 0 0 0 0 0 0 0 0 0 0 0 127 0" result="hardAlpha"/>
<feOffset dy="3.40181"/>
<feGaussianBlur stdDeviation="1.70091"/>
<feComposite in2="hardAlpha" operator="out"/>
<feColorMatrix type="matrix" values="0 0 0 0 0 0 0 0 0 0 0 0 0 0 0 0 0 0 0.25 0"/>
<feBlend mode="normal" in2="effect2_dropShadow_2029_14129" result="effect3_dropShadow_2029_14129"/>
<feBlend mode="normal" in="SourceGraphic" in2="effect3_dropShadow_2029_14129" result="shape"/>
</filter>
<linearGradient id="paint0_linear_2029_14129" x1="296.408" y1="314.744" x2="296.403" y2="315.744" gradientUnits="userSpaceOnUse">
<stop/>
<stop offset="1" stop-opacity="0"/>
</linearGradient>
<linearGradient id="paint1_linear_2029_14129" x1="296.408" y1="469.525" x2="296.403" y2="470.525" gradientUnits="userSpaceOnUse">
<stop/>
<stop offset="1" stop-opacity="0"/>
</linearGradient>
<linearGradient id="paint2_linear_2029_14129" x1="288.752" y1="628.56" x2="288.746" y2="629.56" gradientUnits="userSpaceOnUse">
<stop/>
<stop offset="1" stop-opacity="0"/>
</linearGradient>
<linearGradient id="paint3_linear_2029_14129" x1="288.752" y1="770.588" x2="288.746" y2="771.588" gradientUnits="userSpaceOnUse">
<stop/>
<stop offset="1" stop-opacity="0"/>
</linearGradient>
<linearGradient id="paint4_linear_2029_14129" x1="288.752" y1="925.369" x2="288.746" y2="926.369" gradientUnits="userSpaceOnUse">
<stop/>
<stop offset="1" stop-opacity="0"/>
</linearGradient>
<linearGradient id="paint5_linear_2029_14129" x1="288.752" y1="1071.65" x2="288.746" y2="1072.65" gradientUnits="userSpaceOnUse">
<stop/>
<stop offset="1" stop-opacity="0"/>
</linearGradient>
<linearGradient id="paint6_linear_2029_14129" x1="288.752" y1="1216.22" x2="288.746" y2="1217.22" gradientUnits="userSpaceOnUse">
<stop/>
<stop offset="1" stop-opacity="0"/>
</linearGradient>
</defs>
</svg>
