<svg width="354" height="78" viewBox="0 0 354 78" fill="none" xmlns="http://www.w3.org/2000/svg">
<rect x="0.140625" y="0.1875" width="86.7462" height="76.5408" rx="17.0091" fill="#006EB8"/>
<g filter="url(#filter0_ddd_2121_14212)">
<path d="M66.0439 17.625H18.8438L24.3717 64.8251L43.5069 70.7783L62.6421 64.8251L66.0439 17.625Z" fill="#006EB8"/>
</g>
<path d="M28.2031 32.5045V26.9766H57.1185V32.5045L44.3617 38.8829L57.1185 39.7334L55.8429 56.7424L44.3617 60.5695L30.3293 56.7424V48.2379H37.5581V51.6397L44.3617 53.7658L49.8897 51.6397V44.4109H30.3293V38.8829L44.3617 32.5045H28.2031Z" fill="white"/>
<path d="M28.2031 14.648V5.29297H36.7077V7.84433H31.9829V11.5147H36.7077V14.648H28.2031Z" fill="#0A0707"/>
<path d="M48.6139 5.29297H40.1094V8.56721L42.767 11.3737H40.1094V14.648H48.6139V11.3737L45.9562 8.56721H48.6139V5.29297Z" fill="#0A0707"/>
<path d="M60.5202 5.29297H52.0156V8.56721L54.6733 11.3737H52.0156V14.648H60.5202V11.3737L57.8625 8.56721H60.5202V5.29297Z" fill="#0A0707"/>
<path d="M101.683 49.9452C101.683 47.6093 102.204 45.5229 103.248 43.6859C104.314 41.8262 105.754 40.3861 107.568 39.3656C109.405 38.3224 111.457 37.8007 113.725 37.8007C116.379 37.8007 118.703 38.4811 120.699 39.8418C122.695 41.2026 124.089 43.0849 124.883 45.4888H119.406C118.862 44.3549 118.091 43.5045 117.093 42.9375C116.118 42.3705 114.984 42.087 113.691 42.087C112.308 42.087 111.072 42.4159 109.983 43.0736C108.917 43.7086 108.078 44.6157 107.466 45.795C106.876 46.9743 106.581 48.3577 106.581 49.9452C106.581 51.5101 106.876 52.8935 107.466 54.0954C108.078 55.2747 108.917 56.1932 109.983 56.8509C111.072 57.4859 112.308 57.8034 113.691 57.8034C114.984 57.8034 116.118 57.5199 117.093 56.953C118.091 56.3633 118.862 55.5015 119.406 54.3676H124.883C124.089 56.7942 122.695 58.6879 120.699 60.0486C118.726 61.3866 116.401 62.0557 113.725 62.0557C111.457 62.0557 109.405 61.5454 107.568 60.5249C105.754 59.4816 104.314 58.0415 103.248 56.2046C102.204 54.3676 101.683 52.2811 101.683 49.9452ZM137.149 62.0897C135.494 62.0897 133.997 61.8062 132.659 61.2392C131.344 60.6723 130.3 59.8558 129.529 58.7899C128.758 57.724 128.361 56.4654 128.339 55.0139H133.441C133.509 55.9891 133.85 56.7602 134.462 57.3272C135.097 57.8941 135.959 58.1776 137.047 58.1776C138.159 58.1776 139.032 57.9168 139.667 57.3952C140.302 56.8509 140.619 56.1479 140.619 55.2861C140.619 54.583 140.404 54.0047 139.973 53.5511C139.542 53.0976 138.998 52.746 138.34 52.4966C137.705 52.2244 136.821 51.9296 135.687 51.6121C134.144 51.1585 132.886 50.7163 131.911 50.2854C130.958 49.8318 130.13 49.1628 129.427 48.2783C128.747 47.3712 128.407 46.1692 128.407 44.6724C128.407 43.2663 128.758 42.0417 129.461 40.9984C130.164 39.9552 131.151 39.1615 132.421 38.6172C133.691 38.0502 135.142 37.7667 136.775 37.7667C139.224 37.7667 141.209 38.3677 142.728 39.5697C144.271 40.749 145.121 42.4045 145.28 44.5363H140.041C139.996 43.7199 139.644 43.0509 138.986 42.5293C138.351 41.985 137.501 41.7128 136.435 41.7128C135.505 41.7128 134.757 41.951 134.19 42.4272C133.646 42.9035 133.373 43.5952 133.373 44.5023C133.373 45.1373 133.577 45.6703 133.986 46.1012C134.417 46.5094 134.938 46.8496 135.551 47.1217C136.186 47.3712 137.07 47.666 138.204 48.0062C139.746 48.4598 141.005 48.9133 141.98 49.3669C142.955 49.8205 143.794 50.5008 144.497 51.408C145.2 52.3151 145.552 53.5058 145.552 54.9799C145.552 56.2499 145.223 57.4292 144.565 58.5178C143.908 59.6064 142.944 60.4795 141.674 61.1372C140.404 61.7722 138.896 62.0897 137.149 62.0897ZM157.879 62.0897C156.224 62.0897 154.727 61.8062 153.389 61.2392C152.073 60.6723 151.03 59.8558 150.259 58.7899C149.488 57.724 149.091 56.4654 149.068 55.0139H154.171C154.239 55.9891 154.579 56.7602 155.192 57.3272C155.827 57.8941 156.689 58.1776 157.777 58.1776C158.888 58.1776 159.762 57.9168 160.397 57.3952C161.032 56.8509 161.349 56.1479 161.349 55.2861C161.349 54.583 161.134 54.0047 160.703 53.5511C160.272 53.0976 159.727 52.746 159.07 52.4966C158.435 52.2244 157.55 51.9296 156.416 51.6121C154.874 51.1585 153.616 50.7163 152.64 50.2854C151.688 49.8318 150.86 49.1628 150.157 48.2783C149.477 47.3712 149.137 46.1692 149.137 44.6724C149.137 43.2663 149.488 42.0417 150.191 40.9984C150.894 39.9552 151.881 39.1615 153.151 38.6172C154.421 38.0502 155.872 37.7667 157.505 37.7667C159.954 37.7667 161.939 38.3677 163.458 39.5697C165 40.749 165.851 42.4045 166.01 44.5363H160.771C160.725 43.7199 160.374 43.0509 159.716 42.5293C159.081 41.985 158.231 41.7128 157.165 41.7128C156.235 41.7128 155.487 41.951 154.92 42.4272C154.375 42.9035 154.103 43.5952 154.103 44.5023C154.103 45.1373 154.307 45.6703 154.715 46.1012C155.146 46.5094 155.668 46.8496 156.28 47.1217C156.915 47.3712 157.8 47.666 158.934 48.0062C160.476 48.4598 161.735 48.9133 162.71 49.3669C163.685 49.8205 164.524 50.5008 165.227 51.408C165.93 52.3151 166.282 53.5058 166.282 54.9799C166.282 56.2499 165.953 57.4292 165.295 58.5178C164.637 59.6064 163.674 60.4795 162.404 61.1372C161.134 61.7722 159.625 62.0897 157.879 62.0897ZM178.04 43.5838C178.154 41.316 178.947 39.5697 180.422 38.345C181.918 37.0977 183.88 36.474 186.307 36.474C187.962 36.474 189.38 36.7689 190.559 37.3585C191.738 37.9255 192.623 38.7079 193.212 39.7058C193.825 40.6809 194.131 41.7922 194.131 43.0395C194.131 44.4683 193.757 45.6816 193.008 46.6795C192.282 47.6547 191.409 48.3123 190.389 48.6525V48.7886C191.704 49.1968 192.725 49.9225 193.45 50.9658C194.199 52.009 194.573 53.347 194.573 54.9799C194.573 56.3406 194.256 57.5539 193.621 58.6198C193.008 59.6857 192.09 60.5249 190.865 61.1372C189.663 61.7268 188.212 62.0217 186.511 62.0217C183.948 62.0217 181.862 61.3753 180.251 60.0826C178.641 58.7899 177.791 56.8849 177.7 54.3676H182.327C182.372 55.4788 182.746 56.3746 183.449 57.055C184.175 57.7127 185.161 58.0415 186.409 58.0415C187.565 58.0415 188.45 57.724 189.062 57.089C189.697 56.4313 190.015 55.5922 190.015 54.5717C190.015 53.211 189.584 52.2358 188.722 51.6461C187.86 51.0565 186.522 50.7617 184.708 50.7617H183.721V46.8496H184.708C187.928 46.8496 189.538 45.7723 189.538 43.6178C189.538 42.6427 189.244 41.8829 188.654 41.3386C188.087 40.7943 187.259 40.5222 186.171 40.5222C185.105 40.5222 184.277 40.817 183.687 41.4067C183.12 41.9736 182.791 42.6994 182.701 43.5838H178.04Z" fill="white"/>
<defs>
<filter id="filter0_ddd_2121_14212" x="15.4419" y="17.625" width="54.0068" height="59.956" filterUnits="userSpaceOnUse" color-interpolation-filters="sRGB">
<feFlood flood-opacity="0" result="BackgroundImageFix"/>
<feColorMatrix in="SourceAlpha" type="matrix" values="0 0 0 0 0 0 0 0 0 0 0 0 0 0 0 0 0 0 127 0" result="hardAlpha"/>
<feOffset dy="3.40181"/>
<feGaussianBlur stdDeviation="1.70091"/>
<feComposite in2="hardAlpha" operator="out"/>
<feColorMatrix type="matrix" values="0 0 0 0 0 0 0 0 0 0 0 0 0 0 0 0 0 0 0.25 0"/>
<feBlend mode="normal" in2="BackgroundImageFix" result="effect1_dropShadow_2121_14212"/>
<feColorMatrix in="SourceAlpha" type="matrix" values="0 0 0 0 0 0 0 0 0 0 0 0 0 0 0 0 0 0 127 0" result="hardAlpha"/>
<feOffset dy="3.40181"/>
<feGaussianBlur stdDeviation="1.70091"/>
<feComposite in2="hardAlpha" operator="out"/>
<feColorMatrix type="matrix" values="0 0 0 0 0 0 0 0 0 0 0 0 0 0 0 0 0 0 0.25 0"/>
<feBlend mode="normal" in2="effect1_dropShadow_2121_14212" result="effect2_dropShadow_2121_14212"/>
<feColorMatrix in="SourceAlpha" type="matrix" values="0 0 0 0 0 0 0 0 0 0 0 0 0 0 0 0 0 0 127 0" result="hardAlpha"/>
<feOffset dy="3.40181"/>
<feGaussianBlur stdDeviation="1.70091"/>
<feComposite in2="hardAlpha" operator="out"/>
<feColorMatrix type="matrix" values="0 0 0 0 0 0 0 0 0 0 0 0 0 0 0 0 0 0 0.25 0"/>
<feBlend mode="normal" in2="effect2_dropShadow_2121_14212" result="effect3_dropShadow_2121_14212"/>
<feBlend mode="normal" in="SourceGraphic" in2="effect3_dropShadow_2121_14212" result="shape"/>
</filter>
</defs>
</svg>
