<svg width="49" height="44" viewBox="0 0 49 44" fill="none" xmlns="http://www.w3.org/2000/svg">
<path d="M24.7796 38.1505L15.6374 42.6095C13.9855 43.4151 12.1305 43.2868 10.2926 43.2868C10.1985 43.2868 10.0863 43.2529 9.96419 43.1959C8.96976 42.7312 8.62102 41.5309 8.62102 40.4333L10.2926 28.4486L2.2904 20.2525C2.05384 20.0102 1.84167 19.7452 1.65694 19.4614L1.21404 18.7809C0.957094 18.3862 0.820312 17.9253 0.820312 17.4543V17.3685C0.820312 16.7886 1.0471 16.2317 1.45222 15.8167C1.76645 15.4949 2.17099 15.276 2.61233 15.1891L16.4217 12.4691L21.381 2.81814C21.7764 2.04861 22.4336 1.44554 23.2342 1.11754L23.3245 1.08052C24.2481 0.702138 25.2909 0.746201 26.1792 1.20114C26.7221 1.47916 27.1807 1.89734 27.5076 2.41233L34.2519 13.0398L46.7096 15.1664C47.3043 15.2679 47.8515 15.555 48.273 15.9867L48.3963 16.1129C48.6217 16.3438 48.7909 16.6236 48.8908 16.9304C49.1389 17.6928 48.9314 18.5299 48.356 19.0882L38.7095 28.4486L40.795 40.7311C40.8871 41.2735 40.7716 41.8307 40.4715 42.2918C40.0675 42.9124 39.3772 43.2868 38.6367 43.2868H37.7914C37.294 43.2868 36.8017 43.1878 36.3429 42.9956L24.7796 38.1505Z" fill="#D5CE27"/>
</svg>
