<svg width="224" height="79" viewBox="0 0 354 79" fill="none" xmlns="http://www.w3.org/2000/svg">
<rect x="0.140625" y="0.507812" width="86.7462" height="76.5408" rx="17.0091" fill="#E75F24"/>
<path d="M55.8438 14.5391V5.60938H58.8203V11.5625H62.6474V14.5391H55.8438Z" fill="#0A0707"/>
<path d="M44.3594 14.5391V5.60938H47.336L49.0369 8.58596L51.163 5.60938H54.5648V14.5391H51.163V10.7121L49.0369 12.8382L47.336 10.7121V14.5391H44.3594Z" fill="#0A0707"/>
<path d="M34.5781 8.58596V5.60938H43.0827V8.58596H40.5313V14.5391H37.1295V8.58596H34.5781Z" fill="#0A0707"/>
<path d="M25.2266 14.5397V6.03516H27.7779V8.58652H30.7545V6.03516H33.3059V14.5397H30.3293V11.5631H27.7779V14.5397H25.2266Z" fill="#0A0707"/>
<g filter="url(#filter0_ddd_2076_14292)">
<path d="M63.4948 64.7163L67.3218 17.9414H20.5469L24.7991 64.7163L44.7848 71.52L63.4948 64.7163Z" fill="#E75F24"/>
</g>
<path d="M57.9712 27.7227H29.9062L31.6072 45.5822H50.3171V52.3858L43.0883 54.9372L37.9856 52.3858V48.5588H31.6072V57.9137L44.7892 61.3156L56.2703 57.9137V38.7785H35.8594V33.2506H57.9712V27.7227Z" fill="white"/>
<path d="M123.044 38.2553V62H118.281V51.8966H108.11V62H103.347V38.2553H108.11V48.0185H118.281V38.2553H123.044ZM143.89 38.2553V42.0994H137.563V62H132.8V42.0994H126.473V38.2553H143.89ZM173.253 38.2553V62H168.49V46.5558L162.129 62H158.523L152.127 46.5558V62H147.365V38.2553H152.774L160.326 55.9108L167.878 38.2553H173.253ZM182.724 58.224H190.548V62H177.961V38.2553H182.724V58.224ZM217.805 41.317H206.784V47.1341C207.26 46.5444 207.94 46.0682 208.825 45.7053C209.709 45.3198 210.65 45.127 211.648 45.127C213.463 45.127 214.948 45.5239 216.105 46.3176C217.261 47.1114 218.1 48.1319 218.622 49.3793C219.144 50.6039 219.404 51.9193 219.404 53.3254C219.404 55.9334 218.656 58.0312 217.159 59.6187C215.685 61.2062 213.576 62 210.832 62C208.246 62 206.183 61.3537 204.64 60.061C203.098 58.7683 202.225 57.0787 202.021 54.9923H206.648C206.852 55.8994 207.305 56.6251 208.008 57.1694C208.734 57.7137 209.652 57.9859 210.764 57.9859C212.102 57.9859 213.111 57.5663 213.791 56.7272C214.472 55.8881 214.812 54.7768 214.812 53.3934C214.812 51.9873 214.46 50.9214 213.757 50.1957C213.077 49.4473 212.068 49.0731 210.73 49.0731C209.777 49.0731 208.983 49.3112 208.348 49.7875C207.713 50.2637 207.26 50.8988 206.988 51.6925H202.429V37.1327H217.805V41.317Z" fill="white"/>
<defs>
<filter id="filter0_ddd_2076_14292" x="17.1451" y="17.9414" width="53.5771" height="60.3818" filterUnits="userSpaceOnUse" color-interpolation-filters="sRGB">
<feFlood flood-opacity="0" result="BackgroundImageFix"/>
<feColorMatrix in="SourceAlpha" type="matrix" values="0 0 0 0 0 0 0 0 0 0 0 0 0 0 0 0 0 0 127 0" result="hardAlpha"/>
<feOffset dy="3.40181"/>
<feGaussianBlur stdDeviation="1.70091"/>
<feComposite in2="hardAlpha" operator="out"/>
<feColorMatrix type="matrix" values="0 0 0 0 0 0 0 0 0 0 0 0 0 0 0 0 0 0 0.25 0"/>
<feBlend mode="normal" in2="BackgroundImageFix" result="effect1_dropShadow_2076_14292"/>
<feColorMatrix in="SourceAlpha" type="matrix" values="0 0 0 0 0 0 0 0 0 0 0 0 0 0 0 0 0 0 127 0" result="hardAlpha"/>
<feOffset dy="3.40181"/>
<feGaussianBlur stdDeviation="1.70091"/>
<feComposite in2="hardAlpha" operator="out"/>
<feColorMatrix type="matrix" values="0 0 0 0 0 0 0 0 0 0 0 0 0 0 0 0 0 0 0.25 0"/>
<feBlend mode="normal" in2="effect1_dropShadow_2076_14292" result="effect2_dropShadow_2076_14292"/>
<feColorMatrix in="SourceAlpha" type="matrix" values="0 0 0 0 0 0 0 0 0 0 0 0 0 0 0 0 0 0 127 0" result="hardAlpha"/>
<feOffset dy="3.40181"/>
<feGaussianBlur stdDeviation="1.70091"/>
<feComposite in2="hardAlpha" operator="out"/>
<feColorMatrix type="matrix" values="0 0 0 0 0 0 0 0 0 0 0 0 0 0 0 0 0 0 0.25 0"/>
<feBlend mode="normal" in2="effect2_dropShadow_2076_14292" result="effect3_dropShadow_2076_14292"/>
<feBlend mode="normal" in="SourceGraphic" in2="effect3_dropShadow_2076_14292" result="shape"/>
</filter>
</defs>
</svg>
