<svg width="354" height="79" viewBox="0 0 354 79" fill="none" xmlns="http://www.w3.org/2000/svg">
<rect x="0.140625" y="0.867188" width="86.7462" height="76.5408" rx="17.0091" fill="#FCAC28"/>
<path d="M52.8639 8.51953H44.3594V11.7938L47.017 14.6003H44.3594V17.8745H52.8639V14.6003L50.2062 11.7938H52.8639V8.51953Z" fill="#0A0707"/>
<g filter="url(#filter0_ddd_2121_14213)">
<path d="M63.4948 64.6499L67.3218 17.875H20.5469L24.7991 64.6499L44.7848 71.4536L63.4948 64.6499Z" fill="#FCAC28"/>
</g>
<path d="M29.9062 56.5455V48.5021H36.5015V52.1689L43.5178 53.9432L49.9727 52.1689L50.6743 45.8998H29.9062L31.8708 26.3828H56.4276L57.9712 37.7382H51.7969L50.6743 32.4153H37.9048L36.5015 40.577H57.9712L56.4276 56.5455L43.5178 59.9757L29.9062 56.5455Z" fill="white"/>
<path d="M39.3172 8.53686L42.719 8.55835L42.6824 14.3529L42.719 17.4504L36.7095 17.4503L36.7283 14.4738L39.2796 14.4899L39.3172 8.53686Z" fill="#010101"/>
<path d="M116.685 34.5327V51.2016C116.685 53.5148 116.016 55.3178 114.678 56.6105C113.34 57.8805 111.548 58.5155 109.303 58.5155C107.035 58.5155 105.198 57.8578 103.792 56.5424C102.409 55.2271 101.717 53.3901 101.717 51.0315H106.479C106.502 52.052 106.74 52.8458 107.194 53.4128C107.67 53.9797 108.35 54.2632 109.235 54.2632C110.097 54.2632 110.754 53.9911 111.208 53.4468C111.661 52.9025 111.888 52.1541 111.888 51.2016V34.5327H116.685ZM121.016 48.7863C121.016 46.8813 121.39 45.1917 122.138 43.7176C122.909 42.2435 123.941 41.1095 125.234 40.3158C126.549 39.522 128.012 39.1251 129.622 39.1251C131.028 39.1251 132.253 39.4086 133.296 39.9756C134.362 40.5426 135.213 41.2569 135.848 42.1187V39.4313H140.644V58.2773H135.848V55.5219C135.235 56.4063 134.385 57.1434 133.296 57.7331C132.23 58.3 130.994 58.5835 129.588 58.5835C128.001 58.5835 126.549 58.1753 125.234 57.3589C123.941 56.5424 122.909 55.3971 122.138 53.923C121.39 52.4262 121.016 50.714 121.016 48.7863ZM135.848 48.8543C135.848 47.6977 135.621 46.7112 135.167 45.8947C134.714 45.0556 134.101 44.4206 133.33 43.9897C132.559 43.5362 131.731 43.3094 130.847 43.3094C129.963 43.3094 129.146 43.5248 128.398 43.9557C127.649 44.3866 127.037 45.0216 126.561 45.8607C126.107 46.6772 125.88 47.6523 125.88 48.7863C125.88 49.9202 126.107 50.9181 126.561 51.7799C127.037 52.619 127.649 53.2653 128.398 53.7189C129.169 54.1725 129.985 54.3993 130.847 54.3993C131.731 54.3993 132.559 54.1838 133.33 53.7529C134.101 53.2994 134.714 52.6644 135.167 51.8479C135.621 51.0088 135.848 50.0109 135.848 48.8543ZM153.154 53.889L157.916 39.4313H162.985L156.011 58.2773H150.228L143.289 39.4313H148.391L153.154 53.889ZM164.435 48.7863C164.435 46.8813 164.81 45.1917 165.558 43.7176C166.329 42.2435 167.361 41.1095 168.654 40.3158C169.969 39.522 171.432 39.1251 173.042 39.1251C174.448 39.1251 175.673 39.4086 176.716 39.9756C177.782 40.5426 178.632 41.2569 179.267 42.1187V39.4313H184.064V58.2773H179.267V55.5219C178.655 56.4063 177.804 57.1434 176.716 57.7331C175.65 58.3 174.414 58.5835 173.008 58.5835C171.42 58.5835 169.969 58.1753 168.654 57.3589C167.361 56.5424 166.329 55.3971 165.558 53.923C164.81 52.4262 164.435 50.714 164.435 48.7863ZM179.267 48.8543C179.267 47.6977 179.04 46.7112 178.587 45.8947C178.133 45.0556 177.521 44.4206 176.75 43.9897C175.979 43.5362 175.151 43.3094 174.267 43.3094C173.382 43.3094 172.566 43.5248 171.817 43.9557C171.069 44.3866 170.457 45.0216 169.98 45.8607C169.527 46.6772 169.3 47.6523 169.3 48.7863C169.3 49.9202 169.527 50.9181 169.98 51.7799C170.457 52.619 171.069 53.2653 171.817 53.7189C172.588 54.1725 173.405 54.3993 174.267 54.3993C175.151 54.3993 175.979 54.1838 176.75 53.7529C177.521 53.2994 178.133 52.6644 178.587 51.8479C179.04 51.0088 179.267 50.0109 179.267 48.8543ZM196.914 58.5155C195.258 58.5155 193.761 58.232 192.423 57.665C191.108 57.098 190.065 56.2816 189.294 55.2157C188.523 54.1498 188.126 52.8911 188.103 51.4397H193.206C193.274 52.4149 193.614 53.186 194.226 53.7529C194.861 54.3199 195.723 54.6034 196.812 54.6034C197.923 54.6034 198.796 54.3426 199.431 53.821C200.066 53.2767 200.383 52.5736 200.383 51.7118C200.383 51.0088 200.168 50.4305 199.737 49.9769C199.306 49.5233 198.762 49.1718 198.104 48.9224C197.469 48.6502 196.585 48.3554 195.451 48.0379C193.909 47.5843 192.65 47.1421 191.675 46.7112C190.722 46.2576 189.895 45.5886 189.192 44.7041C188.511 43.797 188.171 42.595 188.171 41.0982C188.171 39.6921 188.523 38.4675 189.226 37.4242C189.929 36.381 190.915 35.5873 192.185 35.043C193.455 34.476 194.907 34.1925 196.539 34.1925C198.989 34.1925 200.973 34.7935 202.493 35.9955C204.035 37.1748 204.885 38.8303 205.044 40.9621H199.805C199.76 40.1457 199.408 39.4767 198.751 38.955C198.116 38.4108 197.265 38.1386 196.199 38.1386C195.269 38.1386 194.521 38.3767 193.954 38.853C193.41 39.3292 193.138 40.0209 193.138 40.9281C193.138 41.5631 193.342 42.0961 193.75 42.5269C194.181 42.9352 194.702 43.2753 195.315 43.5475C195.95 43.797 196.834 44.0918 197.968 44.432C199.51 44.8855 200.769 45.3391 201.744 45.7927C202.719 46.2463 203.559 46.9266 204.262 47.8338C204.965 48.7409 205.316 49.9316 205.316 51.4057C205.316 52.6757 204.987 53.855 204.33 54.9436C203.672 56.0321 202.708 56.9053 201.438 57.563C200.168 58.198 198.66 58.5155 196.914 58.5155ZM208.22 48.8543C208.22 46.9039 208.617 45.203 209.411 43.7516C210.205 42.2775 211.305 41.1435 212.711 40.3498C214.117 39.5334 215.727 39.1251 217.541 39.1251C219.877 39.1251 221.805 39.7148 223.324 40.8941C224.867 42.0507 225.899 43.6836 226.42 45.7927H221.283C221.011 44.9763 220.546 44.3413 219.889 43.8877C219.254 43.4114 218.46 43.1733 217.507 43.1733C216.147 43.1733 215.069 43.6722 214.276 44.6701C213.482 45.6453 213.085 47.04 213.085 48.8543C213.085 50.6459 213.482 52.0407 214.276 53.0386C215.069 54.0137 216.147 54.5013 217.507 54.5013C219.435 54.5013 220.694 53.6395 221.283 51.916H226.42C225.899 53.957 224.867 55.5786 223.324 56.7805C221.782 57.9825 219.855 58.5835 217.541 58.5835C215.727 58.5835 214.117 58.1866 212.711 57.3929C211.305 56.5764 210.205 55.4425 209.411 53.9911C208.617 52.5169 208.22 50.8047 208.22 48.8543ZM234.672 42.3569C235.284 41.359 236.078 40.5766 237.053 40.0096C238.051 39.4426 239.185 39.1592 240.455 39.1592V44.1598H239.196C237.699 44.1598 236.565 44.5113 235.794 45.2144C235.046 45.9174 234.672 47.1421 234.672 48.8883V58.2773H229.909V39.4313H234.672V42.3569ZM246.078 37.1861C245.239 37.1861 244.536 36.9253 243.969 36.4037C243.424 35.8594 243.152 35.1904 243.152 34.3966C243.152 33.6029 243.424 32.9452 243.969 32.4236C244.536 31.8793 245.239 31.6071 246.078 31.6071C246.917 31.6071 247.609 31.8793 248.153 32.4236C248.72 32.9452 249.003 33.6029 249.003 34.3966C249.003 35.1904 248.72 35.8594 248.153 36.4037C247.609 36.9253 246.917 37.1861 246.078 37.1861ZM248.425 39.4313V58.2773H243.663V39.4313H248.425ZM257.893 42.1528C258.505 41.291 259.344 40.5766 260.41 40.0096C261.499 39.42 262.735 39.1251 264.118 39.1251C265.729 39.1251 267.18 39.522 268.473 40.3158C269.788 41.1095 270.82 42.2435 271.568 43.7176C272.339 45.169 272.725 46.8586 272.725 48.7863C272.725 50.714 272.339 52.4262 271.568 53.923C270.82 55.3971 269.788 56.5424 268.473 57.3589C267.18 58.1753 265.729 58.5835 264.118 58.5835C262.735 58.5835 261.51 58.3 260.444 57.7331C259.401 57.1661 258.551 56.4517 257.893 55.5899V67.2581H253.13V39.4313H257.893V42.1528ZM267.86 48.7863C267.86 47.6523 267.622 46.6772 267.146 45.8607C266.692 45.0216 266.08 44.3866 265.309 43.9557C264.561 43.5248 263.744 43.3094 262.86 43.3094C261.998 43.3094 261.181 43.5362 260.41 43.9897C259.662 44.4206 259.05 45.0556 258.573 45.8947C258.12 46.7339 257.893 47.7204 257.893 48.8543C257.893 49.9883 258.12 50.9748 258.573 51.8139C259.05 52.653 259.662 53.2994 260.41 53.7529C261.181 54.1838 261.998 54.3993 262.86 54.3993C263.744 54.3993 264.561 54.1725 265.309 53.7189C266.08 53.2653 266.692 52.619 267.146 51.7799C267.622 50.9408 267.86 49.9429 267.86 48.7863ZM281.731 43.3434V52.4602C281.731 53.0952 281.878 53.5602 282.173 53.855C282.49 54.1271 283.012 54.2632 283.738 54.2632H285.949V58.2773H282.955C278.941 58.2773 276.934 56.327 276.934 52.4262V43.3434H274.689V39.4313H276.934V34.7708H281.731V39.4313H285.949V43.3434H281.731Z" fill="white"/>
<defs>
<filter id="filter0_ddd_2121_14213" x="17.1451" y="17.875" width="53.5771" height="60.3818" filterUnits="userSpaceOnUse" color-interpolation-filters="sRGB">
<feFlood flood-opacity="0" result="BackgroundImageFix"/>
<feColorMatrix in="SourceAlpha" type="matrix" values="0 0 0 0 0 0 0 0 0 0 0 0 0 0 0 0 0 0 127 0" result="hardAlpha"/>
<feOffset dy="3.40181"/>
<feGaussianBlur stdDeviation="1.70091"/>
<feComposite in2="hardAlpha" operator="out"/>
<feColorMatrix type="matrix" values="0 0 0 0 0 0 0 0 0 0 0 0 0 0 0 0 0 0 0.25 0"/>
<feBlend mode="normal" in2="BackgroundImageFix" result="effect1_dropShadow_2121_14213"/>
<feColorMatrix in="SourceAlpha" type="matrix" values="0 0 0 0 0 0 0 0 0 0 0 0 0 0 0 0 0 0 127 0" result="hardAlpha"/>
<feOffset dy="3.40181"/>
<feGaussianBlur stdDeviation="1.70091"/>
<feComposite in2="hardAlpha" operator="out"/>
<feColorMatrix type="matrix" values="0 0 0 0 0 0 0 0 0 0 0 0 0 0 0 0 0 0 0.25 0"/>
<feBlend mode="normal" in2="effect1_dropShadow_2121_14213" result="effect2_dropShadow_2121_14213"/>
<feColorMatrix in="SourceAlpha" type="matrix" values="0 0 0 0 0 0 0 0 0 0 0 0 0 0 0 0 0 0 127 0" result="hardAlpha"/>
<feOffset dy="3.40181"/>
<feGaussianBlur stdDeviation="1.70091"/>
<feComposite in2="hardAlpha" operator="out"/>
<feColorMatrix type="matrix" values="0 0 0 0 0 0 0 0 0 0 0 0 0 0 0 0 0 0 0.25 0"/>
<feBlend mode="normal" in2="effect2_dropShadow_2121_14213" result="effect3_dropShadow_2121_14213"/>
<feBlend mode="normal" in="SourceGraphic" in2="effect3_dropShadow_2121_14213" result="shape"/>
</filter>
</defs>
</svg>
