<svg width="355" height="78" viewBox="0 0 355 78" fill="none" xmlns="http://www.w3.org/2000/svg">
<path d="M111.889 59.8983C110.234 59.8983 108.737 59.6148 107.399 59.0478C106.084 58.4809 105.04 57.6644 104.269 56.5985C103.498 55.5326 103.101 54.274 103.079 52.8225H108.181C108.249 53.7977 108.59 54.5688 109.202 55.1357C109.837 55.7027 110.699 55.9862 111.787 55.9862C112.899 55.9862 113.772 55.7254 114.407 55.2038C115.042 54.6595 115.359 53.9565 115.359 53.0947C115.359 52.3916 115.144 51.8133 114.713 51.3597C114.282 50.9062 113.738 50.5546 113.08 50.3052C112.445 50.033 111.561 49.7382 110.427 49.4207C108.884 48.9671 107.626 48.5249 106.651 48.094C105.698 47.6404 104.87 46.9714 104.167 46.0869C103.487 45.1798 103.147 43.9778 103.147 42.481C103.147 41.0749 103.498 39.8503 104.201 38.807C104.904 37.7638 105.891 36.9701 107.161 36.4258C108.431 35.8588 109.882 35.5753 111.515 35.5753C113.964 35.5753 115.949 36.1763 117.468 37.3783C119.01 38.5576 119.861 40.2131 120.02 42.3449H114.781C114.736 41.5285 114.384 40.8595 113.726 40.3379C113.091 39.7936 112.241 39.5214 111.175 39.5214C110.245 39.5214 109.497 39.7596 108.93 40.2358C108.386 40.7121 108.113 41.4038 108.113 42.3109C108.113 42.9459 108.317 43.4789 108.726 43.9098C109.157 44.318 109.678 44.6582 110.291 44.9303C110.926 45.1798 111.81 45.4746 112.944 45.8148C114.486 46.2684 115.745 46.7219 116.72 47.1755C117.695 47.6291 118.534 48.3094 119.237 49.2166C119.94 50.1237 120.292 51.3144 120.292 52.7885C120.292 54.0585 119.963 55.2378 119.305 56.3264C118.648 57.415 117.684 58.2881 116.414 58.9458C115.144 59.5808 113.636 59.8983 111.889 59.8983ZM123.264 47.7538C123.264 45.4179 123.786 43.3315 124.829 41.4945C125.895 39.6348 127.335 38.1947 129.149 37.1742C130.986 36.131 133.039 35.6093 135.307 35.6093C137.96 35.6093 140.285 36.2897 142.28 37.6504C144.276 39.0112 145.671 40.8935 146.465 43.2974H140.988C140.443 42.1635 139.672 41.313 138.674 40.7461C137.699 40.1791 136.565 39.8956 135.273 39.8956C133.889 39.8956 132.653 40.2245 131.565 40.8821C130.499 41.5172 129.66 42.4243 129.047 43.6036C128.458 44.7829 128.163 46.1663 128.163 47.7538C128.163 49.3186 128.458 50.702 129.047 51.904C129.66 53.0833 130.499 54.0018 131.565 54.6595C132.653 55.2945 133.889 55.612 135.273 55.612C136.565 55.612 137.699 55.3285 138.674 54.7615C139.672 54.1719 140.443 53.3101 140.988 52.1762H146.465C145.671 54.6028 144.276 56.4965 142.28 57.8572C140.307 59.1952 137.983 59.8643 135.307 59.8643C133.039 59.8643 130.986 59.354 129.149 58.3334C127.335 57.2902 125.895 55.8501 124.829 54.0131C123.786 52.1762 123.264 50.0897 123.264 47.7538ZM162.779 59.6602L157.54 50.4072H155.295V59.6602H150.532V35.9155H159.445C161.282 35.9155 162.847 36.2443 164.14 36.902C165.432 37.537 166.396 38.4102 167.031 39.5214C167.689 40.61 168.018 41.8347 168.018 43.1954C168.018 44.7602 167.564 46.1776 166.657 47.4476C165.75 48.695 164.4 49.5568 162.609 50.033L168.29 59.6602H162.779ZM155.295 46.8353H159.275C160.568 46.8353 161.532 46.5292 162.167 45.9168C162.802 45.2818 163.119 44.4087 163.119 43.2974C163.119 42.2089 162.802 41.3697 162.167 40.7801C161.532 40.1678 160.568 39.8616 159.275 39.8616H155.295V46.8353ZM177.02 35.9155V50.6113C177.02 52.2215 177.439 53.4575 178.278 54.3193C179.118 55.1584 180.297 55.578 181.816 55.578C183.358 55.578 184.549 55.1584 185.388 54.3193C186.227 53.4575 186.647 52.2215 186.647 50.6113V35.9155H191.443V50.5773C191.443 52.5957 191.001 54.308 190.117 55.7141C189.255 57.0975 188.087 58.1407 186.613 58.8437C185.161 59.5468 183.54 59.8983 181.748 59.8983C179.979 59.8983 178.369 59.5468 176.918 58.8437C175.489 58.1407 174.355 57.0975 173.516 55.7141C172.677 54.308 172.257 52.5957 172.257 50.5773V35.9155H177.02ZM221.933 35.9155V59.6602H217.17V44.2159L210.809 59.6602H207.203L200.807 44.2159V59.6602H196.045V35.9155H201.454L209.006 53.5709L216.558 35.9155H221.933Z" fill="white"/>
<rect x="0.140625" y="0.546875" width="86.7462" height="76.5408" rx="17.0091" fill="#1F204C"/>
<g filter="url(#filter0_ddd_2121_14214)">
<path d="M30.1424 27.6198L30.2251 27.8679C30.2936 28.0734 30.399 28.2647 30.5362 28.4324C31.0368 29.0442 31.074 29.9128 30.6276 30.5652L28.5689 33.5741C28.4493 33.7488 28.2022 33.7761 28.0474 33.6316L27.8818 33.4771C27.0257 32.678 26.3108 31.7399 25.7674 30.7025L25.7417 30.6535C25.4495 30.0957 25.2081 29.5129 25.0203 28.912L25.0115 28.8837C24.8164 28.2594 24.6818 27.6177 24.6095 26.9675L24.5984 26.8672C24.5226 26.1852 24.5226 25.4969 24.5984 24.8149L24.6275 24.5529C24.6877 24.0108 24.8108 23.4777 24.9942 22.9641C25.1989 22.3909 25.4772 21.8467 25.822 21.3451L26.1321 20.894C26.4359 20.4522 26.7709 20.0327 27.1345 19.6388L27.3694 19.3843C27.7831 18.9361 28.232 18.5216 28.7116 18.1447L29.2018 17.7596C29.4848 17.5372 29.7896 17.3441 30.1115 17.1831C30.7183 16.8797 31.3774 16.6949 32.0534 16.6386L32.767 16.5791C33.4767 16.52 34.191 16.5448 34.8949 16.6531L35.3549 16.7239L36.8882 17.0846C37.1559 17.1476 37.4326 17.0231 37.563 16.7809L38.311 15.3917C38.5637 14.9224 39.2549 14.9821 39.4235 15.4877L41.5831 21.9667C41.6925 22.2948 41.5066 22.6479 41.1743 22.7435L34.6121 24.6312C34.0986 24.779 33.6579 24.2402 33.9044 23.7662L34.5602 22.5049C34.656 22.3208 34.5223 22.1007 34.3147 22.1007H34.286C33.9862 22.1007 33.6869 22.1276 33.3919 22.1813C32.8344 22.2826 32.2982 22.4781 31.8062 22.7592L31.7314 22.802L31.305 23.1218C30.969 23.3737 30.6852 23.6885 30.4691 24.0486C30.2227 24.4592 30.0702 24.9193 30.0226 25.3958L29.9781 25.841V26.6072C29.9781 26.9513 30.0335 27.2932 30.1424 27.6198Z" stroke="white" stroke-width="0.850453" shape-rendering="crispEdges"/>
</g>
<g filter="url(#filter1_ddd_2121_14214)">
<path d="M46.6609 55.0628H18.0307C17.4558 55.0628 17.2018 55.7867 17.6508 56.1459L18.6774 56.9672C18.9644 57.1968 18.9838 57.6264 18.7187 57.8809L17.4038 59.1431C17.0064 59.5246 17.2804 60.1957 17.8313 60.19L48.4145 59.8758C49.7469 59.8621 51.0672 59.6207 52.3183 59.162L53.1512 58.8566C53.6727 58.6654 54.1799 58.4372 54.669 58.1739L56.9735 56.933L58.6195 55.8356C59.6202 55.1685 60.5119 54.351 61.2631 53.4119L61.3378 53.3186C61.7781 52.7682 62.1678 52.179 62.502 51.5584L63.6361 49.4522L64.2267 48.1529C64.6108 47.3078 64.8927 46.4198 65.0664 45.5079C65.2035 44.7883 65.2725 44.0573 65.2725 43.3248V42.7896L65.0387 39.7506L64.8049 37.7635L64.6799 37.1798C64.5298 36.4795 64.3157 35.7944 64.0402 35.1333L63.668 34.2399C63.4134 33.629 63.1074 33.0407 62.7532 32.4815L61.5725 30.6172C61.2344 30.0834 60.8536 29.5779 60.4339 29.1057L60.2343 28.8812C59.5441 28.1047 58.7534 27.4237 57.8832 26.8561L56.506 25.9579L54.9073 25.0787C54.4152 24.808 53.9043 24.5732 53.3785 24.376L52.298 23.9709L51.7953 23.8121C50.6566 23.4525 49.4696 23.2695 48.2755 23.2695H47.9732H46.2199L44.4128 23.4864C43.6711 23.5754 42.9397 23.7353 42.2286 23.9639L40.0249 24.6722L38.3807 25.4586C37.6863 25.7907 37.0264 26.1905 36.4106 26.6524L35.9247 27.0168C35.3089 27.4786 34.7403 28.0002 34.227 28.5738L33.5656 29.313C33.1968 29.7252 32.8577 30.1631 32.5509 30.6233L31.1415 32.7374L30.2897 34.441C29.9235 35.1734 29.6353 35.9423 29.4298 36.7349L29.2947 37.2557C29.0464 38.2138 28.9207 39.1995 28.9207 40.1892V41.0363V43.2572L29.2713 45.9456L29.6655 47.9164C29.7084 48.1309 29.5968 48.3465 29.3969 48.4353L27.5883 49.2392C27.2114 49.4067 27.2202 49.9446 27.6023 50.0996L34.206 52.7794C34.4487 52.8779 34.725 52.7578 34.8185 52.5131L37.5975 45.2451C37.6319 45.1551 37.5431 45.0671 37.4534 45.1023L35.972 45.6843C35.1561 46.0049 34.2474 45.517 34.0637 44.6598L33.9222 43.0322C33.8608 42.3265 33.8637 41.6166 33.9309 40.9114L34.0637 39.5168L34.2833 38.4627C34.525 37.3025 34.953 36.1781 35.541 35.149C35.8781 34.5591 36.2716 33.9959 36.7105 33.4772C37.1271 32.9849 37.5856 32.5298 38.081 32.1169L39.4405 30.9841L40.5323 30.2945C41.2816 29.8213 42.091 29.4507 42.9389 29.1926L43.0079 29.1716C43.8975 28.9008 44.8224 28.7632 45.7524 28.7632H48.3239L50.0772 28.997L51.4462 29.3572C52.0126 29.5063 52.5621 29.7134 53.0859 29.9754C53.6499 30.2573 54.1807 30.6011 54.6687 31.0004L55.2202 31.4516L56.2722 32.3867L57.1651 33.4072C57.6596 33.9723 58.0981 34.5841 58.4743 35.234C58.9525 36.06 59.327 36.9419 59.5892 37.8596L59.6797 38.1765C59.9781 39.2208 60.1295 40.3016 60.1295 41.3876V41.9246C60.1295 43.041 59.9695 44.1517 59.6545 45.2227L59.3871 46.1319C59.1041 47.094 58.6896 48.0124 58.1553 48.8611C57.3754 50.0996 56.3539 51.1682 55.1518 52.003L54.1442 52.7028C53.2298 53.3378 52.2294 53.8389 51.1733 54.1909L50.3571 54.4629C49.1653 54.8602 47.9172 55.0628 46.6609 55.0628Z" stroke="white" stroke-width="0.850453" shape-rendering="crispEdges"/>
</g>
<g filter="url(#filter2_ddd_2121_14214)">
<path d="M59.2486 57.9042L57.5939 58.835C57.0484 59.1418 57.2662 59.9733 57.8921 59.9733H66.8846C67.2205 59.9733 67.4928 60.2455 67.4928 60.5814V61.9681C67.4928 62.5159 68.1603 62.7845 68.5397 62.3893L72.7212 58.0336C72.938 57.8077 72.948 57.4542 72.7443 57.2166L68.5628 52.3381C68.1953 51.9094 67.4928 52.1693 67.4928 52.734V54.4558C67.4928 54.7917 67.2205 55.064 66.8846 55.064H62.5875C62.4347 55.064 62.2874 55.1216 62.175 55.2253L60.8302 56.4666L59.363 57.821C59.3282 57.8531 59.2899 57.881 59.2486 57.9042Z" stroke="white" stroke-width="0.850453" shape-rendering="crispEdges"/>
</g>
<defs>
<filter id="filter0_ddd_2121_14214" x="20.7154" y="14.6484" width="24.7255" height="26.3036" filterUnits="userSpaceOnUse" color-interpolation-filters="sRGB">
<feFlood flood-opacity="0" result="BackgroundImageFix"/>
<feColorMatrix in="SourceAlpha" type="matrix" values="0 0 0 0 0 0 0 0 0 0 0 0 0 0 0 0 0 0 127 0" result="hardAlpha"/>
<feOffset dy="3.40181"/>
<feGaussianBlur stdDeviation="1.70091"/>
<feComposite in2="hardAlpha" operator="out"/>
<feColorMatrix type="matrix" values="0 0 0 0 0 0 0 0 0 0 0 0 0 0 0 0 0 0 0.25 0"/>
<feBlend mode="normal" in2="BackgroundImageFix" result="effect1_dropShadow_2121_14214"/>
<feColorMatrix in="SourceAlpha" type="matrix" values="0 0 0 0 0 0 0 0 0 0 0 0 0 0 0 0 0 0 127 0" result="hardAlpha"/>
<feOffset dy="3.40181"/>
<feGaussianBlur stdDeviation="1.70091"/>
<feComposite in2="hardAlpha" operator="out"/>
<feColorMatrix type="matrix" values="0 0 0 0 0 0 0 0 0 0 0 0 0 0 0 0 0 0 0.25 0"/>
<feBlend mode="normal" in2="effect1_dropShadow_2121_14214" result="effect2_dropShadow_2121_14214"/>
<feColorMatrix in="SourceAlpha" type="matrix" values="0 0 0 0 0 0 0 0 0 0 0 0 0 0 0 0 0 0 127 0" result="hardAlpha"/>
<feOffset dy="3.40181"/>
<feGaussianBlur stdDeviation="1.70091"/>
<feComposite in2="hardAlpha" operator="out"/>
<feColorMatrix type="matrix" values="0 0 0 0 0 0 0 0 0 0 0 0 0 0 0 0 0 0 0.25 0"/>
<feBlend mode="normal" in2="effect2_dropShadow_2121_14214" result="effect3_dropShadow_2121_14214"/>
<feBlend mode="normal" in="SourceGraphic" in2="effect3_dropShadow_2121_14214" result="shape"/>
</filter>
<filter id="filter1_ddd_2121_14214" x="13.3872" y="22.8438" width="55.7099" height="44.5771" filterUnits="userSpaceOnUse" color-interpolation-filters="sRGB">
<feFlood flood-opacity="0" result="BackgroundImageFix"/>
<feColorMatrix in="SourceAlpha" type="matrix" values="0 0 0 0 0 0 0 0 0 0 0 0 0 0 0 0 0 0 127 0" result="hardAlpha"/>
<feOffset dy="3.40181"/>
<feGaussianBlur stdDeviation="1.70091"/>
<feComposite in2="hardAlpha" operator="out"/>
<feColorMatrix type="matrix" values="0 0 0 0 0 0 0 0 0 0 0 0 0 0 0 0 0 0 0.25 0"/>
<feBlend mode="normal" in2="BackgroundImageFix" result="effect1_dropShadow_2121_14214"/>
<feColorMatrix in="SourceAlpha" type="matrix" values="0 0 0 0 0 0 0 0 0 0 0 0 0 0 0 0 0 0 127 0" result="hardAlpha"/>
<feOffset dy="3.40181"/>
<feGaussianBlur stdDeviation="1.70091"/>
<feComposite in2="hardAlpha" operator="out"/>
<feColorMatrix type="matrix" values="0 0 0 0 0 0 0 0 0 0 0 0 0 0 0 0 0 0 0.25 0"/>
<feBlend mode="normal" in2="effect1_dropShadow_2121_14214" result="effect2_dropShadow_2121_14214"/>
<feColorMatrix in="SourceAlpha" type="matrix" values="0 0 0 0 0 0 0 0 0 0 0 0 0 0 0 0 0 0 127 0" result="hardAlpha"/>
<feOffset dy="3.40181"/>
<feGaussianBlur stdDeviation="1.70091"/>
<feComposite in2="hardAlpha" operator="out"/>
<feColorMatrix type="matrix" values="0 0 0 0 0 0 0 0 0 0 0 0 0 0 0 0 0 0 0.25 0"/>
<feBlend mode="normal" in2="effect2_dropShadow_2121_14214" result="effect3_dropShadow_2121_14214"/>
<feBlend mode="normal" in="SourceGraphic" in2="effect3_dropShadow_2121_14214" result="shape"/>
</filter>
<filter id="filter2_ddd_2121_14214" x="53.4576" y="51.6992" width="23.2568" height="18.1083" filterUnits="userSpaceOnUse" color-interpolation-filters="sRGB">
<feFlood flood-opacity="0" result="BackgroundImageFix"/>
<feColorMatrix in="SourceAlpha" type="matrix" values="0 0 0 0 0 0 0 0 0 0 0 0 0 0 0 0 0 0 127 0" result="hardAlpha"/>
<feOffset dy="3.40181"/>
<feGaussianBlur stdDeviation="1.70091"/>
<feComposite in2="hardAlpha" operator="out"/>
<feColorMatrix type="matrix" values="0 0 0 0 0 0 0 0 0 0 0 0 0 0 0 0 0 0 0.25 0"/>
<feBlend mode="normal" in2="BackgroundImageFix" result="effect1_dropShadow_2121_14214"/>
<feColorMatrix in="SourceAlpha" type="matrix" values="0 0 0 0 0 0 0 0 0 0 0 0 0 0 0 0 0 0 127 0" result="hardAlpha"/>
<feOffset dy="3.40181"/>
<feGaussianBlur stdDeviation="1.70091"/>
<feComposite in2="hardAlpha" operator="out"/>
<feColorMatrix type="matrix" values="0 0 0 0 0 0 0 0 0 0 0 0 0 0 0 0 0 0 0.25 0"/>
<feBlend mode="normal" in2="effect1_dropShadow_2121_14214" result="effect2_dropShadow_2121_14214"/>
<feColorMatrix in="SourceAlpha" type="matrix" values="0 0 0 0 0 0 0 0 0 0 0 0 0 0 0 0 0 0 127 0" result="hardAlpha"/>
<feOffset dy="3.40181"/>
<feGaussianBlur stdDeviation="1.70091"/>
<feComposite in2="hardAlpha" operator="out"/>
<feColorMatrix type="matrix" values="0 0 0 0 0 0 0 0 0 0 0 0 0 0 0 0 0 0 0.25 0"/>
<feBlend mode="normal" in2="effect2_dropShadow_2121_14214" result="effect3_dropShadow_2121_14214"/>
<feBlend mode="normal" in="SourceGraphic" in2="effect3_dropShadow_2121_14214" result="shape"/>
</filter>
</defs>
</svg>
