<svg width="35" height="35" viewBox="0 0 82 82" fill="none" xmlns="http://www.w3.org/2000/svg">
<path d="M64.7943 55.1145L61.4147 49.5042C60.7049 48.2537 60.0628 45.888 60.0628 44.5023V35.9517C60.0628 28.0095 55.3988 21.1488 48.6733 17.9381C46.9159 14.8288 43.6714 12.9023 39.9537 12.9023C36.2699 12.9023 32.9579 14.8964 31.2005 18.0394C24.6101 21.3177 20.0476 28.1109 20.0476 35.9517V44.5023C20.0476 45.888 19.4054 48.2537 18.6957 49.4704L15.2822 55.1145C13.9304 57.3789 13.6262 59.8798 14.4711 62.178C15.2822 64.4424 17.2086 66.1998 19.7096 67.0447C26.2662 69.2753 33.1607 70.3568 40.0551 70.3568C46.9497 70.3568 53.8442 69.2753 60.4008 67.0785C62.7665 66.3012 64.5916 64.51 65.4703 62.178C66.349 59.846 66.1124 57.2775 64.7943 55.1145Z" fill="white"/>
<path d="M49.5483 73.7721C48.1289 77.6925 44.3774 80.4976 39.9838 80.4976C37.3139 80.4976 34.6778 79.4161 32.8189 77.4897C31.7374 76.4758 30.9263 75.1239 30.4531 73.7383C30.8925 73.8059 31.3318 73.8397 31.805 73.9073C32.5823 74.0087 33.3935 74.11 34.2046 74.1776C36.131 74.3466 38.0912 74.448 40.0514 74.448C41.9778 74.448 43.9043 74.3466 45.7969 74.1776C46.5066 74.11 47.2163 74.0762 47.8923 73.9749C48.433 73.9073 48.9738 73.8397 49.5483 73.7721Z" fill="white"/>
<path d="M56.889 36.5601C64.3554 36.5601 70.4077 30.5075 70.4077 23.0414C70.4077 15.5752 64.3554 9.52267 56.889 9.52267C49.4227 9.52267 43.3703 15.5752 43.3703 23.0414C43.3703 30.5075 49.4227 36.5601 56.889 36.5601Z" fill="#4C49ED" stroke="#1F2227" stroke-width="6.75935"/>
</svg>
