<svg width="358" height="78" viewBox="0 0 358 78" fill="none" xmlns="http://www.w3.org/2000/svg">
<path d="M132.766 22.32V50H129.126V29.36L119.926 50H117.366L108.126 29.32V50H104.486V22.32H108.406L118.646 45.2L128.886 22.32H132.766ZM158.939 38.2C158.939 38.8933 158.899 39.6267 158.819 40.4H141.299C141.433 42.56 142.166 44.2533 143.499 45.48C144.859 46.68 146.499 47.28 148.419 47.28C149.993 47.28 151.299 46.92 152.339 46.2C153.406 45.4533 154.153 44.4667 154.579 43.24H158.499C157.913 45.3467 156.739 47.0667 154.979 48.4C153.219 49.7067 151.033 50.36 148.419 50.36C146.339 50.36 144.473 49.8933 142.819 48.96C141.193 48.0267 139.913 46.7067 138.979 45C138.046 43.2667 137.579 41.2667 137.579 39C137.579 36.7333 138.033 34.7467 138.939 33.04C139.846 31.3333 141.113 30.0267 142.739 29.12C144.393 28.1867 146.286 27.72 148.419 27.72C150.499 27.72 152.339 28.1733 153.939 29.08C155.539 29.9867 156.766 31.24 157.619 32.84C158.499 34.4133 158.939 36.2 158.939 38.2ZM155.179 37.44C155.179 36.0533 154.873 34.8667 154.259 33.88C153.646 32.8667 152.806 32.1067 151.739 31.6C150.699 31.0667 149.539 30.8 148.259 30.8C146.419 30.8 144.846 31.3867 143.539 32.56C142.259 33.7333 141.526 35.36 141.339 37.44H155.179ZM183.184 28.08V50H179.544V46.76C178.851 47.88 177.877 48.76 176.624 49.4C175.397 50.0133 174.037 50.32 172.544 50.32C170.837 50.32 169.304 49.9733 167.944 49.28C166.584 48.56 165.504 47.4933 164.704 46.08C163.931 44.6667 163.544 42.9467 163.544 40.92V28.08H167.144V40.44C167.144 42.6 167.691 44.2667 168.784 45.44C169.877 46.5867 171.371 47.16 173.264 47.16C175.211 47.16 176.744 46.56 177.864 45.36C178.984 44.16 179.544 42.4133 179.544 40.12V28.08H183.184ZM197.09 50.36C195.41 50.36 193.903 50.08 192.57 49.52C191.237 48.9333 190.183 48.1333 189.41 47.12C188.637 46.08 188.21 44.8933 188.13 43.56H191.89C191.997 44.6533 192.503 45.5467 193.41 46.24C194.343 46.9333 195.557 47.28 197.05 47.28C198.437 47.28 199.53 46.9733 200.33 46.36C201.13 45.7467 201.53 44.9733 201.53 44.04C201.53 43.08 201.103 42.3733 200.25 41.92C199.397 41.44 198.077 40.9733 196.29 40.52C194.663 40.0933 193.33 39.6667 192.29 39.24C191.277 38.7867 190.397 38.1333 189.65 37.28C188.93 36.4 188.57 35.2533 188.57 33.84C188.57 32.72 188.903 31.6933 189.57 30.76C190.237 29.8267 191.183 29.0933 192.41 28.56C193.637 28 195.037 27.72 196.61 27.72C199.037 27.72 200.997 28.3333 202.49 29.56C203.983 30.7867 204.783 32.4667 204.89 34.6H201.25C201.17 33.4533 200.703 32.5333 199.85 31.84C199.023 31.1467 197.903 30.8 196.49 30.8C195.183 30.8 194.143 31.08 193.37 31.64C192.597 32.2 192.21 32.9333 192.21 33.84C192.21 34.56 192.437 35.16 192.89 35.64C193.37 36.0933 193.957 36.4667 194.65 36.76C195.37 37.0267 196.357 37.3333 197.61 37.68C199.183 38.1067 200.463 38.5333 201.45 38.96C202.437 39.36 203.277 39.9733 203.97 40.8C204.69 41.6267 205.063 42.7067 205.09 44.04C205.09 45.24 204.757 46.32 204.09 47.28C203.423 48.24 202.477 49 201.25 49.56C200.05 50.0933 198.663 50.36 197.09 50.36ZM219.533 36.04C219.533 33.32 220.146 30.88 221.373 28.72C222.599 26.5333 224.266 24.8267 226.373 23.6C228.506 22.3733 230.866 21.76 233.453 21.76C236.493 21.76 239.146 22.4933 241.413 23.96C243.679 25.4267 245.333 27.5067 246.373 30.2H242.013C241.239 28.52 240.119 27.2267 238.653 26.32C237.213 25.4133 235.479 24.96 233.453 24.96C231.506 24.96 229.759 25.4133 228.213 26.32C226.666 27.2267 225.453 28.52 224.573 30.2C223.693 31.8533 223.253 33.8 223.253 36.04C223.253 38.2533 223.693 40.2 224.573 41.88C225.453 43.5333 226.666 44.8133 228.213 45.72C229.759 46.6267 231.506 47.08 233.453 47.08C235.479 47.08 237.213 46.64 238.653 45.76C240.119 44.8533 241.239 43.56 242.013 41.88H246.373C245.333 44.5467 243.679 46.6133 241.413 48.08C239.146 49.52 236.493 50.24 233.453 50.24C230.866 50.24 228.506 49.64 226.373 48.44C224.266 47.2133 222.599 45.52 221.373 43.36C220.146 41.2 219.533 38.76 219.533 36.04ZM271.231 28.08V50H267.591V46.76C266.898 47.88 265.924 48.76 264.671 49.4C263.444 50.0133 262.084 50.32 260.591 50.32C258.884 50.32 257.351 49.9733 255.991 49.28C254.631 48.56 253.551 47.4933 252.751 46.08C251.978 44.6667 251.591 42.9467 251.591 40.92V28.08H255.191V40.44C255.191 42.6 255.738 44.2667 256.831 45.44C257.924 46.5867 259.418 47.16 261.311 47.16C263.258 47.16 264.791 46.56 265.911 45.36C267.031 44.16 267.591 42.4133 267.591 40.12V28.08H271.231ZM281.017 31.64C281.657 30.3867 282.564 29.4133 283.737 28.72C284.937 28.0267 286.39 27.68 288.097 27.68V31.44H287.137C283.057 31.44 281.017 33.6533 281.017 38.08V50H277.377V28.08H281.017V31.64ZM300.059 50.36C298.379 50.36 296.872 50.08 295.539 49.52C294.205 48.9333 293.152 48.1333 292.379 47.12C291.605 46.08 291.179 44.8933 291.099 43.56H294.859C294.965 44.6533 295.472 45.5467 296.379 46.24C297.312 46.9333 298.525 47.28 300.019 47.28C301.405 47.28 302.499 46.9733 303.299 46.36C304.099 45.7467 304.499 44.9733 304.499 44.04C304.499 43.08 304.072 42.3733 303.219 41.92C302.365 41.44 301.045 40.9733 299.259 40.52C297.632 40.0933 296.299 39.6667 295.259 39.24C294.245 38.7867 293.365 38.1333 292.619 37.28C291.899 36.4 291.539 35.2533 291.539 33.84C291.539 32.72 291.872 31.6933 292.539 30.76C293.205 29.8267 294.152 29.0933 295.379 28.56C296.605 28 298.005 27.72 299.579 27.72C302.005 27.72 303.965 28.3333 305.459 29.56C306.952 30.7867 307.752 32.4667 307.859 34.6H304.219C304.139 33.4533 303.672 32.5333 302.819 31.84C301.992 31.1467 300.872 30.8 299.459 30.8C298.152 30.8 297.112 31.08 296.339 31.64C295.565 32.2 295.179 32.9333 295.179 33.84C295.179 34.56 295.405 35.16 295.859 35.64C296.339 36.0933 296.925 36.4667 297.619 36.76C298.339 37.0267 299.325 37.3333 300.579 37.68C302.152 38.1067 303.432 38.5333 304.419 38.96C305.405 39.36 306.245 39.9733 306.939 40.8C307.659 41.6267 308.032 42.7067 308.059 44.04C308.059 45.24 307.725 46.32 307.059 47.28C306.392 48.24 305.445 49 304.219 49.56C303.019 50.0933 301.632 50.36 300.059 50.36ZM322.757 50.36C320.704 50.36 318.837 49.8933 317.157 48.96C315.504 48.0267 314.197 46.7067 313.237 45C312.304 43.2667 311.837 41.2667 311.837 39C311.837 36.76 312.317 34.7867 313.277 33.08C314.264 31.3467 315.597 30.0267 317.277 29.12C318.957 28.1867 320.837 27.72 322.917 27.72C324.997 27.72 326.877 28.1867 328.557 29.12C330.237 30.0267 331.557 31.3333 332.517 33.04C333.504 34.7467 333.997 36.7333 333.997 39C333.997 41.2667 333.491 43.2667 332.477 45C331.491 46.7067 330.144 48.0267 328.437 48.96C326.731 49.8933 324.837 50.36 322.757 50.36ZM322.757 47.16C324.064 47.16 325.291 46.8533 326.437 46.24C327.584 45.6267 328.504 44.7067 329.197 43.48C329.917 42.2533 330.277 40.76 330.277 39C330.277 37.24 329.931 35.7467 329.237 34.52C328.544 33.2933 327.637 32.3867 326.517 31.8C325.397 31.1867 324.184 30.88 322.877 30.88C321.544 30.88 320.317 31.1867 319.197 31.8C318.104 32.3867 317.224 33.2933 316.557 34.52C315.891 35.7467 315.557 37.24 315.557 39C315.557 40.7867 315.877 42.2933 316.517 43.52C317.184 44.7467 318.064 45.6667 319.157 46.28C320.251 46.8667 321.451 47.16 322.757 47.16ZM346.543 50.36C344.863 50.36 343.356 50.08 342.023 49.52C340.69 48.9333 339.636 48.1333 338.863 47.12C338.09 46.08 337.663 44.8933 337.583 43.56H341.343C341.45 44.6533 341.956 45.5467 342.863 46.24C343.796 46.9333 345.01 47.28 346.503 47.28C347.89 47.28 348.983 46.9733 349.783 46.36C350.583 45.7467 350.983 44.9733 350.983 44.04C350.983 43.08 350.556 42.3733 349.703 41.92C348.85 41.44 347.53 40.9733 345.743 40.52C344.116 40.0933 342.783 39.6667 341.743 39.24C340.73 38.7867 339.85 38.1333 339.103 37.28C338.383 36.4 338.023 35.2533 338.023 33.84C338.023 32.72 338.356 31.6933 339.023 30.76C339.69 29.8267 340.636 29.0933 341.863 28.56C343.09 28 344.49 27.72 346.063 27.72C348.49 27.72 350.45 28.3333 351.943 29.56C353.436 30.7867 354.236 32.4667 354.343 34.6H350.703C350.623 33.4533 350.156 32.5333 349.303 31.84C348.476 31.1467 347.356 30.8 345.943 30.8C344.636 30.8 343.596 31.08 342.823 31.64C342.05 32.2 341.663 32.9333 341.663 33.84C341.663 34.56 341.89 35.16 342.343 35.64C342.823 36.0933 343.41 36.4667 344.103 36.76C344.823 37.0267 345.81 37.3333 347.063 37.68C348.636 38.1067 349.916 38.5333 350.903 38.96C351.89 39.36 352.73 39.9733 353.423 40.8C354.143 41.6267 354.516 42.7067 354.543 44.04C354.543 45.24 354.21 46.32 353.543 47.28C352.876 48.24 351.93 49 350.703 49.56C349.503 50.0933 348.116 50.36 346.543 50.36Z" fill="white"/>
<path d="M27.6406 38.9978L35.4731 46.8628L51.1706 31.1328" stroke="#EDEEFF" stroke-width="3.57583" stroke-linecap="round" stroke-linejoin="round"/>
<path d="M35.3431 7.96156C37.5856 6.04406 41.2581 6.04406 43.5331 7.96156L48.6681 12.3816C49.6431 13.2266 51.4631 13.9091 52.7631 13.9091H58.2881C61.7331 13.9091 64.5606 16.7366 64.5606 20.1816V25.7066C64.5606 26.9741 65.2431 28.8266 66.0881 29.8016L70.5081 34.9366C72.4256 37.1791 72.4256 40.8516 70.5081 43.1266L66.0881 48.2616C65.2431 49.2366 64.5606 51.0566 64.5606 52.3566V57.8816C64.5606 61.3266 61.7331 64.1541 58.2881 64.1541H52.7631C51.4956 64.1541 49.6431 64.8366 48.6681 65.6816L43.5331 70.1016C41.2906 72.0191 37.6181 72.0191 35.3431 70.1016L30.2081 65.6816C29.2331 64.8366 27.4131 64.1541 26.1131 64.1541H20.4906C17.0456 64.1541 14.2181 61.3266 14.2181 57.8816V52.3241C14.2181 51.0566 13.5356 49.2366 12.7231 48.2616L8.33563 43.0941C6.45063 40.8516 6.45063 37.2116 8.33563 34.9691L12.7231 29.8016C13.5356 28.8266 14.2181 27.0066 14.2181 25.7391V20.1491C14.2181 16.7041 17.0456 13.8766 20.4906 13.8766H26.1131C27.3806 13.8766 29.2331 13.1941 30.2081 12.3491L35.3431 7.96156Z" stroke="#EDEEFF" stroke-width="3.57583" stroke-linecap="round" stroke-linejoin="round"/>
</svg>
