<svg width="150" height="50" viewBox="0 0 407 92" fill="none" xmlns="http://www.w3.org/2000/svg">
<path d="M79.4653 36.6057L72.4566 34.1907L75.757 27.3674C76.0916 26.6532 76.2035 25.8493 76.0773 25.0665C75.9511 24.2838 75.593 23.5608 75.0524 22.9974L67.1537 14.8324C66.6057 14.2654 65.8996 13.8902 65.1346 13.7596C64.3697 13.6289 63.5843 13.7494 62.8891 14.1041L56.2882 17.5157L53.952 10.2707C53.7053 9.51555 53.2369 8.85864 52.6121 8.39144C51.9874 7.92425 51.2372 7.67 50.4662 7.66408H39.3412C38.5637 7.662 37.8053 7.91255 37.1732 8.3803C36.541 8.84806 36.067 9.50936 35.8182 10.2707L33.482 17.5157L26.8812 14.1041C26.1902 13.7582 25.4125 13.6426 24.6553 13.773C23.8981 13.9035 23.1987 14.2736 22.6537 14.8324L14.7549 22.9974C14.2064 23.5638 13.8434 24.2937 13.717 25.0845C13.5907 25.8752 13.7072 26.687 14.0503 27.4057L17.3507 34.2291L10.342 36.6441C9.61142 36.8991 8.97594 37.3833 8.52397 38.0291C8.07201 38.6749 7.82605 39.4503 7.82032 40.2474V51.7474C7.81832 52.551 8.0607 53.335 8.5132 53.9885C8.9657 54.642 9.60544 55.1319 10.342 55.3891L17.3507 57.8041L14.0503 64.6274C13.7158 65.3416 13.6039 66.1455 13.7301 66.9283C13.8563 67.711 14.2143 68.434 14.7549 68.9974L22.6537 77.1624C23.2016 77.7294 23.9077 78.1046 24.6727 78.2353C25.4376 78.3659 26.223 78.2454 26.9182 77.8907L33.5191 74.4791L35.8553 81.7241C36.1041 82.4855 36.5781 83.1468 37.2102 83.6145C37.8424 84.0823 38.6008 84.3328 39.3782 84.3307H50.5032C51.2807 84.3328 52.0391 84.0823 52.6712 83.6145C53.3034 83.1468 53.7774 82.4855 54.0262 81.7241L56.3624 74.4791L62.9632 77.8907C63.6497 78.2279 64.4199 78.3388 65.1694 78.2085C65.9189 78.0783 66.6116 77.7131 67.1537 77.1624L75.0524 68.9974C75.6009 68.431 75.9639 67.7011 76.0903 66.9103C76.2167 66.1196 76.1001 65.3078 75.757 64.5891L72.4566 57.7657L79.4653 55.3507C80.1959 55.0957 80.8314 54.6116 81.2833 53.9657C81.7353 53.3199 81.9813 52.5445 81.987 51.7474V40.2474C81.989 39.4438 81.7466 38.6598 81.2941 38.0063C80.8416 37.3528 80.2019 36.8629 79.4653 36.6057ZM74.5703 48.9874L70.1203 50.5207C69.097 50.8639 68.1582 51.433 67.3689 52.1886C66.5797 52.9443 65.9589 53.8684 65.5497 54.8968C65.1404 55.9252 64.9525 57.0334 64.9989 58.1444C65.0454 59.2554 65.3251 60.3426 65.8187 61.3307L67.9324 65.7007L63.8532 69.9174L59.737 67.6174C58.786 67.1276 57.7443 66.8548 56.6825 66.8174C55.6206 66.7799 54.5634 66.9788 53.5823 67.4004C52.6013 67.8221 51.7193 68.4567 50.9961 69.2613C50.273 70.0659 49.7255 71.0217 49.3907 72.0641L47.9074 76.6641H42.0112L40.5278 72.0641C40.1959 71.0063 39.6453 70.0358 38.9143 69.22C38.1833 68.4041 37.2894 67.7624 36.2945 67.3393C35.2996 66.9163 34.2276 66.7221 33.1528 66.7701C32.078 66.8181 31.0262 67.1072 30.0703 67.6174L25.8428 69.8024L21.7637 65.5857L23.9887 61.3307C24.4822 60.3426 24.7619 59.2554 24.8084 58.1444C24.8548 57.0334 24.6669 55.9252 24.2577 54.8968C23.8484 53.8684 23.2276 52.9443 22.4384 52.1886C21.6491 51.433 20.7103 50.8639 19.687 50.5207L15.237 48.9874V43.0074L19.687 41.4741C20.7103 41.131 21.6491 40.5618 22.4384 39.8062C23.2276 39.0505 23.8484 38.1264 24.2577 37.098C24.6669 36.0696 24.8548 34.9614 24.8084 33.8504C24.7619 32.7394 24.4822 31.6522 23.9887 30.6641L21.8749 26.4091L25.9541 22.1924L30.0703 24.3774C31.0262 24.8876 32.078 25.1767 33.1528 25.2247C34.2276 25.2728 35.2996 25.0785 36.2945 24.6555C37.2894 24.2324 38.1833 23.5907 38.9143 22.7749C39.6453 21.959 40.1959 20.9885 40.5278 19.9307L42.0112 15.3307H47.7962L49.2795 19.9307C49.6114 20.9885 50.162 21.959 50.893 22.7749C51.624 23.5907 52.518 24.2324 53.5128 24.6555C54.5077 25.0785 55.5798 25.2728 56.6545 25.2247C57.7293 25.1767 58.7811 24.8876 59.737 24.3774L63.9645 22.1924L68.0437 26.4091L65.8187 30.6641C65.3449 31.6471 65.0809 32.7239 65.0447 33.8215C65.0085 34.9192 65.2009 36.0121 65.6087 37.0262C66.0166 38.0403 66.6306 38.952 67.4089 39.6995C68.1873 40.4471 69.112 41.013 70.1203 41.3591L74.5703 42.8924V48.9874ZM44.9037 30.6641C41.9699 30.6641 39.102 31.5634 36.6627 33.2482C34.2234 34.9331 32.3221 37.3278 31.1994 40.1296C30.0767 42.9314 29.783 46.0144 30.3553 48.9888C30.9277 51.9632 32.3404 54.6953 34.4149 56.8397C36.4894 58.9841 39.1324 60.4445 42.0098 61.0361C44.8872 61.6278 47.8697 61.3241 50.5801 60.1636C53.2906 59.003 55.6072 57.0377 57.2371 54.5161C58.867 51.9946 59.737 49.0301 59.737 45.9974C59.737 41.9308 58.1742 38.0307 55.3924 35.1551C52.6106 32.2795 48.8377 30.6641 44.9037 30.6641V30.6641ZM44.9037 53.6641C43.4368 53.6641 42.0028 53.2144 40.7832 52.372C39.5635 51.5296 38.6129 50.3322 38.0515 48.9313C37.4902 47.5304 37.3433 45.9889 37.6295 44.5017C37.9157 43.0145 38.622 41.6485 39.6593 40.5763C40.6965 39.5041 42.018 38.7739 43.4567 38.4781C44.8954 38.1822 46.3867 38.3341 47.7419 38.9143C49.0971 39.4946 50.2554 40.4773 51.0704 41.738C51.8853 42.9988 52.3203 44.4811 52.3203 45.9974C52.3203 48.0307 51.5389 49.9808 50.148 51.4186C48.7571 52.8563 46.8707 53.6641 44.9037 53.6641Z" fill="white"/>
<path d="M112.126 55.04C112.126 52.32 112.74 49.88 113.966 47.72C115.193 45.5333 116.86 43.8267 118.966 42.6C121.1 41.3733 123.46 40.76 126.046 40.76C129.086 40.76 131.74 41.4933 134.006 42.96C136.273 44.4267 137.926 46.5067 138.966 49.2H134.606C133.833 47.52 132.713 46.2267 131.246 45.32C129.806 44.4133 128.073 43.96 126.046 43.96C124.1 43.96 122.353 44.4133 120.806 45.32C119.26 46.2267 118.046 47.52 117.166 49.2C116.286 50.8533 115.846 52.8 115.846 55.04C115.846 57.2533 116.286 59.2 117.166 60.88C118.046 62.5333 119.26 63.8133 120.806 64.72C122.353 65.6267 124.1 66.08 126.046 66.08C128.073 66.08 129.806 65.64 131.246 64.76C132.713 63.8533 133.833 62.56 134.606 60.88H138.966C137.926 63.5467 136.273 65.6133 134.006 67.08C131.74 68.52 129.086 69.24 126.046 69.24C123.46 69.24 121.1 68.64 118.966 67.44C116.86 66.2133 115.193 64.52 113.966 62.36C112.74 60.2 112.126 57.76 112.126 55.04ZM153.945 69.36C151.891 69.36 150.025 68.8933 148.345 67.96C146.691 67.0267 145.385 65.7067 144.425 64C143.491 62.2667 143.025 60.2667 143.025 58C143.025 55.76 143.505 53.7867 144.465 52.08C145.451 50.3467 146.785 49.0267 148.465 48.12C150.145 47.1867 152.025 46.72 154.105 46.72C156.185 46.72 158.065 47.1867 159.745 48.12C161.425 49.0267 162.745 50.3333 163.705 52.04C164.691 53.7467 165.185 55.7333 165.185 58C165.185 60.2667 164.678 62.2667 163.665 64C162.678 65.7067 161.331 67.0267 159.625 67.96C157.918 68.8933 156.025 69.36 153.945 69.36ZM153.945 66.16C155.251 66.16 156.478 65.8533 157.625 65.24C158.771 64.6267 159.691 63.7067 160.385 62.48C161.105 61.2533 161.465 59.76 161.465 58C161.465 56.24 161.118 54.7467 160.425 53.52C159.731 52.2933 158.825 51.3867 157.705 50.8C156.585 50.1867 155.371 49.88 154.065 49.88C152.731 49.88 151.505 50.1867 150.385 50.8C149.291 51.3867 148.411 52.2933 147.745 53.52C147.078 54.7467 146.745 56.24 146.745 58C146.745 59.7867 147.065 61.2933 147.705 62.52C148.371 63.7467 149.251 64.6667 150.345 65.28C151.438 65.8667 152.638 66.16 153.945 66.16ZM180.651 46.68C183.317 46.68 185.477 47.4933 187.131 49.12C188.784 50.72 189.611 53.04 189.611 56.08V69H186.011V56.6C186.011 54.4133 185.464 52.7467 184.371 51.6C183.277 50.4267 181.784 49.84 179.891 49.84C177.971 49.84 176.437 50.44 175.291 51.64C174.171 52.84 173.611 54.5867 173.611 56.88V69H169.971V47.08H173.611V50.2C174.331 49.08 175.304 48.2133 176.531 47.6C177.784 46.9867 179.157 46.68 180.651 46.68ZM204.477 50.08H199.877V69H196.237V50.08H193.397V47.08H196.237V45.52C196.237 43.0667 196.863 41.28 198.117 40.16C199.397 39.0133 201.437 38.44 204.237 38.44V41.48C202.637 41.48 201.503 41.8 200.837 42.44C200.197 43.0533 199.877 44.08 199.877 45.52V47.08H204.477V50.08ZM210.601 43.52C209.907 43.52 209.321 43.28 208.841 42.8C208.361 42.32 208.121 41.7333 208.121 41.04C208.121 40.3467 208.361 39.76 208.841 39.28C209.321 38.8 209.907 38.56 210.601 38.56C211.267 38.56 211.827 38.8 212.281 39.28C212.761 39.76 213.001 40.3467 213.001 41.04C213.001 41.7333 212.761 42.32 212.281 42.8C211.827 43.28 211.267 43.52 210.601 43.52ZM212.361 47.08V69H208.721V47.08H212.361ZM227.604 46.72C229.498 46.72 231.151 47.1333 232.564 47.96C234.004 48.7867 235.071 49.8267 235.764 51.08V47.08H239.444V69.48C239.444 71.48 239.018 73.2533 238.164 74.8C237.311 76.3733 236.084 77.6 234.484 78.48C232.911 79.36 231.071 79.8 228.964 79.8C226.084 79.8 223.684 79.12 221.764 77.76C219.844 76.4 218.711 74.5467 218.364 72.2H221.964C222.364 73.5333 223.191 74.6 224.444 75.4C225.698 76.2267 227.204 76.64 228.964 76.64C230.964 76.64 232.591 76.0133 233.844 74.76C235.124 73.5067 235.764 71.7467 235.764 69.48V64.88C235.044 66.16 233.978 67.2267 232.564 68.08C231.151 68.9333 229.498 69.36 227.604 69.36C225.658 69.36 223.884 68.88 222.284 67.92C220.711 66.96 219.471 65.6133 218.564 63.88C217.658 62.1467 217.204 60.1733 217.204 57.96C217.204 55.72 217.658 53.76 218.564 52.08C219.471 50.3733 220.711 49.0533 222.284 48.12C223.884 47.1867 225.658 46.72 227.604 46.72ZM235.764 58C235.764 56.3467 235.431 54.9067 234.764 53.68C234.098 52.4533 233.191 51.52 232.044 50.88C230.924 50.2133 229.684 49.88 228.324 49.88C226.964 49.88 225.724 50.2 224.604 50.84C223.484 51.48 222.591 52.4133 221.924 53.64C221.258 54.8667 220.924 56.3067 220.924 57.96C220.924 59.64 221.258 61.1067 221.924 62.36C222.591 63.5867 223.484 64.5333 224.604 65.2C225.724 65.84 226.964 66.16 228.324 66.16C229.684 66.16 230.924 65.84 232.044 65.2C233.191 64.5333 234.098 63.5867 234.764 62.36C235.431 61.1067 235.764 59.6533 235.764 58ZM265.036 47.08V69H261.396V65.76C260.702 66.88 259.729 67.76 258.476 68.4C257.249 69.0133 255.889 69.32 254.396 69.32C252.689 69.32 251.156 68.9733 249.796 68.28C248.436 67.56 247.356 66.4933 246.556 65.08C245.782 63.6667 245.396 61.9467 245.396 59.92V47.08H248.996V59.44C248.996 61.6 249.542 63.2667 250.636 64.44C251.729 65.5867 253.222 66.16 255.116 66.16C257.062 66.16 258.596 65.56 259.716 64.36C260.836 63.16 261.396 61.4133 261.396 59.12V47.08H265.036ZM274.822 50.64C275.462 49.3867 276.368 48.4133 277.542 47.72C278.742 47.0267 280.195 46.68 281.902 46.68V50.44H280.942C276.862 50.44 274.822 52.6533 274.822 57.08V69H271.182V47.08H274.822V50.64ZM284.743 57.96C284.743 55.72 285.197 53.76 286.103 52.08C287.01 50.3733 288.25 49.0533 289.823 48.12C291.423 47.1867 293.197 46.72 295.143 46.72C297.063 46.72 298.73 47.1333 300.143 47.96C301.557 48.7867 302.61 49.8267 303.303 51.08V47.08H306.983V69H303.303V64.92C302.583 66.2 301.503 67.2667 300.063 68.12C298.65 68.9467 296.997 69.36 295.103 69.36C293.157 69.36 291.397 68.88 289.823 67.92C288.25 66.96 287.01 65.6133 286.103 63.88C285.197 62.1467 284.743 60.1733 284.743 57.96ZM303.303 58C303.303 56.3467 302.97 54.9067 302.303 53.68C301.637 52.4533 300.73 51.52 299.583 50.88C298.463 50.2133 297.223 49.88 295.863 49.88C294.503 49.88 293.263 50.2 292.143 50.84C291.023 51.48 290.13 52.4133 289.463 53.64C288.797 54.8667 288.463 56.3067 288.463 57.96C288.463 59.64 288.797 61.1067 289.463 62.36C290.13 63.5867 291.023 64.5333 292.143 65.2C293.263 65.84 294.503 66.16 295.863 66.16C297.223 66.16 298.463 65.84 299.583 65.2C300.73 64.5333 301.637 63.5867 302.303 62.36C302.97 61.1067 303.303 59.6533 303.303 58ZM322.455 66.28C324.055 66.28 325.388 65.9067 326.455 65.16C327.521 64.4133 328.255 63.3467 328.655 61.96H332.575C332.041 64.04 330.988 65.7467 329.415 67.08C327.868 68.3867 325.921 69.1333 323.575 69.32V71.32C325.148 71.2933 326.401 71.6267 327.335 72.32C328.268 73.0133 328.735 74 328.735 75.28C328.735 76.5333 328.281 77.5333 327.375 78.28C326.468 79.0267 325.295 79.4 323.855 79.4H319.255V77.04H323.135C324.015 77.04 324.655 76.9067 325.055 76.64C325.481 76.3733 325.695 75.92 325.695 75.28C325.695 74.6667 325.481 74.2267 325.055 73.96C324.655 73.6933 324.015 73.56 323.135 73.56H321.135V69.28C319.295 69.0933 317.668 68.52 316.255 67.56C314.841 66.5733 313.735 65.2667 312.935 63.64C312.161 61.9867 311.775 60.1067 311.775 58C311.775 55.7333 312.228 53.76 313.135 52.08C314.041 50.3733 315.295 49.0533 316.895 48.12C318.521 47.1867 320.375 46.72 322.455 46.72C325.148 46.72 327.361 47.3733 329.095 48.68C330.855 49.9867 332.015 51.8 332.575 54.12H328.655C328.281 52.7867 327.548 51.7333 326.455 50.96C325.388 50.1867 324.055 49.8 322.455 49.8C320.375 49.8 318.695 50.52 317.415 51.96C316.135 53.3733 315.495 55.3867 315.495 58C315.495 60.64 316.135 62.68 317.415 64.12C318.695 65.56 320.375 66.28 322.455 66.28ZM346.992 69.36C344.938 69.36 343.072 68.8933 341.392 67.96C339.738 67.0267 338.432 65.7067 337.472 64C336.538 62.2667 336.072 60.2667 336.072 58C336.072 55.76 336.552 53.7867 337.512 52.08C338.498 50.3467 339.832 49.0267 341.512 48.12C343.192 47.1867 345.072 46.72 347.152 46.72C349.232 46.72 351.112 47.1867 352.792 48.12C354.472 49.0267 355.792 50.3333 356.752 52.04C357.738 53.7467 358.232 55.7333 358.232 58C358.232 60.2667 357.725 62.2667 356.712 64C355.725 65.7067 354.378 67.0267 352.672 67.96C350.965 68.8933 349.072 69.36 346.992 69.36ZM346.992 66.16C348.298 66.16 349.525 65.8533 350.672 65.24C351.818 64.6267 352.738 63.7067 353.432 62.48C354.152 61.2533 354.512 59.76 354.512 58C354.512 56.24 354.165 54.7467 353.472 53.52C352.778 52.2933 351.872 51.3867 350.752 50.8C349.632 50.1867 348.418 49.88 347.112 49.88C345.778 49.88 344.552 50.1867 343.432 50.8C342.338 51.3867 341.458 52.2933 340.792 53.52C340.125 54.7467 339.792 56.24 339.792 58C339.792 59.7867 340.112 61.2933 340.752 62.52C341.418 63.7467 342.298 64.6667 343.392 65.28C344.485 65.8667 345.685 66.16 346.992 66.16ZM341.312 44.44C341.498 43.08 341.938 42.04 342.632 41.32C343.352 40.6 344.245 40.24 345.312 40.24C345.818 40.24 346.245 40.3333 346.592 40.52C346.965 40.68 347.405 40.92 347.912 41.24C348.285 41.5067 348.618 41.72 348.912 41.88C349.205 42.0133 349.525 42.08 349.872 42.08C350.325 42.08 350.712 41.9333 351.032 41.64C351.352 41.3467 351.552 40.92 351.632 40.36H353.712C353.552 41.6933 353.112 42.72 352.392 43.44C351.672 44.16 350.778 44.52 349.712 44.52C349.205 44.52 348.752 44.44 348.352 44.28C347.978 44.0933 347.552 43.8267 347.072 43.48C346.645 43.2133 346.298 43.0133 346.032 42.88C345.792 42.7467 345.498 42.68 345.152 42.68C344.698 42.68 344.312 42.8267 343.992 43.12C343.698 43.4133 343.512 43.8533 343.432 44.44H341.312ZM383.018 57.2C383.018 57.8933 382.978 58.6267 382.898 59.4H365.378C365.511 61.56 366.244 63.2533 367.578 64.48C368.938 65.68 370.578 66.28 372.498 66.28C374.071 66.28 375.378 65.92 376.418 65.2C377.484 64.4533 378.231 63.4667 378.658 62.24H382.578C381.991 64.3467 380.818 66.0667 379.058 67.4C377.298 68.7067 375.111 69.36 372.498 69.36C370.418 69.36 368.551 68.8933 366.898 67.96C365.271 67.0267 363.991 65.7067 363.058 64C362.124 62.2667 361.658 60.2667 361.658 58C361.658 55.7333 362.111 53.7467 363.018 52.04C363.924 50.3333 365.191 49.0267 366.818 48.12C368.471 47.1867 370.364 46.72 372.498 46.72C374.578 46.72 376.418 47.1733 378.018 48.08C379.618 48.9867 380.844 50.24 381.698 51.84C382.578 53.4133 383.018 55.2 383.018 57.2ZM379.258 56.44C379.258 55.0533 378.951 53.8667 378.338 52.88C377.724 51.8667 376.884 51.1067 375.818 50.6C374.778 50.0667 373.618 49.8 372.338 49.8C370.498 49.8 368.924 50.3867 367.618 51.56C366.338 52.7333 365.604 54.36 365.418 56.44H379.258ZM395.582 69.36C393.902 69.36 392.396 69.08 391.062 68.52C389.729 67.9333 388.676 67.1333 387.902 66.12C387.129 65.08 386.702 63.8933 386.622 62.56H390.382C390.489 63.6533 390.996 64.5467 391.902 65.24C392.836 65.9333 394.049 66.28 395.542 66.28C396.929 66.28 398.022 65.9733 398.822 65.36C399.622 64.7467 400.022 63.9733 400.022 63.04C400.022 62.08 399.596 61.3733 398.742 60.92C397.889 60.44 396.569 59.9733 394.782 59.52C393.156 59.0933 391.822 58.6667 390.782 58.24C389.769 57.7867 388.889 57.1333 388.142 56.28C387.422 55.4 387.062 54.2533 387.062 52.84C387.062 51.72 387.396 50.6933 388.062 49.76C388.729 48.8267 389.676 48.0933 390.902 47.56C392.129 47 393.529 46.72 395.102 46.72C397.529 46.72 399.489 47.3333 400.982 48.56C402.476 49.7867 403.276 51.4667 403.382 53.6H399.742C399.662 52.4533 399.196 51.5333 398.342 50.84C397.516 50.1467 396.396 49.8 394.982 49.8C393.676 49.8 392.636 50.08 391.862 50.64C391.089 51.2 390.702 51.9333 390.702 52.84C390.702 53.56 390.929 54.16 391.382 54.64C391.862 55.0933 392.449 55.4667 393.142 55.76C393.862 56.0267 394.849 56.3333 396.102 56.68C397.676 57.1067 398.956 57.5333 399.942 57.96C400.929 58.36 401.769 58.9733 402.462 59.8C403.182 60.6267 403.556 61.7067 403.582 63.04C403.582 64.24 403.249 65.32 402.582 66.28C401.916 67.24 400.969 68 399.742 68.56C398.542 69.0933 397.156 69.36 395.582 69.36Z" fill="white"/>
</svg>
