<svg width="391" height="70" viewBox="0 0 391 70" fill="none" xmlns="http://www.w3.org/2000/svg">
<path d="M118.966 45.8H106.806L104.566 52H100.726L110.806 24.28H115.006L125.046 52H121.206L118.966 45.8ZM117.926 42.84L112.886 28.76L107.846 42.84H117.926ZM128.079 41C128.079 38.7333 128.533 36.76 129.439 35.08C130.346 33.3733 131.599 32.0533 133.199 31.12C134.826 30.1867 136.679 29.72 138.759 29.72C141.453 29.72 143.666 30.3733 145.399 31.68C147.159 32.9867 148.319 34.8 148.879 37.12H144.959C144.586 35.7867 143.853 34.7333 142.759 33.96C141.693 33.1867 140.359 32.8 138.759 32.8C136.679 32.8 134.999 33.52 133.719 34.96C132.439 36.3733 131.799 38.3867 131.799 41C131.799 43.64 132.439 45.68 133.719 47.12C134.999 48.56 136.679 49.28 138.759 49.28C140.359 49.28 141.693 48.9067 142.759 48.16C143.826 47.4133 144.559 46.3467 144.959 44.96H148.879C148.293 47.2 147.119 49 145.359 50.36C143.599 51.6933 141.399 52.36 138.759 52.36C136.679 52.36 134.826 51.8933 133.199 50.96C131.599 50.0267 130.346 48.7067 129.439 47C128.533 45.2933 128.079 43.2933 128.079 41ZM173.736 40.2C173.736 40.8933 173.696 41.6267 173.616 42.4H156.096C156.23 44.56 156.963 46.2533 158.296 47.48C159.656 48.68 161.296 49.28 163.216 49.28C164.79 49.28 166.096 48.92 167.136 48.2C168.203 47.4533 168.95 46.4667 169.376 45.24H173.296C172.71 47.3467 171.536 49.0667 169.776 50.4C168.016 51.7067 165.83 52.36 163.216 52.36C161.136 52.36 159.27 51.8933 157.616 50.96C155.99 50.0267 154.71 48.7067 153.776 47C152.843 45.2667 152.376 43.2667 152.376 41C152.376 38.7333 152.83 36.7467 153.736 35.04C154.643 33.3333 155.91 32.0267 157.536 31.12C159.19 30.1867 161.083 29.72 163.216 29.72C165.296 29.72 167.136 30.1733 168.736 31.08C170.336 31.9867 171.563 33.24 172.416 34.84C173.296 36.4133 173.736 38.2 173.736 40.2ZM169.976 39.44C169.976 38.0533 169.67 36.8667 169.056 35.88C168.443 34.8667 167.603 34.1067 166.536 33.6C165.496 33.0667 164.336 32.8 163.056 32.8C161.216 32.8 159.643 33.3867 158.336 34.56C157.056 35.7333 156.323 37.36 156.136 39.44H169.976ZM186.301 52.36C184.621 52.36 183.114 52.08 181.781 51.52C180.448 50.9333 179.394 50.1333 178.621 49.12C177.848 48.08 177.421 46.8933 177.341 45.56H181.101C181.208 46.6533 181.714 47.5467 182.621 48.24C183.554 48.9333 184.768 49.28 186.261 49.28C187.648 49.28 188.741 48.9733 189.541 48.36C190.341 47.7467 190.741 46.9733 190.741 46.04C190.741 45.08 190.314 44.3733 189.461 43.92C188.608 43.44 187.288 42.9733 185.501 42.52C183.874 42.0933 182.541 41.6667 181.501 41.24C180.488 40.7867 179.608 40.1333 178.861 39.28C178.141 38.4 177.781 37.2533 177.781 35.84C177.781 34.72 178.114 33.6933 178.781 32.76C179.448 31.8267 180.394 31.0933 181.621 30.56C182.848 30 184.248 29.72 185.821 29.72C188.248 29.72 190.208 30.3333 191.701 31.56C193.194 32.7867 193.994 34.4667 194.101 36.6H190.461C190.381 35.4533 189.914 34.5333 189.061 33.84C188.234 33.1467 187.114 32.8 185.701 32.8C184.394 32.8 183.354 33.08 182.581 33.64C181.808 34.2 181.421 34.9333 181.421 35.84C181.421 36.56 181.648 37.16 182.101 37.64C182.581 38.0933 183.168 38.4667 183.861 38.76C184.581 39.0267 185.568 39.3333 186.821 39.68C188.394 40.1067 189.674 40.5333 190.661 40.96C191.648 41.36 192.488 41.9733 193.181 42.8C193.901 43.6267 194.274 44.7067 194.301 46.04C194.301 47.24 193.968 48.32 193.301 49.28C192.634 50.24 191.688 51 190.461 51.56C189.261 52.0933 187.874 52.36 186.301 52.36ZM207.199 52.36C205.519 52.36 204.013 52.08 202.679 51.52C201.346 50.9333 200.293 50.1333 199.519 49.12C198.746 48.08 198.319 46.8933 198.239 45.56H201.999C202.106 46.6533 202.613 47.5467 203.519 48.24C204.453 48.9333 205.666 49.28 207.159 49.28C208.546 49.28 209.639 48.9733 210.439 48.36C211.239 47.7467 211.639 46.9733 211.639 46.04C211.639 45.08 211.213 44.3733 210.359 43.92C209.506 43.44 208.186 42.9733 206.399 42.52C204.773 42.0933 203.439 41.6667 202.399 41.24C201.386 40.7867 200.506 40.1333 199.759 39.28C199.039 38.4 198.679 37.2533 198.679 35.84C198.679 34.72 199.013 33.6933 199.679 32.76C200.346 31.8267 201.293 31.0933 202.519 30.56C203.746 30 205.146 29.72 206.719 29.72C209.146 29.72 211.106 30.3333 212.599 31.56C214.093 32.7867 214.893 34.4667 214.999 36.6H211.359C211.279 35.4533 210.813 34.5333 209.959 33.84C209.133 33.1467 208.013 32.8 206.599 32.8C205.293 32.8 204.253 33.08 203.479 33.64C202.706 34.2 202.319 34.9333 202.319 35.84C202.319 36.56 202.546 37.16 202.999 37.64C203.479 38.0933 204.066 38.4667 204.759 38.76C205.479 39.0267 206.466 39.3333 207.719 39.68C209.293 40.1067 210.573 40.5333 211.559 40.96C212.546 41.36 213.386 41.9733 214.079 42.8C214.799 43.6267 215.173 44.7067 215.199 46.04C215.199 47.24 214.866 48.32 214.199 49.28C213.533 50.24 212.586 51 211.359 51.56C210.159 52.0933 208.773 52.36 207.199 52.36ZM222.218 26.52C221.524 26.52 220.938 26.28 220.458 25.8C219.978 25.32 219.738 24.7333 219.738 24.04C219.738 23.3467 219.978 22.76 220.458 22.28C220.938 21.8 221.524 21.56 222.218 21.56C222.884 21.56 223.444 21.8 223.898 22.28C224.378 22.76 224.618 23.3467 224.618 24.04C224.618 24.7333 224.378 25.32 223.898 25.8C223.444 26.28 222.884 26.52 222.218 26.52ZM223.978 30.08V52H220.338V30.08H223.978ZM233.822 34.16C234.568 32.8533 235.662 31.7867 237.102 30.96C238.542 30.1333 240.182 29.72 242.022 29.72C243.995 29.72 245.768 30.1867 247.342 31.12C248.915 32.0533 250.155 33.3733 251.062 35.08C251.968 36.76 252.422 38.72 252.422 40.96C252.422 43.1733 251.968 45.1467 251.062 46.88C250.155 48.6133 248.902 49.96 247.302 50.92C245.728 51.88 243.968 52.36 242.022 52.36C240.128 52.36 238.462 51.9467 237.022 51.12C235.608 50.2933 234.542 49.24 233.822 47.96V52H230.182V22.4H233.822V34.16ZM248.702 40.96C248.702 39.3067 248.368 37.8667 247.702 36.64C247.035 35.4133 246.128 34.48 244.982 33.84C243.862 33.2 242.622 32.88 241.262 32.88C239.928 32.88 238.688 33.2133 237.542 33.88C236.422 34.52 235.515 35.4667 234.822 36.72C234.155 37.9467 233.822 39.3733 233.822 41C233.822 42.6533 234.155 44.1067 234.822 45.36C235.515 46.5867 236.422 47.5333 237.542 48.2C238.688 48.84 239.928 49.16 241.262 49.16C242.622 49.16 243.862 48.84 244.982 48.2C246.128 47.5333 247.035 46.5867 247.702 45.36C248.368 44.1067 248.702 42.64 248.702 40.96ZM259.093 26.52C258.399 26.52 257.813 26.28 257.333 25.8C256.853 25.32 256.613 24.7333 256.613 24.04C256.613 23.3467 256.853 22.76 257.333 22.28C257.813 21.8 258.399 21.56 259.093 21.56C259.759 21.56 260.319 21.8 260.773 22.28C261.253 22.76 261.493 23.3467 261.493 24.04C261.493 24.7333 261.253 25.32 260.773 25.8C260.319 26.28 259.759 26.52 259.093 26.52ZM260.853 30.08V52H257.213V30.08H260.853ZM270.697 22.4V52H267.057V22.4H270.697ZM278.78 26.52C278.087 26.52 277.5 26.28 277.02 25.8C276.54 25.32 276.3 24.7333 276.3 24.04C276.3 23.3467 276.54 22.76 277.02 22.28C277.5 21.8 278.087 21.56 278.78 21.56C279.447 21.56 280.007 21.8 280.46 22.28C280.94 22.76 281.18 23.3467 281.18 24.04C281.18 24.7333 280.94 25.32 280.46 25.8C280.007 26.28 279.447 26.52 278.78 26.52ZM280.54 30.08V52H276.9V30.08H280.54ZM285.384 40.96C285.384 38.72 285.837 36.76 286.744 35.08C287.651 33.3733 288.891 32.0533 290.464 31.12C292.064 30.1867 293.851 29.72 295.824 29.72C297.531 29.72 299.117 30.12 300.584 30.92C302.051 31.6933 303.171 32.72 303.944 34V22.4H307.624V52H303.944V47.88C303.224 49.1867 302.157 50.2667 300.744 51.12C299.331 51.9467 297.677 52.36 295.784 52.36C293.837 52.36 292.064 51.88 290.464 50.92C288.891 49.96 287.651 48.6133 286.744 46.88C285.837 45.1467 285.384 43.1733 285.384 40.96ZM303.944 41C303.944 39.3467 303.611 37.9067 302.944 36.68C302.277 35.4533 301.371 34.52 300.224 33.88C299.104 33.2133 297.864 32.88 296.504 32.88C295.144 32.88 293.904 33.2 292.784 33.84C291.664 34.48 290.771 35.4133 290.104 36.64C289.437 37.8667 289.104 39.3067 289.104 40.96C289.104 42.64 289.437 44.1067 290.104 45.36C290.771 46.5867 291.664 47.5333 292.784 48.2C293.904 48.84 295.144 49.16 296.504 49.16C297.864 49.16 299.104 48.84 300.224 48.2C301.371 47.5333 302.277 46.5867 302.944 45.36C303.611 44.1067 303.944 42.6533 303.944 41ZM312.415 40.96C312.415 38.72 312.869 36.76 313.775 35.08C314.682 33.3733 315.922 32.0533 317.495 31.12C319.095 30.1867 320.869 29.72 322.815 29.72C324.735 29.72 326.402 30.1333 327.815 30.96C329.229 31.7867 330.282 32.8267 330.975 34.08V30.08H334.655V52H330.975V47.92C330.255 49.2 329.175 50.2667 327.735 51.12C326.322 51.9467 324.669 52.36 322.775 52.36C320.829 52.36 319.069 51.88 317.495 50.92C315.922 49.96 314.682 48.6133 313.775 46.88C312.869 45.1467 312.415 43.1733 312.415 40.96ZM330.975 41C330.975 39.3467 330.642 37.9067 329.975 36.68C329.309 35.4533 328.402 34.52 327.255 33.88C326.135 33.2133 324.895 32.88 323.535 32.88C322.175 32.88 320.935 33.2 319.815 33.84C318.695 34.48 317.802 35.4133 317.135 36.64C316.469 37.8667 316.135 39.3067 316.135 40.96C316.135 42.64 316.469 44.1067 317.135 45.36C317.802 46.5867 318.695 47.5333 319.815 48.2C320.935 48.84 322.175 49.16 323.535 49.16C324.895 49.16 326.135 48.84 327.255 48.2C328.402 47.5333 329.309 46.5867 329.975 45.36C330.642 44.1067 330.975 42.6533 330.975 41ZM339.447 40.96C339.447 38.72 339.9 36.76 340.807 35.08C341.713 33.3733 342.953 32.0533 344.527 31.12C346.127 30.1867 347.913 29.72 349.887 29.72C351.593 29.72 353.18 30.12 354.647 30.92C356.113 31.6933 357.233 32.72 358.007 34V22.4H361.687V52H358.007V47.88C357.287 49.1867 356.22 50.2667 354.807 51.12C353.393 51.9467 351.74 52.36 349.847 52.36C347.9 52.36 346.127 51.88 344.527 50.92C342.953 49.96 341.713 48.6133 340.807 46.88C339.9 45.1467 339.447 43.1733 339.447 40.96ZM358.007 41C358.007 39.3467 357.673 37.9067 357.007 36.68C356.34 35.4533 355.433 34.52 354.287 33.88C353.167 33.2133 351.927 32.88 350.567 32.88C349.207 32.88 347.967 33.2 346.847 33.84C345.727 34.48 344.833 35.4133 344.167 36.64C343.5 37.8667 343.167 39.3067 343.167 40.96C343.167 42.64 343.5 44.1067 344.167 45.36C344.833 46.5867 345.727 47.5333 346.847 48.2C347.967 48.84 349.207 49.16 350.567 49.16C351.927 49.16 353.167 48.84 354.287 48.2C355.433 47.5333 356.34 46.5867 357.007 45.36C357.673 44.1067 358.007 42.6533 358.007 41ZM387.838 40.2C387.838 40.8933 387.798 41.6267 387.718 42.4H370.198C370.331 44.56 371.064 46.2533 372.398 47.48C373.758 48.68 375.398 49.28 377.318 49.28C378.891 49.28 380.198 48.92 381.238 48.2C382.304 47.4533 383.051 46.4667 383.478 45.24H387.398C386.811 47.3467 385.638 49.0667 383.878 50.4C382.118 51.7067 379.931 52.36 377.318 52.36C375.238 52.36 373.371 51.8933 371.718 50.96C370.091 50.0267 368.811 48.7067 367.878 47C366.944 45.2667 366.478 43.2667 366.478 41C366.478 38.7333 366.931 36.7467 367.838 35.04C368.744 33.3333 370.011 32.0267 371.638 31.12C373.291 30.1867 375.184 29.72 377.318 29.72C379.398 29.72 381.238 30.1733 382.838 31.08C384.438 31.9867 385.664 33.24 386.518 34.84C387.398 36.4133 387.838 38.2 387.838 40.2ZM384.078 39.44C384.078 38.0533 383.771 36.8667 383.158 35.88C382.544 34.8667 381.704 34.1067 380.638 33.6C379.598 33.0667 378.438 32.8 377.158 32.8C375.318 32.8 373.744 33.3867 372.438 34.56C371.158 35.7333 370.424 37.36 370.238 39.44H384.078Z" fill="white"/>
<path d="M29.5703 51.0391H41.237" stroke="#EDEEFF" stroke-width="4.9375" stroke-linecap="round" stroke-linejoin="round"/>
<path d="M6.24219 51.0391V21.8724C6.24219 10.2057 9.15885 7.28906 20.8255 7.28906" stroke="#EDEEFF" stroke-width="4.9375" stroke-linecap="round" stroke-linejoin="round"/>
<path d="M64.5755 51.0391V21.8724C64.5755 10.2057 61.6589 7.28906 49.9922 7.28906" stroke="#EDEEFF" stroke-width="4.9375" stroke-linecap="round" stroke-linejoin="round"/>
<path d="M29.5755 46.401V55.9969C29.5755 61.8302 27.2422 64.1635 21.4089 64.1635H14.4089C8.57552 64.1635 6.24219 61.8302 6.24219 55.9969V46.401C6.24219 40.5677 8.57552 38.2344 14.4089 38.2344H21.4089C27.2422 38.2344 29.5755 40.5677 29.5755 46.401Z" stroke="#EDEEFF" stroke-width="4.9375" stroke-linecap="round" stroke-linejoin="round"/>
<path d="M64.5755 46.401V55.9969C64.5755 61.8302 62.2422 64.1635 56.4089 64.1635H49.4089C43.5755 64.1635 41.2422 61.8302 41.2422 55.9969V46.401C41.2422 40.5677 43.5755 38.2344 49.4089 38.2344H56.4089C62.2422 38.2344 64.5755 40.5677 64.5755 46.401Z" stroke="#EDEEFF" stroke-width="4.9375" stroke-linecap="round" stroke-linejoin="round"/>
</svg>
