<svg width="164" height="64" viewBox="0 0 164 64" fill="none" xmlns="http://www.w3.org/2000/svg">
<path d="M38.4062 15.0038V8.79745C38.4062 7.85723 38.234 6.92724 37.9005 6.06626C37.5671 5.20528 37.0796 4.43204 36.4689 3.79541C35.8582 3.15877 35.1376 2.6726 34.3526 2.3676C33.5676 2.0626 32.7353 1.94542 31.9082 2.02346L7.90825 4.28712C6.4084 4.42865 5.01028 5.20363 3.99115 6.45837C2.97202 7.71311 2.40632 9.35596 2.40625 11.0611V52.9355C2.40632 54.6406 2.97202 56.2835 3.99115 57.5382C5.01028 58.793 6.4084 59.568 7.90825 59.7095L31.9082 61.9765C32.7355 62.0546 33.5681 61.9373 34.3533 61.6321C35.1385 61.3269 35.8593 60.8404 36.47 60.2034C37.0807 59.5664 37.5682 58.7928 37.9015 57.9314C38.2347 57.07 38.4066 56.1397 38.4062 55.1992V48.9928M35.4062 31.9983H62.4062H35.4062ZM62.4062 31.9983L52.4072 18.4027L62.4062 31.9983ZM62.4062 31.9983L52.4072 45.5939L62.4062 31.9983Z" stroke="white" stroke-width="3" stroke-linecap="round" stroke-linejoin="round"/>
<path d="M94.3263 46.28C92.4863 46.28 90.8329 45.96 89.3663 45.32C87.9263 44.6533 86.7929 43.7467 85.9663 42.6C85.1396 41.4267 84.7129 40.08 84.6863 38.56H88.5663C88.6996 39.8667 89.2329 40.9733 90.1663 41.88C91.1263 42.76 92.5129 43.2 94.3263 43.2C96.0596 43.2 97.4196 42.7733 98.4063 41.92C99.4196 41.04 99.9263 39.92 99.9263 38.56C99.9263 37.4933 99.6329 36.6267 99.0463 35.96C98.4596 35.2933 97.7263 34.7867 96.8463 34.44C95.9663 34.0933 94.7796 33.72 93.2863 33.32C91.4463 32.84 89.9663 32.36 88.8463 31.88C87.7529 31.4 86.8063 30.6533 86.0063 29.64C85.2329 28.6 84.8463 27.2133 84.8463 25.48C84.8463 23.96 85.2329 22.6133 86.0063 21.44C86.7796 20.2667 87.8596 19.36 89.2463 18.72C90.6596 18.08 92.2729 17.76 94.0863 17.76C96.6996 17.76 98.8329 18.4133 100.486 19.72C102.166 21.0267 103.113 22.76 103.326 24.92H99.3263C99.1929 23.8533 98.6329 22.92 97.6463 22.12C96.6596 21.2933 95.3529 20.88 93.7263 20.88C92.2063 20.88 90.9663 21.28 90.0063 22.08C89.0463 22.8533 88.5663 23.9467 88.5663 25.36C88.5663 26.3733 88.8463 27.2 89.4063 27.84C89.9929 28.48 90.6996 28.9733 91.5263 29.32C92.3796 29.64 93.5663 30.0133 95.0863 30.44C96.9263 30.9467 98.4063 31.4533 99.5263 31.96C100.646 32.44 101.606 33.2 102.406 34.24C103.206 35.2533 103.606 36.64 103.606 38.4C103.606 39.76 103.246 41.04 102.526 42.24C101.806 43.44 100.74 44.4133 99.3263 45.16C97.9129 45.9067 96.2463 46.28 94.3263 46.28ZM107.603 34.96C107.603 32.72 108.056 30.76 108.963 29.08C109.869 27.3733 111.109 26.0533 112.683 25.12C114.283 24.1867 116.056 23.72 118.003 23.72C119.923 23.72 121.589 24.1333 123.003 24.96C124.416 25.7867 125.469 26.8267 126.163 28.08V24.08H129.843V46H126.163V41.92C125.443 43.2 124.363 44.2667 122.923 45.12C121.509 45.9467 119.856 46.36 117.963 46.36C116.016 46.36 114.256 45.88 112.683 44.92C111.109 43.96 109.869 42.6133 108.963 40.88C108.056 39.1467 107.603 37.1733 107.603 34.96ZM126.163 35C126.163 33.3467 125.829 31.9067 125.163 30.68C124.496 29.4533 123.589 28.52 122.443 27.88C121.323 27.2133 120.083 26.88 118.723 26.88C117.363 26.88 116.123 27.2 115.003 27.84C113.883 28.48 112.989 29.4133 112.323 30.64C111.656 31.8667 111.323 33.3067 111.323 34.96C111.323 36.64 111.656 38.1067 112.323 39.36C112.989 40.5867 113.883 41.5333 115.003 42.2C116.123 42.84 117.363 43.16 118.723 43.16C120.083 43.16 121.323 42.84 122.443 42.2C123.589 41.5333 124.496 40.5867 125.163 39.36C125.829 38.1067 126.163 36.6533 126.163 35ZM137.874 20.52C137.181 20.52 136.594 20.28 136.114 19.8C135.634 19.32 135.394 18.7333 135.394 18.04C135.394 17.3467 135.634 16.76 136.114 16.28C136.594 15.8 137.181 15.56 137.874 15.56C138.541 15.56 139.101 15.8 139.554 16.28C140.034 16.76 140.274 17.3467 140.274 18.04C140.274 18.7333 140.034 19.32 139.554 19.8C139.101 20.28 138.541 20.52 137.874 20.52ZM139.634 24.08V46H135.994V24.08H139.634ZM149.478 27.64C150.118 26.3867 151.024 25.4133 152.198 24.72C153.398 24.0267 154.851 23.68 156.558 23.68V27.44H155.598C151.518 27.44 149.478 29.6533 149.478 34.08V46H145.838V24.08H149.478V27.64Z" fill="white"/>
</svg>
