<svg width="150" height="50" viewBox="0 0 292 70" fill="none" xmlns="http://www.w3.org/2000/svg">
<path d="M15.4922 29.1693H21.3255C27.1589 29.1693 30.0755 26.2526 30.0755 20.4193V14.5859C30.0755 8.7526 27.1589 5.83594 21.3255 5.83594H15.4922C9.65885 5.83594 6.74219 8.7526 6.74219 14.5859V20.4193C6.74219 26.2526 9.65885 29.1693 15.4922 29.1693Z" stroke="#EDEEFF" stroke-width="4.875" stroke-miterlimit="10" stroke-linecap="round" stroke-linejoin="round"/>
<path d="M50.4844 29.1693H56.3177C62.151 29.1693 65.0677 26.2526 65.0677 20.4193V14.5859C65.0677 8.7526 62.151 5.83594 56.3177 5.83594H50.4844C44.651 5.83594 41.7344 8.7526 41.7344 14.5859V20.4193C41.7344 26.2526 44.651 29.1693 50.4844 29.1693Z" stroke="#EDEEFF" stroke-width="4.875" stroke-miterlimit="10" stroke-linecap="round" stroke-linejoin="round"/>
<path d="M50.4844 64.1693H56.3177C62.151 64.1693 65.0677 61.2526 65.0677 55.4193V49.5859C65.0677 43.7526 62.151 40.8359 56.3177 40.8359H50.4844C44.651 40.8359 41.7344 43.7526 41.7344 49.5859V55.4193C41.7344 61.2526 44.651 64.1693 50.4844 64.1693Z" stroke="#EDEEFF" stroke-width="4.875" stroke-miterlimit="10" stroke-linecap="round" stroke-linejoin="round"/>
<path d="M15.4922 64.1693H21.3255C27.1589 64.1693 30.0755 61.2526 30.0755 55.4193V49.5859C30.0755 43.7526 27.1589 40.8359 21.3255 40.8359H15.4922C9.65885 40.8359 6.74219 43.7526 6.74219 49.5859V55.4193C6.74219 61.2526 9.65885 64.1693 15.4922 64.1693Z" stroke="#EDEEFF" stroke-width="4.875" stroke-miterlimit="10" stroke-linecap="round" stroke-linejoin="round"/>
<path d="M131.266 25.32V53H127.626V32.36L118.426 53H115.866L106.626 32.32V53H102.986V25.32H106.906L117.146 48.2L127.386 25.32H131.266ZM157.439 41.2C157.439 41.8933 157.399 42.6267 157.319 43.4H139.799C139.933 45.56 140.666 47.2533 141.999 48.48C143.359 49.68 144.999 50.28 146.919 50.28C148.493 50.28 149.799 49.92 150.839 49.2C151.906 48.4533 152.653 47.4667 153.079 46.24H156.999C156.413 48.3467 155.239 50.0667 153.479 51.4C151.719 52.7067 149.533 53.36 146.919 53.36C144.839 53.36 142.973 52.8933 141.319 51.96C139.693 51.0267 138.413 49.7067 137.479 48C136.546 46.2667 136.079 44.2667 136.079 42C136.079 39.7333 136.533 37.7467 137.439 36.04C138.346 34.3333 139.613 33.0267 141.239 32.12C142.893 31.1867 144.786 30.72 146.919 30.72C148.999 30.72 150.839 31.1733 152.439 32.08C154.039 32.9867 155.266 34.24 156.119 35.84C156.999 37.4133 157.439 39.2 157.439 41.2ZM153.679 40.44C153.679 39.0533 153.373 37.8667 152.759 36.88C152.146 35.8667 151.306 35.1067 150.239 34.6C149.199 34.0667 148.039 33.8 146.759 33.8C144.919 33.8 143.346 34.3867 142.039 35.56C140.759 36.7333 140.026 38.36 139.839 40.44H153.679ZM181.684 31.08V53H178.044V49.76C177.351 50.88 176.377 51.76 175.124 52.4C173.897 53.0133 172.537 53.32 171.044 53.32C169.337 53.32 167.804 52.9733 166.444 52.28C165.084 51.56 164.004 50.4933 163.204 49.08C162.431 47.6667 162.044 45.9467 162.044 43.92V31.08H165.644V43.44C165.644 45.6 166.191 47.2667 167.284 48.44C168.377 49.5867 169.871 50.16 171.764 50.16C173.711 50.16 175.244 49.56 176.364 48.36C177.484 47.16 178.044 45.4133 178.044 43.12V31.08H181.684ZM217.134 33.28C217.134 35.6 216.334 37.5333 214.734 39.08C213.161 40.6 210.747 41.36 207.494 41.36H202.134V53H198.494V25.12H207.494C210.641 25.12 213.027 25.88 214.654 27.4C216.307 28.92 217.134 30.88 217.134 33.28ZM207.494 38.36C209.521 38.36 211.014 37.92 211.974 37.04C212.934 36.16 213.414 34.9067 213.414 33.28C213.414 29.84 211.441 28.12 207.494 28.12H202.134V38.36H207.494ZM241.658 41.2C241.658 41.8933 241.618 42.6267 241.538 43.4H224.018C224.151 45.56 224.885 47.2533 226.218 48.48C227.578 49.68 229.218 50.28 231.138 50.28C232.711 50.28 234.018 49.92 235.058 49.2C236.125 48.4533 236.871 47.4667 237.298 46.24H241.218C240.631 48.3467 239.458 50.0667 237.698 51.4C235.938 52.7067 233.751 53.36 231.138 53.36C229.058 53.36 227.191 52.8933 225.538 51.96C223.911 51.0267 222.631 49.7067 221.698 48C220.765 46.2667 220.298 44.2667 220.298 42C220.298 39.7333 220.751 37.7467 221.658 36.04C222.565 34.3333 223.831 33.0267 225.458 32.12C227.111 31.1867 229.005 30.72 231.138 30.72C233.218 30.72 235.058 31.1733 236.658 32.08C238.258 32.9867 239.485 34.24 240.338 35.84C241.218 37.4133 241.658 39.2 241.658 41.2ZM237.898 40.44C237.898 39.0533 237.591 37.8667 236.978 36.88C236.365 35.8667 235.525 35.1067 234.458 34.6C233.418 34.0667 232.258 33.8 230.978 33.8C229.138 33.8 227.565 34.3867 226.258 35.56C224.978 36.7333 224.245 38.36 224.058 40.44H237.898ZM250.103 34.64C250.743 33.3867 251.649 32.4133 252.823 31.72C254.023 31.0267 255.476 30.68 257.183 30.68V34.44H256.223C252.143 34.44 250.103 36.6533 250.103 41.08V53H246.463V31.08H250.103V34.64ZM270.305 34.08H265.705V53H262.065V34.08H259.225V31.08H262.065V29.52C262.065 27.0667 262.691 25.28 263.945 24.16C265.225 23.0133 267.265 22.44 270.065 22.44V25.48C268.465 25.48 267.331 25.8 266.665 26.44C266.025 27.0533 265.705 28.08 265.705 29.52V31.08H270.305V34.08ZM276.429 27.52C275.735 27.52 275.149 27.28 274.669 26.8C274.189 26.32 273.949 25.7333 273.949 25.04C273.949 24.3467 274.189 23.76 274.669 23.28C275.149 22.8 275.735 22.56 276.429 22.56C277.095 22.56 277.655 22.8 278.109 23.28C278.589 23.76 278.829 24.3467 278.829 25.04C278.829 25.7333 278.589 26.32 278.109 26.8C277.655 27.28 277.095 27.52 276.429 27.52ZM278.189 31.08V53H274.549V31.08H278.189ZM288.033 23.4V53H284.393V23.4H288.033Z" fill="white"/>
</svg>
