<svg width="96" height="96" viewBox="0 0 96 96" fill="none" xmlns="http://www.w3.org/2000/svg">
<path d="M33.845 45.1504L56.485 22.5504C56.8568 22.1755 57.2992 21.8779 57.7866 21.6748C58.2741 21.4717 58.7969 21.3672 59.325 21.3672C59.853 21.3672 60.3758 21.4717 60.8633 21.6748C61.3507 21.8779 61.7931 22.1755 62.165 22.5504C62.91 23.2998 63.3281 24.3136 63.3281 25.3704C63.3281 26.4271 62.91 27.4409 62.165 28.1904L42.365 48.1904L62.165 67.9904C62.91 68.7398 63.3281 69.7536 63.3281 70.8104C63.3281 71.8671 62.91 72.8809 62.165 73.6304C61.7945 74.0083 61.3527 74.309 60.8652 74.515C60.3777 74.721 59.8542 74.8282 59.325 74.8304C58.7957 74.8282 58.2722 74.721 57.7847 74.515C57.2972 74.309 56.8554 74.0083 56.485 73.6304L33.845 51.0304C33.4389 50.6558 33.1149 50.2012 32.8933 49.6952C32.6716 49.1892 32.5572 48.6428 32.5572 48.0904C32.5572 47.538 32.6716 46.9916 32.8933 46.4856C33.1149 45.9796 33.4389 45.5249 33.845 45.1504V45.1504Z" fill="#F9F9F9"/>
</svg>
