<svg width="96" height="96" viewBox="0 0 96 96" fill="none" xmlns="http://www.w3.org/2000/svg">
<path d="M62.1707 45.1582L39.5307 22.5582C39.1588 22.1833 38.7164 21.8857 38.229 21.6826C37.7415 21.4796 37.2187 21.375 36.6907 21.375C36.1626 21.375 35.6398 21.4796 35.1524 21.6826C34.6649 21.8857 34.2225 22.1833 33.8507 22.5582C33.1057 23.3076 32.6875 24.3214 32.6875 25.3782C32.6875 26.4349 33.1057 27.4487 33.8507 28.1982L53.6507 48.1982L33.8507 67.9982C33.1057 68.7476 32.6875 69.7614 32.6875 70.8182C32.6875 71.8749 33.1057 72.8887 33.8507 73.6382C34.2211 74.0161 34.6629 74.3168 35.1504 74.5228C35.6379 74.7288 36.1614 74.836 36.6907 74.8382C37.2199 74.836 37.7434 74.7288 38.2309 74.5228C38.7184 74.3168 39.1602 74.0161 39.5307 73.6382L62.1707 51.0382C62.5767 50.6636 62.9007 50.209 63.1224 49.703C63.344 49.197 63.4584 48.6506 63.4584 48.0982C63.4584 47.5458 63.344 46.9994 63.1224 46.4934C62.9007 45.9874 62.5767 45.5328 62.1707 45.1582V45.1582Z" fill="#F9F9F9"/>
</svg>
