<svg width="50" height="50" viewBox="0 0 100 100" fill="none" xmlns="http://www.w3.org/2000/svg">
<path d="M64.9582 7.29688C52.5832 7.29688 42.5415 17.3385 42.5415 29.7135C42.5415 42.0885 52.5832 52.1302 64.9582 52.1302C77.3332 52.1302 87.3748 42.0885 87.3748 29.7135C87.3748 17.3385 77.3332 7.29688 64.9582 7.29688Z" fill="#181717"/>
<path d="M26.5002 54.2891C18.8752 54.2891 12.6252 60.4974 12.6252 68.1641C12.6252 75.8307 18.8336 82.0391 26.5002 82.0391C34.1252 82.0391 40.3752 75.8307 40.3752 68.1641C40.3752 60.4974 34.1252 54.2891 26.5002 54.2891Z" fill="#181717"/>
<path d="M69.2498 69.2461C62.7915 69.2461 57.5415 74.4961 57.5415 80.9544C57.5415 87.4128 62.7915 92.6628 69.2498 92.6628C75.7082 92.6628 80.9582 87.4128 80.9582 80.9544C80.9582 74.4961 75.7082 69.2461 69.2498 69.2461Z" fill="#181717"/>
</svg>
