<svg width="88" height="86" viewBox="0 0 88 86" fill="none" xmlns="http://www.w3.org/2000/svg">
<path d="M83.6002 0H4.39977C1.97 0 0 1.92497 0 4.29979V81.7002C0 84.075 1.97 86 4.39977 86H83.6002C86.03 86 88 84.075 88 81.7002V4.29979C88 1.92497 86.03 0 83.6002 0ZM74.3374 25.1075L67.3054 25.1109C61.7915 25.1109 60.7238 27.6715 60.7238 31.4291V39.715H73.8747L72.1622 52.6936H60.7243V85.9955H47.0096V52.6936H35.5424V39.715H47.0096V30.1437C46.1285 21.5501 52.5429 13.8856 61.3363 13.0248C62.2517 12.9351 63.1731 12.9228 64.0905 12.9878C67.513 12.976 70.9339 13.1469 74.3374 13.4996V25.1075Z" fill="#6563FF"/>
</svg>
