<svg width="148" height="150" viewBox="0 0 148 150" fill="none" xmlns="http://www.w3.org/2000/svg">
<g filter="url(#filter0_dd_753_3327)">
<path d="M74.7991 53.4183C79.7766 53.3326 84.5865 55.258 88.1859 58.777L98.23 48.4994C91.8914 42.4077 83.4945 39.063 74.7991 39.1664C61.5587 39.1612 49.4483 46.8006 43.5049 58.9073L55.2044 68.1914C57.9632 59.4762 65.847 53.5323 74.7991 53.4183Z" fill="#8382FF"/>
<path d="M43.505 58.9062C38.5387 69.0327 38.5387 80.9646 43.505 91.0911L55.2044 81.807C53.7402 77.3918 53.7402 72.6056 55.2044 68.1904L43.505 58.9062Z" fill="#6563FF"/>
<path d="M86.6578 93.1614C76.8385 99.6107 63.769 96.6936 57.4662 86.6459C56.519 85.1358 55.7591 83.5109 55.2043 81.8086L43.5049 91.0926C49.4482 103.199 61.5586 110.839 74.7991 110.834C83.3238 111.07 91.6145 107.965 97.9752 102.152L86.6578 93.1614Z" fill="#A2A1FF"/>
<path d="M107.781 68.4844H74.7998V82.3453H93.6462C92.8583 86.7757 90.3337 90.6833 86.6584 93.1605C86.6473 93.1679 86.6358 93.1734 86.6247 93.1806C86.6358 93.1734 86.6473 93.1679 86.6584 93.1607L97.9757 102.152L97.9759 102.151C104.946 95.2824 108.741 85.7104 108.418 75.814C108.42 73.3561 108.207 70.9033 107.781 68.4844Z" fill="#C1C0FF"/>
</g>
<defs>
<filter id="filter0_dd_753_3327" x="-7.13044" y="-7.13044" width="162.307" height="164.261" filterUnits="userSpaceOnUse" color-interpolation-filters="sRGB">
<feFlood flood-opacity="0" result="BackgroundImageFix"/>
<feColorMatrix in="SourceAlpha" type="matrix" values="0 0 0 0 0 0 0 0 0 0 0 0 0 0 0 0 0 0 127 0" result="hardAlpha"/>
<feOffset dx="-13.0435" dy="-13.0435"/>
<feGaussianBlur stdDeviation="13.0435"/>
<feComposite in2="hardAlpha" operator="out"/>
<feColorMatrix type="matrix" values="0 0 0 0 1 0 0 0 0 1 0 0 0 0 1 0 0 0 0.25 0"/>
<feBlend mode="overlay" in2="BackgroundImageFix" result="effect1_dropShadow_753_3327"/>
<feColorMatrix in="SourceAlpha" type="matrix" values="0 0 0 0 0 0 0 0 0 0 0 0 0 0 0 0 0 0 127 0" result="hardAlpha"/>
<feOffset dx="13.0435" dy="13.0435"/>
<feGaussianBlur stdDeviation="13.0435"/>
<feComposite in2="hardAlpha" operator="out"/>
<feColorMatrix type="matrix" values="0 0 0 0 0 0 0 0 0 0 0 0 0 0 0 0 0 0 0.25 0"/>
<feBlend mode="overlay" in2="effect1_dropShadow_753_3327" result="effect2_dropShadow_753_3327"/>
<feBlend mode="normal" in="SourceGraphic" in2="effect2_dropShadow_753_3327" result="shape"/>
</filter>
</defs>
</svg>
