<svg width="134" height="132" viewBox="0 0 134 132" fill="none" xmlns="http://www.w3.org/2000/svg">
<g filter="url(#filter0_dd_753_3333)">
<path d="M52.6558 57.7969H41.6484V90.158H52.6558V57.7969Z" fill="#A2A1FF"/>
<path d="M47.1527 53.3785H47.0804C43.9178 53.5649 41.1994 51.2105 41.0086 48.1197C40.8179 45.029 43.2271 42.3723 46.3897 42.1859C46.6683 42.1695 46.9477 42.173 47.2257 42.1963C50.387 41.9726 53.1353 44.2956 53.3643 47.385C53.5933 50.4745 51.2162 53.1604 48.0549 53.3841C47.7545 53.4054 47.4528 53.4035 47.1527 53.3785ZM92.3426 90.1576H81.3371V72.8472C81.3371 68.4962 79.7434 65.529 75.7616 65.529C73.2178 65.5435 70.9575 67.1181 70.1139 69.4635C69.832 70.3097 69.7092 71.1987 69.7514 72.0876V90.1576H58.7458C58.7458 90.148 58.8901 60.8326 58.7469 57.7971H69.7525V62.3838C71.7807 58.934 75.6043 56.8733 79.672 57.0379C86.9134 57.0379 92.3426 61.6632 92.3426 71.6028V90.1576Z" fill="#A2A1FF"/>
<path d="M98.0502 30.1684H35.9505C33.0132 30.1338 30.6025 32.4316 30.5645 35.3021V96.703C30.6027 99.5734 33.0134 101.87 35.9505 101.835H98.0502C100.988 101.871 103.399 99.5729 103.436 96.7022V35.3021C103.399 32.4313 100.988 30.1334 98.0502 30.1684ZM52.6564 90.1605H41.649V57.7994H52.6564V90.1605ZM48.0556 53.3868C47.7551 53.408 47.4534 53.4062 47.1533 53.3813H47.081C43.9183 53.5676 41.1999 51.2132 41.0092 48.1224C40.8185 45.0316 43.2277 42.375 46.3904 42.1887C46.6688 42.1722 46.9483 42.1758 47.2263 42.1989C50.3876 41.9752 53.1358 44.2983 53.365 47.3878C53.5939 50.477 51.2167 53.163 48.0556 53.3868ZM92.3432 90.1603H81.3376V72.8499C81.3376 68.4989 79.7439 65.5317 75.7622 65.5317C73.2183 65.5461 70.958 67.1208 70.1145 69.4662C69.8327 70.3125 69.7099 71.2013 69.7519 72.0903V90.1603H58.7463C58.7463 90.1507 58.8907 60.8353 58.7475 57.7999H69.7531V62.3864C71.7813 58.9367 75.6049 56.8761 79.6726 57.0405C86.9139 57.0405 92.3432 61.6658 92.3432 71.6055V90.1603H92.3432Z" fill="#6563FF"/>
</g>
<defs>
<filter id="filter0_dd_753_3333" x="-7" y="-7" width="148" height="146" filterUnits="userSpaceOnUse" color-interpolation-filters="sRGB">
<feFlood flood-opacity="0" result="BackgroundImageFix"/>
<feColorMatrix in="SourceAlpha" type="matrix" values="0 0 0 0 0 0 0 0 0 0 0 0 0 0 0 0 0 0 127 0" result="hardAlpha"/>
<feOffset dx="-10" dy="-10"/>
<feGaussianBlur stdDeviation="10"/>
<feComposite in2="hardAlpha" operator="out"/>
<feColorMatrix type="matrix" values="0 0 0 0 1 0 0 0 0 1 0 0 0 0 1 0 0 0 0.25 0"/>
<feBlend mode="overlay" in2="BackgroundImageFix" result="effect1_dropShadow_753_3333"/>
<feColorMatrix in="SourceAlpha" type="matrix" values="0 0 0 0 0 0 0 0 0 0 0 0 0 0 0 0 0 0 127 0" result="hardAlpha"/>
<feOffset dx="10" dy="10"/>
<feGaussianBlur stdDeviation="10"/>
<feComposite in2="hardAlpha" operator="out"/>
<feColorMatrix type="matrix" values="0 0 0 0 0 0 0 0 0 0 0 0 0 0 0 0 0 0 0.25 0"/>
<feBlend mode="overlay" in2="effect1_dropShadow_753_3333" result="effect2_dropShadow_753_3333"/>
<feBlend mode="normal" in="SourceGraphic" in2="effect2_dropShadow_753_3333" result="shape"/>
</filter>
</defs>
</svg>
