<svg width="167" height="167" viewBox="0 0 167 167" fill="none" xmlns="http://www.w3.org/2000/svg">
<g filter="url(#filter0_dd_756_3578)">
<path d="M121.75 41H45.2498C42.9028 41 41 42.9026 41 45.2498V121.75C41 124.097 42.9028 126 45.2498 126H121.75C124.097 126 126 124.097 126 121.75V45.2498C126 42.9026 124.097 41 121.75 41ZM112.803 65.8155L106.011 65.8189C100.685 65.8189 99.6536 68.3497 99.6536 72.0636V80.2532H112.356L110.702 93.0809H99.6541V125.996H86.407V93.0809H75.3307V80.2532H86.407V70.7932C85.556 62.2995 91.7517 54.7241 100.245 53.8734C101.13 53.7847 102.019 53.7725 102.906 53.8368C106.211 53.8251 109.516 53.994 112.803 54.3426V65.8155Z" fill="#6563FF"/>
</g>
<defs>
<filter id="filter0_dd_756_3578" x="0.700001" y="0.700001" width="165.6" height="165.6" filterUnits="userSpaceOnUse" color-interpolation-filters="sRGB">
<feFlood flood-opacity="0" result="BackgroundImageFix"/>
<feColorMatrix in="SourceAlpha" type="matrix" values="0 0 0 0 0 0 0 0 0 0 0 0 0 0 0 0 0 0 127 0" result="hardAlpha"/>
<feOffset dx="13.4" dy="13.4"/>
<feGaussianBlur stdDeviation="13.45"/>
<feComposite in2="hardAlpha" operator="out"/>
<feColorMatrix type="matrix" values="0 0 0 0 0 0 0 0 0 0 0 0 0 0 0 0 0 0 0.25 0"/>
<feBlend mode="normal" in2="BackgroundImageFix" result="effect1_dropShadow_756_3578"/>
<feColorMatrix in="SourceAlpha" type="matrix" values="0 0 0 0 0 0 0 0 0 0 0 0 0 0 0 0 0 0 127 0" result="hardAlpha"/>
<feOffset dx="-13.4" dy="-13.4"/>
<feGaussianBlur stdDeviation="13.45"/>
<feComposite in2="hardAlpha" operator="out"/>
<feColorMatrix type="matrix" values="0 0 0 0 0 0 0 0 0 0 0 0 0 0 0 0 0 0 0.25 0"/>
<feBlend mode="normal" in2="effect1_dropShadow_756_3578" result="effect2_dropShadow_756_3578"/>
<feBlend mode="normal" in="SourceGraphic" in2="effect2_dropShadow_756_3578" result="shape"/>
</filter>
</defs>
</svg>
