<svg width="167" height="167" viewBox="0 0 167 167" fill="none" xmlns="http://www.w3.org/2000/svg">
<g filter="url(#filter0_dd_1867_10028)">
<path d="M66.768 73.7695H53.9287V112.151H66.768V73.7695Z" fill="#A2A1FF"/>
<path d="M60.3489 68.529H60.2646C56.5756 68.7501 53.4048 65.9577 53.1823 62.2919C52.9598 58.6262 55.7699 55.4753 59.4589 55.2542C59.7839 55.2348 60.1098 55.2389 60.434 55.2665C64.1215 55.0012 67.3272 57.7564 67.5943 61.4205C67.8614 65.0847 65.0887 68.2703 61.4013 68.5357C61.0509 68.5609 60.699 68.5587 60.3489 68.529ZM113.06 112.15H100.223V91.6196C100.223 86.4591 98.3637 82.9399 93.7193 82.9399C90.7521 82.9571 88.1156 84.8246 87.1316 87.6064C86.8028 88.6099 86.6595 89.6643 86.7087 90.7186V112.15H73.8714C73.8714 112.139 74.0398 77.3698 73.8727 73.7696H86.71V79.2096C89.0757 75.118 93.5357 72.674 98.2804 72.8691C106.727 72.8691 113.06 78.3549 113.06 90.1436V112.15Z" fill="#A2A1FF"/>
<path d="M119.717 41.0005H47.2825C43.8563 40.9595 41.0444 43.6847 41 47.0893V119.913C41.0446 123.317 43.8566 126.042 47.2825 126H119.717C123.144 126.042 125.956 123.317 126 119.912V47.0893C125.956 43.6844 123.144 40.9589 119.717 41.0005ZM66.7687 112.153H53.9294V73.7719H66.7687V112.153ZM61.4022 68.5382C61.0517 68.5634 60.6998 68.5614 60.3497 68.5318H60.2654C56.5764 68.7528 53.4055 65.9604 53.1831 62.2946C52.9607 58.6288 55.7708 55.4779 59.4598 55.2569C59.7846 55.2375 60.1106 55.2416 60.4349 55.2691C64.1223 55.0038 67.3279 57.7591 67.5952 61.4233C67.8623 65.0872 65.0895 68.2729 61.4022 68.5382ZM113.061 112.153H100.223V91.6222C100.223 86.4618 98.3645 82.9425 93.72 82.9425C90.7527 82.9597 88.1162 84.8273 87.1324 87.6091C86.8037 88.6127 86.6604 89.6668 86.7095 90.7213V112.153H73.8722C73.8722 112.141 74.0406 77.3725 73.8736 73.7724H86.7108V79.2122C89.0767 75.1207 93.5366 72.6767 98.2813 72.8718C106.728 72.8718 113.061 78.3575 113.061 90.1463V112.153H113.061Z" fill="#6563FF"/>
</g>
<defs>
<filter id="filter0_dd_1867_10028" x="0.700001" y="0.700001" width="165.6" height="165.6" filterUnits="userSpaceOnUse" color-interpolation-filters="sRGB">
<feFlood flood-opacity="0" result="BackgroundImageFix"/>
<feColorMatrix in="SourceAlpha" type="matrix" values="0 0 0 0 0 0 0 0 0 0 0 0 0 0 0 0 0 0 127 0" result="hardAlpha"/>
<feOffset dx="13.4" dy="13.4"/>
<feGaussianBlur stdDeviation="13.45"/>
<feComposite in2="hardAlpha" operator="out"/>
<feColorMatrix type="matrix" values="0 0 0 0 0 0 0 0 0 0 0 0 0 0 0 0 0 0 0.25 0"/>
<feBlend mode="normal" in2="BackgroundImageFix" result="effect1_dropShadow_1867_10028"/>
<feColorMatrix in="SourceAlpha" type="matrix" values="0 0 0 0 0 0 0 0 0 0 0 0 0 0 0 0 0 0 127 0" result="hardAlpha"/>
<feOffset dx="-13.4" dy="-13.4"/>
<feGaussianBlur stdDeviation="13.45"/>
<feComposite in2="hardAlpha" operator="out"/>
<feColorMatrix type="matrix" values="0 0 0 0 0 0 0 0 0 0 0 0 0 0 0 0 0 0 0.25 0"/>
<feBlend mode="normal" in2="effect1_dropShadow_1867_10028" result="effect2_dropShadow_1867_10028"/>
<feBlend mode="normal" in="SourceGraphic" in2="effect2_dropShadow_1867_10028" result="shape"/>
</filter>
</defs>
</svg>
