<svg class="logo" width="25" height="25" viewBox="0 0 49 55" fill="none" xmlns="http://www.w3.org/2000/svg">
    <path d="M31.7794 4.01172C25.7252 4.01172 20.8125 9.53464 20.8125 16.3409C20.8125 23.1471 25.7252 28.6701 31.7794 28.6701C37.8337 28.6701 42.7463 23.1471 42.7463 16.3409C42.7463 9.53464 37.8337 4.01172 31.7794 4.01172Z" fill="white"/>
    <path d="M12.9648 29.8594C9.23445 29.8594 6.17676 33.274 6.17676 37.4906C6.17676 41.7073 9.21407 45.1219 12.9648 45.1219C16.6952 45.1219 19.7529 41.7073 19.7529 37.4906C19.7529 33.274 16.6952 29.8594 12.9648 29.8594Z" fill="white"/>
    <path d="M33.8794 38.0859C30.7198 38.0859 28.1514 40.9734 28.1514 44.5255C28.1514 48.0776 30.7198 50.9651 33.8794 50.9651C37.0391 50.9651 39.6075 48.0776 39.6075 44.5255C39.6075 40.9734 37.0391 38.0859 33.8794 38.0859Z" fill="white"/>
</svg>