<svg width="100" height="55" viewBox="0 0 155 108" fill="none" xmlns="http://www.w3.org/2000/svg">
<path d="M47.218 66.941C47.218 67.7085 47.3644 68.3907 47.5841 69.0729C47.8037 69.7552 48.3161 70.608 49.0482 71.4607C49.4874 71.9724 49.9999 72.6546 50.6587 73.3369C50.6587 73.3369 50.7319 73.3369 50.7319 73.2516V62.3359C49.8534 62.5065 49.0482 62.8476 48.5357 63.4446C47.6573 64.4679 47.218 65.5765 47.218 66.941Z" fill="#3D1A69"/>
<path d="M43.558 88.3472C43.0455 89.4558 42.7527 90.6497 42.7527 91.9289C42.7527 93.1228 43.0455 94.2314 43.7044 95.2548C44.3632 96.1928 45.2417 96.9604 46.413 97.5573C47.5843 98.069 48.9752 98.3248 50.5858 98.3248H50.659V86.4711L48.17 83.7422C47.4379 84.2539 46.779 84.6803 46.1934 85.1919C45.0221 86.2153 44.1436 87.2386 43.558 88.3472Z" fill="#3D1A69"/>
<path d="M0 4.7756V15.5207C0 18.1643 1.83017 20.2963 4.09957 20.2963H25.4026C27.672 20.2963 29.5022 22.4283 29.5022 25.0719V102.505C29.5022 105.148 31.3324 107.28 33.6018 107.28H50C46.7789 107.28 43.9239 106.683 41.4349 105.49C39.8975 104.722 38.5066 103.784 37.3353 102.675C33.8946 99.4348 32.5037 93.8064 33.7482 88.8603C33.9678 88.0075 34.2606 87.1547 34.6267 86.3872C35.5784 84.3405 37.1157 82.4644 39.2387 80.6735C40.3368 79.7355 41.5813 78.8827 42.9722 77.9446C42.1669 77.0066 41.4349 76.0685 40.9224 75.2157C40.044 73.8513 39.3851 72.4868 39.0191 71.2076C38.653 69.9284 38.4334 68.564 38.4334 67.1142C38.4334 64.6412 39.0191 62.4239 40.1172 60.5478C41.2152 58.6717 42.8258 57.1367 44.8756 56.1133C46.5593 55.2605 48.6091 54.8341 50.8053 54.6636V25.0719C50.8053 22.4283 52.6355 20.2963 54.9049 20.2963H76.2079C78.4773 20.2963 80.3075 18.1643 80.3075 15.5207V4.7756C80.3075 2.13197 78.4773 0 76.2079 0H4.02636C1.83016 0.0852786 0 2.21725 0 4.7756Z" fill="#3D1A69"/>
<path d="M72.9137 87.5835C73.719 85.0252 72.4745 82.211 70.2783 81.4435L66.252 79.9937C65.7395 82.9785 64.9342 85.5368 63.9826 87.9246L56.003 79.2262C57.1011 78.544 58.126 77.8618 58.9313 77.1795C60.9079 75.6445 62.2988 73.939 63.2505 72.1481C64.2022 70.3573 64.6414 68.3958 64.6414 66.2639C64.6414 63.7908 64.129 61.7441 63.0309 59.9533C61.9328 58.1624 60.4686 56.8832 58.6385 55.8599C56.8083 54.9218 54.5389 54.4102 52.0499 54.4102C51.6107 54.4102 51.1714 54.4954 50.7322 54.5807V62.4263C51.1714 62.3411 51.5375 62.1705 52.0499 62.1705C53.4408 62.1705 54.5389 62.5969 55.271 63.3644C56.0031 64.1319 56.3691 65.1553 56.3691 66.4344C56.3691 67.3725 56.0763 68.3106 55.5638 69.1633C55.0514 70.1014 54.0997 71.0395 52.7088 71.9775C52.1231 72.4039 51.4642 72.8303 50.7322 73.2567V84.3429C50.7322 85.6221 51.1714 86.9013 52.0499 87.8394L58.8581 95.1733C58.4921 95.5144 58.126 95.9408 57.6868 96.1967C55.5638 97.5611 53.2944 98.2433 50.7322 98.2433V107.112C54.5389 107.027 57.9796 106.004 61.0543 104.128C62.2988 103.36 63.4701 102.337 64.5682 101.313L69.9123 107.112L75.2564 99.8636L70.0587 94.2353C71.23 92.2738 72.1817 90.0566 72.9137 87.5835Z" fill="#3D1A69"/>
<path d="M134.773 83.7436C131.04 85.7903 127.013 86.8136 122.548 86.8136C118.375 86.8136 114.568 86.0461 111.127 84.4258C107.687 82.8908 104.685 80.5883 102.123 77.6035C99.5609 74.6188 97.5843 71.1223 96.1934 67.1142C94.8025 63.1061 94.0704 58.5864 94.0704 53.6402C94.0704 48.6941 94.8025 44.2596 96.1934 40.1662C97.5843 36.1581 99.5609 32.5764 102.123 29.6769C104.685 26.6922 107.687 24.475 111.127 22.8547C114.568 21.3196 118.448 20.4669 122.548 20.4669C126.94 20.4669 131.04 21.4902 134.773 23.5369C136.603 24.5602 138.36 25.7541 140.044 27.2891C143.265 30.1033 147.804 29.5917 150.732 26.4364L151.391 25.6689C155.344 21.4049 155.051 13.9857 150.732 10.2334C148.17 8.01618 145.388 6.22534 142.387 4.69032C136.164 1.62029 129.209 0 121.45 0C114.495 0 108.126 1.27918 102.27 3.92281C96.413 6.56645 91.2885 10.2334 86.9694 15.0943C82.577 19.9552 79.2095 25.5836 76.7937 32.15C74.3778 38.6312 73.2065 45.7946 73.2065 53.6402C73.2065 61.4006 74.3778 68.564 76.7937 75.1304C79.2095 81.6116 82.577 87.3253 86.8962 92.1861C91.2153 97.047 96.3398 100.714 102.196 103.358C108.053 106.001 114.495 107.28 121.303 107.28C129.063 107.28 136.091 105.66 142.313 102.505C145.315 100.97 148.097 99.0937 150.659 96.8765C154.978 93.1242 155.198 85.705 151.318 81.441L150.659 80.7588C147.658 77.6035 143.119 77.0066 139.898 79.906C138.36 81.5263 136.603 82.7202 134.773 83.7436Z" fill="#3D1A69"/>
<path d="M122.475 67.8843C115.74 67.8843 110.249 61.4884 110.249 53.6427C110.249 45.7971 115.74 39.4012 122.475 39.4012H141.435C137.409 31.982 130.308 27.1211 122.182 27.1211C109.59 27.1211 99.3413 39.0601 99.3413 53.728C99.3413 68.3959 109.59 80.3349 122.182 80.3349C130.234 80.3349 137.335 75.3888 141.435 68.0548H122.475V67.8843Z" fill="#3D1A69"/>
</svg>
