<svg width="282" height="127" viewBox="0 0 332 177" fill="none" xmlns="http://www.w3.org/2000/svg">
<path d="M135.102 143.156C135.102 143.8 135.239 144.372 135.444 144.945C135.649 145.517 136.128 146.232 136.812 146.948C137.222 147.377 137.701 147.949 138.316 148.522C138.316 148.522 138.384 148.522 138.384 148.45V139.293C137.564 139.436 136.812 139.722 136.333 140.223C135.513 141.081 135.102 142.012 135.102 143.156Z" fill="#280A4E"/>
<path d="M131.683 161.113C131.205 162.043 130.931 163.045 130.931 164.118C130.931 165.119 131.205 166.05 131.82 166.908C132.435 167.695 133.256 168.339 134.35 168.84C135.444 169.269 136.743 169.483 138.247 169.483H138.316V159.539L135.991 157.25C135.307 157.679 134.692 158.037 134.145 158.466C133.051 159.325 132.23 160.183 131.683 161.113Z" fill="#280A4E"/>
<path d="M91 91.0063V100.02C91 102.238 92.7094 104.027 94.829 104.027H114.726C116.846 104.027 118.555 105.815 118.555 108.033V172.992C118.555 175.21 120.265 176.998 122.384 176.998H137.7C134.692 176.998 132.025 176.497 129.701 175.496C128.265 174.852 126.966 174.065 125.872 173.135C122.658 170.417 121.359 165.695 122.521 161.545C122.726 160.83 123 160.115 123.342 159.471C124.231 157.754 125.666 156.18 127.649 154.678C128.675 153.891 129.837 153.175 131.136 152.388C130.384 151.601 129.701 150.814 129.222 150.099C128.401 148.954 127.786 147.81 127.444 146.737C127.102 145.663 126.897 144.519 126.897 143.303C126.897 141.228 127.444 139.368 128.47 137.794C129.495 136.22 131 134.932 132.914 134.074C134.487 133.358 136.401 133.001 138.453 132.858V108.033C138.453 105.815 140.162 104.027 142.282 104.027H162.179C164.299 104.027 166.008 102.238 166.008 100.02V91.0063C166.008 88.7885 164.299 87 162.179 87H94.7607C92.7094 87.0715 91 88.8601 91 91.0063Z" fill="#280A4E"/>
<path d="M138.384 176.93C138.111 176.93 137.906 177.001 137.632 177.001L138.384 176.93Z" fill="#4B4B4B"/>
<path d="M159.102 160.474C159.854 158.328 158.692 155.967 156.641 155.323L152.88 154.107C152.401 156.611 151.649 158.757 150.76 160.76L143.307 153.463C144.333 152.891 145.29 152.318 146.042 151.746C147.888 150.458 149.188 149.027 150.076 147.525C150.965 146.023 151.376 144.377 151.376 142.589C151.376 140.514 150.897 138.797 149.871 137.295C148.846 135.792 147.478 134.719 145.769 133.861C144.059 133.074 141.94 132.645 139.615 132.645C139.205 132.645 138.795 132.716 138.384 132.788V139.369C138.795 139.298 139.136 139.155 139.615 139.155C140.914 139.155 141.94 139.512 142.624 140.156C143.307 140.8 143.649 141.659 143.649 142.732C143.649 143.519 143.376 144.306 142.897 145.021C142.418 145.808 141.53 146.595 140.23 147.382C139.683 147.74 139.068 148.097 138.384 148.455V157.755C138.384 158.828 138.795 159.902 139.615 160.689L145.974 166.841C145.632 167.127 145.29 167.485 144.88 167.7C142.897 168.844 140.777 169.416 138.384 169.416V176.857C141.94 176.785 145.153 175.927 148.025 174.353C149.188 173.709 150.282 172.85 151.307 171.992L156.299 176.857L161.29 170.776L156.435 166.054C157.529 164.409 158.418 162.549 159.102 160.474Z" fill="#280A4E"/>
<path d="M216.879 157.253C213.392 158.97 209.632 159.828 205.461 159.828C201.563 159.828 198.008 159.185 194.794 157.825C191.58 156.538 188.777 154.606 186.384 152.102C183.991 149.598 182.145 146.665 180.845 143.303C179.546 139.94 178.863 136.149 178.863 131.999C178.863 127.85 179.546 124.13 180.845 120.696C182.145 117.333 183.991 114.329 186.384 111.896C188.777 109.392 191.58 107.532 194.794 106.173C198.008 104.885 201.632 104.17 205.461 104.17C209.563 104.17 213.392 105.028 216.879 106.745C218.589 107.604 220.23 108.605 221.802 109.893C224.811 112.254 229.05 111.825 231.785 109.178L232.401 108.534C236.093 104.957 235.819 98.7327 231.785 95.5849C229.392 93.7248 226.794 92.2225 223.99 90.9347C218.178 88.3593 211.683 87 204.435 87C197.939 87 191.991 88.0731 186.521 90.2909C181.051 92.5086 176.264 95.5849 172.23 99.6627C168.128 103.741 164.982 108.462 162.726 113.971C160.469 119.408 159.375 125.417 159.375 131.999C159.375 138.509 160.469 144.519 162.726 150.027C164.982 155.465 168.128 160.258 172.162 164.336C176.196 168.413 180.982 171.49 186.452 173.707C191.922 175.925 197.939 176.998 204.298 176.998C211.546 176.998 218.11 175.639 223.922 172.992C226.725 171.704 229.324 170.13 231.717 168.27C235.751 165.123 235.956 158.898 232.332 155.321L231.717 154.749C228.913 152.102 224.674 151.601 221.666 154.034C220.23 155.393 218.589 156.395 216.879 157.253Z" fill="#280A4E"/>
<path d="M205.392 143.954C199.102 143.954 193.974 138.589 193.974 132.007C193.974 125.425 199.102 120.06 205.392 120.06H223.102C219.341 113.836 212.708 109.758 205.119 109.758C193.358 109.758 183.786 119.774 183.786 132.079C183.786 144.384 193.358 154.399 205.119 154.399C212.64 154.399 219.273 150.25 223.102 144.097H205.392V143.954Z" fill="#280A4E"/>
<path d="M33.216 25.072V33.84H14.912V43.312H28.608V51.824H14.912V70H3.968V25.072H33.216ZM74.232 34.288V70H63.288V65.136C62.1787 66.7147 60.664 67.9947 58.744 68.976C56.8667 69.9147 54.776 70.384 52.472 70.384C49.7413 70.384 47.3307 69.7867 45.24 68.592C43.1493 67.3547 41.528 65.584 40.376 63.28C39.224 60.976 38.648 58.2667 38.648 55.152V34.288H49.528V53.68C49.528 56.0693 50.1467 57.9253 51.384 59.248C52.6213 60.5707 54.2853 61.232 56.376 61.232C58.5093 61.232 60.1947 60.5707 61.432 59.248C62.6693 57.9253 63.288 56.0693 63.288 53.68V34.288H74.232ZM103.853 33.904C108.034 33.904 111.362 35.2693 113.837 38C116.354 40.688 117.613 44.4 117.613 49.136V70H106.733V50.608C106.733 48.2187 106.114 46.3627 104.877 45.04C103.64 43.7173 101.976 43.056 99.885 43.056C97.7943 43.056 96.1303 43.7173 94.893 45.04C93.6557 46.3627 93.037 48.2187 93.037 50.608V70H82.093V34.288H93.037V39.024C94.1463 37.4453 95.6397 36.208 97.517 35.312C99.3943 34.3733 101.506 33.904 103.853 33.904ZM123.042 52.08C123.042 48.4107 123.725 45.1893 125.09 42.416C126.498 39.6427 128.397 37.5093 130.786 36.016C133.175 34.5227 135.842 33.776 138.786 33.776C141.133 33.776 143.266 34.2667 145.186 35.248C147.149 36.2293 148.685 37.552 149.794 39.216V22.64H160.738V70H149.794V64.88C148.77 66.5867 147.298 67.952 145.378 68.976C143.501 70 141.303 70.512 138.786 70.512C135.842 70.512 133.175 69.7653 130.786 68.272C128.397 66.736 126.498 64.5813 125.09 61.808C123.725 58.992 123.042 55.7493 123.042 52.08ZM149.794 52.144C149.794 49.4133 149.026 47.2587 147.49 45.68C145.997 44.1013 144.162 43.312 141.986 43.312C139.81 43.312 137.954 44.1013 136.418 45.68C134.925 47.216 134.178 49.3493 134.178 52.08C134.178 54.8107 134.925 56.9867 136.418 58.608C137.954 60.1867 139.81 60.976 141.986 60.976C144.162 60.976 145.997 60.1867 147.49 58.608C149.026 57.0293 149.794 54.8747 149.794 52.144ZM166.48 52.08C166.48 48.4107 167.162 45.1893 168.528 42.416C169.936 39.6427 171.834 37.5093 174.224 36.016C176.613 34.5227 179.28 33.776 182.224 33.776C184.741 33.776 186.938 34.288 188.816 35.312C190.736 36.336 192.208 37.68 193.232 39.344V34.288H204.176V70H193.232V64.944C192.165 66.608 190.672 67.952 188.752 68.976C186.874 70 184.677 70.512 182.16 70.512C179.258 70.512 176.613 69.7653 174.224 68.272C171.834 66.736 169.936 64.5813 168.528 61.808C167.162 58.992 166.48 55.7493 166.48 52.08ZM193.232 52.144C193.232 49.4133 192.464 47.2587 190.928 45.68C189.434 44.1013 187.6 43.312 185.424 43.312C183.248 43.312 181.392 44.1013 179.856 45.68C178.362 47.216 177.616 49.3493 177.616 52.08C177.616 54.8107 178.362 56.9867 179.856 58.608C181.392 60.1867 183.248 60.976 185.424 60.976C187.6 60.976 189.434 60.1867 190.928 58.608C192.464 57.0293 193.232 54.8747 193.232 52.144ZM227.645 61.168C230.461 61.168 232.36 59.8027 233.341 57.072H244.989C244.178 60.6987 242.557 63.664 240.125 65.968C237.693 68.272 234.664 69.7013 231.037 70.256V72.624C233.256 72.624 235.197 73.2213 236.861 74.416C238.525 75.6533 239.357 77.488 239.357 79.92C239.357 82.352 238.482 84.1867 236.733 85.424C234.984 86.704 232.893 87.344 230.461 87.344H220.605V81.328H228.989C229.842 81.328 230.482 81.2 230.909 80.944C231.336 80.688 231.549 80.2613 231.549 79.664C231.549 79.0667 231.336 78.64 230.909 78.384C230.482 78.1707 229.842 78.064 228.989 78.064H224.445V70.256C220.05 69.5733 216.53 67.632 213.885 64.432C211.24 61.1893 209.917 57.0933 209.917 52.144C209.917 48.432 210.664 45.1893 212.157 42.416C213.693 39.6427 215.805 37.5093 218.493 36.016C221.224 34.5227 224.338 33.776 227.837 33.776C232.317 33.776 236.05 34.9493 239.037 37.296C242.066 39.6427 244.05 42.9493 244.989 47.216H233.341C232.36 44.4853 230.461 43.12 227.645 43.12C225.64 43.12 224.04 43.9093 222.845 45.488C221.65 47.024 221.053 49.2427 221.053 52.144C221.053 55.0453 221.65 57.2853 222.845 58.864C224.04 60.4 225.64 61.168 227.645 61.168ZM248.667 52.08C248.667 48.4107 249.35 45.1893 250.715 42.416C252.123 39.6427 254.022 37.5093 256.411 36.016C258.8 34.5227 261.467 33.776 264.411 33.776C266.928 33.776 269.126 34.288 271.003 35.312C272.923 36.336 274.395 37.68 275.419 39.344V34.288H286.363V70H275.419V64.944C274.352 66.608 272.859 67.952 270.939 68.976C269.062 70 266.864 70.512 264.347 70.512C261.446 70.512 258.8 69.7653 256.411 68.272C254.022 66.736 252.123 64.5813 250.715 61.808C249.35 58.992 248.667 55.7493 248.667 52.08ZM275.419 52.144C275.419 49.4133 274.651 47.2587 273.115 45.68C271.622 44.1013 269.787 43.312 267.611 43.312C265.435 43.312 263.579 44.1013 262.043 45.68C260.55 47.216 259.803 49.3493 259.803 52.08C259.803 54.8107 260.55 56.9867 262.043 58.608C263.579 60.1867 265.435 60.976 267.611 60.976C269.787 60.976 271.622 60.1867 273.115 58.608C274.651 57.0293 275.419 54.8747 275.419 52.144ZM256.027 31.28C257.051 24.9653 259.995 21.808 264.859 21.808C265.798 21.808 266.608 21.9573 267.291 22.256C268.016 22.512 268.891 22.9173 269.915 23.472C270.683 23.8987 271.302 24.2187 271.771 24.432C272.24 24.6027 272.731 24.688 273.243 24.688C274.822 24.688 275.739 23.728 275.995 21.808H281.627C280.603 28.1227 277.659 31.28 272.795 31.28C271.856 31.28 271.024 31.152 270.299 30.896C269.616 30.5973 268.763 30.1707 267.739 29.616C266.971 29.1893 266.352 28.8907 265.883 28.72C265.414 28.5067 264.923 28.4 264.411 28.4C262.832 28.4 261.894 29.36 261.595 31.28H256.027ZM310.537 70.512C307.038 70.512 303.881 69.7653 301.065 68.272C298.291 66.7787 296.094 64.6453 294.473 61.872C292.894 59.0987 292.105 55.856 292.105 52.144C292.105 48.4747 292.915 45.2533 294.536 42.48C296.158 39.664 298.377 37.5093 301.193 36.016C304.009 34.5227 307.166 33.776 310.665 33.776C314.163 33.776 317.321 34.5227 320.137 36.016C322.953 37.5093 325.171 39.664 326.793 42.48C328.414 45.2533 329.225 48.4747 329.225 52.144C329.225 55.8133 328.393 59.056 326.729 61.872C325.107 64.6453 322.867 66.7787 320.009 68.272C317.193 69.7653 314.035 70.512 310.537 70.512ZM310.537 61.04C312.627 61.04 314.398 60.272 315.849 58.736C317.342 57.2 318.089 55.0027 318.089 52.144C318.089 49.2853 317.363 47.088 315.913 45.552C314.505 44.016 312.755 43.248 310.665 43.248C308.531 43.248 306.761 44.016 305.353 45.552C303.945 47.0453 303.241 49.2427 303.241 52.144C303.241 55.0027 303.923 57.2 305.289 58.736C306.697 60.272 308.446 61.04 310.537 61.04Z" fill="#280A4E"/>
</svg>
