<svg width="280" height="370" viewBox="0 90 495 370" fill="none" xmlns="http://www.w3.org/2000/svg">
<path d="M4.2915 171.838L83.3663 147.631C85.1153 147.096 86.9507 146.9 88.7733 147.056L489.537 181.163C495.251 181.649 496.687 189.356 491.532 191.868L478.695 198.122H479.037V497.509H466.94V203.849L426.708 223.449C423.629 224.949 420.194 225.561 416.787 225.217L412.506 224.784V497.509H400.41V223.562L90.4387 192.252V497.509H78.3423V191.03L26.9324 185.838V497.509H14.836V184.616L5.45688 183.668C-1.12744 183.003 -2.03656 173.775 4.29138 171.838H4.2915Z" fill="#3F3D56"/>
<path d="M373.188 179.98C365.627 179.98 253.735 166.371 253.735 166.371L237.103 189.052L353.531 211.733L373.188 179.98Z" fill="white"/>
<path d="M250.394 485.878L269.834 485.842L278.953 410.844L250.262 410.895L250.394 485.878Z" fill="#A0616A"/>
<path d="M316.996 485.321C317.603 486.339 317.928 489.629 317.93 490.814C317.936 494.458 314.987 497.417 311.343 497.423L251.14 497.527C248.655 497.531 246.636 495.519 246.632 493.033L246.627 490.527C246.627 490.527 243.636 482.999 249.752 473.703C249.752 473.703 257.385 480.961 268.752 469.554L272.1 463.465L296.438 481.2L309.914 482.835C312.862 483.193 315.475 482.77 316.995 485.321H316.996L316.996 485.321Z" fill="#2F2E41"/>
<path d="M146.037 451.007L161.374 462.575L213.297 408.922L190.66 391.848L146.037 451.007Z" fill="#A0616A"/>
<path d="M198.845 490.304C198.716 491.469 197.009 494.255 196.304 495.19C194.135 498.065 190.047 498.637 187.172 496.468L139.675 460.638C137.714 459.159 137.323 456.37 138.803 454.408L140.295 452.431C140.295 452.431 142.429 444.715 152.792 441.039C152.792 441.039 154.477 451.31 170.238 449.104L176.508 446.303L185.105 474.795L194.747 484.122C196.857 486.162 199.168 487.387 198.845 490.304L198.845 490.304Z" fill="#2F2E41"/>
<path d="M186.683 63.4007C186.683 81.3275 201.216 95.86 219.142 95.86C237.069 95.86 251.602 81.3275 251.602 63.4007C251.602 45.4739 237.069 30.9414 219.142 30.9414C201.216 30.9414 186.683 45.4739 186.683 63.4007Z" fill="#A0616A"/>
<path d="M189.741 250.551C189.741 250.551 309.253 243.786 316.017 257.315C322.782 270.845 279.446 456.687 279.446 456.687L240.783 448.584L259.644 318.198C259.644 318.198 159.915 344.61 146.385 313.041C132.856 281.472 136.75 269.718 136.75 269.718L189.741 250.551Z" fill="#2F2E41"/>
<path d="M159.114 227.84C159.114 227.84 276.157 252.931 279.102 267.768C282.047 282.605 191.093 450.363 191.093 450.363L155.951 432.32L208.631 311.57C208.631 311.57 105.468 310.659 100.771 276.635C96.0746 242.612 102.94 232.306 102.94 232.306L159.114 227.84Z" fill="#2F2E41"/>
<path d="M145.769 100.598H202L240.476 163.736C240.476 163.736 249.495 204.537 240.476 208.941C231.456 213.344 231.456 260.698 231.456 260.698L136.749 269.717C136.749 269.717 123.219 127.657 127.729 114.127C132.239 100.598 145.769 100.598 145.769 100.598Z" fill="#5E18F5"/>
<path d="M234.837 142.312L240.475 208.939L303.882 182.029L319.015 174.418C321.979 170.553 325.826 167.454 330.233 165.38C341.193 160.039 352.828 161.362 356.226 168.334C359.624 175.306 353.498 185.287 342.541 190.625C338.191 192.819 333.378 193.939 328.506 193.892L284.228 219.04L284.176 218.942L283.98 219.293L214.543 248.294L198.566 160.829L234.837 142.312H234.837Z" fill="#A0616A"/>
<path d="M241.605 67.8984C241.605 67.8984 275.429 72.4083 261.899 43.0942C261.899 43.0942 263.962 27.2032 253.911 26.129C243.86 25.0548 230.33 7.01534 230.33 7.01534C230.33 7.01534 199.312 -8.76917 183.252 7.01534C167.192 22.7998 119.839 115.252 119.839 115.252L151.408 149.076C151.408 149.076 170.387 99.1834 192.466 104.963C214.546 110.742 234.84 127.974 234.84 127.974C234.84 127.974 257.247 116.76 247.171 106.986C237.095 97.2126 241.605 67.8984 241.605 67.8984Z" fill="#2F2E41"/>
<path d="M196.506 117.509C196.506 117.509 212.29 97.2145 223.565 112.999C234.84 128.784 243.859 149.078 243.859 149.078L198.761 164.862L196.506 117.509H196.506Z" fill="#5E18F5"/>
<path d="M25.2808 493.022L77.6775 326.482L77.6699 326.482H77.5488L77.7606 326.21L77.7652 326.204L81.4971 314.342L81.4953 314.34C75.81 309.441 71.9391 302.44 71.168 294.381L95.119 162.651C93.4708 145.353 106.732 130.232 124.105 129.612L178.146 129.476C193.508 128.932 206.814 140.03 209.052 155.242L210.247 163.316L226.804 275.949C227.409 280.001 227.167 283.993 226.214 287.728L238.129 289.285L241.743 289.769L256.032 291.629L256.077 291.644L257.861 291.871H259.797V340.257H259.676V494.91C259.676 495.908 258.859 496.724 257.861 496.724C256.848 496.724 256.032 495.908 256.032 494.91V340.257H234.833L213.679 494.728C213.543 495.635 212.772 496.301 211.865 496.301C211.789 496.301 211.698 496.301 211.623 496.286C210.625 496.15 209.929 495.227 210.065 494.229L231.143 340.257H129.428C119.328 340.257 109.969 337.052 102.349 331.564L62.0198 494.445C61.81 495.269 61.0693 495.817 60.2561 495.817C60.1076 495.817 59.9564 495.799 59.8056 495.761C58.831 495.513 58.2419 494.521 58.4896 493.547L99.2086 329.091C98.667 328.639 98.1254 328.158 97.6138 327.661L81.4245 326.709L28.7551 494.116C28.5106 494.893 27.7925 495.391 27.0184 495.391C26.8374 495.391 26.6534 495.363 26.4715 495.306C25.512 495.004 24.9789 493.981 25.2808 493.022ZM84.958 316.926C84.8219 316.85 84.7009 316.759 84.5799 316.684L84.579 316.683L84.1899 317.92L84.958 316.926Z" fill="#E6E6E6"/>
</svg>
