<svg width="1140" height="1147" viewBox="0 0 1140 1147" fill="none" xmlns="http://www.w3.org/2000/svg">
<path opacity="0.7" d="M954.895 147.418C1033.4 172.918 1148.4 182.918 1196.4 250.418C1244.88 318.598 1261.4 488.918 1261.4 576.918C1261.4 664.918 1255.59 755.305 1221.9 839.918C1199.4 896.418 1153.9 992.918 1050.9 1019.19C957.895 1043.92 873.895 1031.92 771.929 1019.19C677.464 1005.44 590.429 999.191 446.429 982.191C215.43 956.691 154.43 925.691 98.4301 819.691C35.9505 701.418 86.7091 596.062 136.431 513.191C214.893 382.418 232.931 338.191 271.928 256.191C312.931 178.691 340.931 124.691 412.428 69.1906C557.431 -43.3708 657.926 14.1919 673.928 18.691C759.395 50.6914 828.557 106.378 954.895 147.418Z" fill="#5A2D94"/>
<path opacity="0.9" d="M1055.82 95.0693C1159.82 135.573 1213.82 195.073 1222.32 267.072C1235.82 364.072 1189.32 452.071 1194.82 575.571C1198.37 655.341 1237.82 779.571 1184.82 855.571C1143.32 932.571 972.321 1011.07 910.321 1042.07C899.728 1047.37 753.82 1122.07 611.32 1141.07C465.05 1160.57 357.821 1131.57 313.323 1058.48C270.821 1009.07 240.321 914.571 207.321 781.571C189.821 713.071 160.321 599.571 132.822 520.071C105.317 426.071 74.3232 321.572 122.823 235.072C183.32 119.57 314.817 63.0692 418.32 63.0692C478.321 57.5663 649.825 75.5729 755.82 67.5701C914.82 61.0701 954.82 62.0715 1055.82 95.0693Z" fill="#3D1A69"/>
<path d="M994.477 54.8312C1065.77 114.611 1084.58 228.735 1138.64 321.122C1192.7 414.188 1282.02 484.836 1297.69 563.636C1312.57 642.437 1253.03 728.709 1191.92 810.227C1130.8 892.424 1067.34 969.865 981.157 1035.76C894.973 1102.33 786.067 1158.03 685.78 1145.13C586.277 1131.54 494.608 1049.34 418.609 978.017C343.394 906.01 283.065 844.872 205.499 776.261C128.717 707.651 34.6978 632.247 8.05907 543.257C-18.5797 453.588 22.9454 351.691 101.295 285.118C179.644 218.546 295.601 187.976 398.239 143.821C500.093 98.9865 588.627 40.5657 694.399 14.7518C800.17 -11.7414 923.962 -4.94828 994.477 54.8312Z" fill="#1C033D"/>
</svg>
