<svg width="100%" height="100%" viewBox="0 0 1383 1617" fill="none" xmlns="http://www.w3.org/2000/svg">
<path opacity="0.7" d="M851.577 208.369C945.815 215.356 1036.41 292.568 1139.32 333.926C1242.69 375.804 1357.91 381.308 1422.51 433.159C1486.51 485.436 1498.85 583.966 1506.81 679.705C1515.22 775.966 1518.67 869.862 1497.09 967.28C1475.98 1065.22 1430.3 1167.2 1345.32 1211.92C1260.48 1255.68 1135.75 1242.61 1030.21 1229.33C924.82 1215.11 838.025 1201.11 733.112 1190.77C628.795 1180 506.815 1173.41 427.053 1119.73C346.836 1065.52 310.342 964.83 325.494 871.157C340.647 777.484 408.496 690.923 457.123 601.203C504.7 511.389 533.056 418.417 596.329 341.046C659.148 263.154 757.935 200.956 851.577 208.369Z" fill="#292C89"/>
<path opacity="0.9" d="M1440.06 488.576C1468.97 572.821 1423.64 685.314 1420.22 792.383C1416.44 900.076 1454.93 1001.72 1425.93 1080.5C1396.27 1158.96 1298.8 1213.61 1202.55 1263.24C1105.94 1313.5 1009.87 1358.43 900.554 1383.39C790.871 1408.98 667.571 1415.23 588.593 1362.06C510.651 1308.59 476.361 1195.37 449.644 1098.59C423.965 1001.51 405.189 920.536 375.667 825.602C346.817 730.992 306.855 623.044 331.94 530.391C357.39 437.115 447.827 360.705 550.797 331.888C653.768 303.072 769.578 322.797 881.29 324.564C992.697 325.385 1100.01 308.247 1204.53 328.14C1309.42 347.408 1411.83 404.653 1440.06 488.576Z" fill="#252770"/>
<path d="M1232.65 315.916C1301.81 374.288 1320.04 485.726 1372.48 575.938C1424.92 666.813 1511.56 735.798 1526.76 812.744C1541.2 889.689 1483.44 973.931 1424.16 1053.53C1364.88 1133.79 1303.33 1209.41 1219.73 1273.75C1136.13 1338.76 1030.49 1393.15 933.211 1380.55C836.692 1367.28 747.774 1287.02 674.055 1217.37C601.096 1147.06 542.577 1087.36 467.338 1020.36C392.859 953.368 301.661 879.739 275.821 792.844C249.982 705.285 290.261 605.787 366.26 540.782C442.259 475.776 554.737 445.927 654.295 402.811C753.094 359.031 838.972 301.986 941.571 276.78C1044.17 250.91 1164.25 257.543 1232.65 315.916Z" fill="#1F204C"/>
</svg>
