<svg width="2699" height="506" viewBox="0 0 2699 506" fill="none" xmlns="http://www.w3.org/2000/svg">
<path d="M0 505.996L74.9722 467.834C149.944 428.954 299.889 353.704 449.833 324.5C599.778 296.371 749.722 314.288 899.667 324.5C1049.61 333.996 1199.56 333.996 1349.5 362.663C1499.44 391.329 1649.39 448.663 1799.33 458.159C1949.28 468.371 2099.22 428.954 2249.17 372.159C2399.11 314.288 2549.06 239.038 2624.03 200.159L2699 161.996H2624.03C2549.06 161.996 2399.11 161.996 2249.17 161.996C2099.22 161.996 1949.28 161.996 1799.33 161.996C1649.39 161.996 1499.44 161.996 1349.5 161.996C1199.56 161.996 1049.61 161.996 899.667 161.996C749.722 161.996 599.778 161.996 449.833 161.996C299.889 161.996 149.944 161.996 74.9722 161.996H0V505.996Z" fill="#252770" fill-opacity="0.9"/>
<path d="M2699 443L2634.71 411.711C2570.42 380.891 2442.22 317.609 2312.89 311.75C2184.88 305.891 2056.11 355.109 1928.66 343.039C1799.33 330.5 1670.01 255.5 1542.55 230.539C1413.79 205.109 1285.77 230.891 1156.45 249.289C1028.24 268.391 899.667 280.109 770.339 299.211C642.699 317.609 513.56 343.391 386.107 330.5C256.967 317.609 129.327 268.391 63.7263 242.961L0 218V143H64.2888C128.577 143 256.78 143 386.107 143C514.122 143 642.887 143 770.339 143C899.667 143 1028.99 143 1156.45 143C1285.21 143 1413.23 143 1542.55 143C1670.76 143 1799.33 143 1928.66 143C2056.3 143 2185.44 143 2312.89 143C2442.03 143 2569.67 143 2635.27 143H2699V443Z" fill="#292C89"/>
<path d="M0 367.996L64.1696 338.271C128.339 308.992 256.304 248.875 385.392 243.309C513.17 237.742 641.696 284.5 768.913 273.033C898 261.121 1027.09 189.871 1154.3 166.158C1282.83 142 1410.61 166.492 1539.7 183.971C1667.66 202.117 1796 213.25 1925.09 231.396C2052.49 248.875 2181.39 273.367 2308.61 261.121C2437.51 248.875 2564.91 202.117 2630.39 177.959L2694 154.246V82.9961H2629.83C2565.66 82.9961 2437.7 82.9961 2308.61 82.9961C2180.83 82.9961 2052.3 82.9961 1925.09 82.9961C1796 82.9961 1666.91 82.9961 1539.7 82.9961C1411.17 82.9961 1283.39 82.9961 1154.3 82.9961C1026.34 82.9961 898 82.9961 768.913 82.9961C641.509 82.9961 512.608 82.9961 385.392 82.9961C256.491 82.9961 129.088 82.9961 63.6083 82.9961H0V367.996Z" fill="#232564"/>
<path d="M0 255.355L74.9722 261.397C149.944 267.894 299.889 279.294 449.833 261.397C599.778 242.815 749.722 194.936 899.667 164.157C1049.61 133.377 1199.56 121.977 1349.5 127.677C1499.44 133.377 1649.39 158.457 1799.33 151.959C1949.28 145.917 2099.22 109.438 2249.17 115.48C2399.11 121.977 2549.06 169.856 2624.03 194.594L2699 218.875V0H2624.03C2549.06 0 2399.11 0 2249.17 0C2099.22 0 1949.28 0 1799.33 0C1649.39 0 1499.44 0 1349.5 0C1199.56 0 1049.61 0 899.667 0C749.722 0 599.778 0 449.833 0C299.889 0 149.944 0 74.9722 0H0V255.355Z" fill="#1F204C"/>
</svg>
