<svg width="2699" height="511" viewBox="0 0 2699 511" fill="none" xmlns="http://www.w3.org/2000/svg">
<path d="M0 0L74.1389 41.3797C148.278 83.5365 296.556 165.13 444.833 196.796C593.111 227.297 741.389 207.87 889.667 196.796C1037.94 186.5 1186.22 186.5 1334.5 155.417C1482.78 124.333 1631.06 62.1667 1779.33 51.8703C1927.61 40.7969 2075.89 83.5365 2224.17 145.12C2372.44 207.87 2520.72 289.464 2594.86 331.62L2669 373H2594.86C2520.72 373 2372.44 373 2224.17 373C2075.89 373 1927.61 373 1779.33 373C1631.06 373 1482.78 373 1334.5 373C1186.22 373 1037.94 373 889.667 373C741.389 373 593.111 373 444.833 373C296.556 373 148.278 373 74.1389 373H0V0Z" fill="#5F2EA0"/>
<path d="M2699 48L2634.71 81.8965C2570.42 115.285 2442.22 183.84 2312.89 190.188C2184.88 196.535 2056.11 143.215 1928.66 156.291C1799.33 169.875 1670.01 251.125 1542.55 278.166C1413.79 305.715 1285.77 277.785 1156.45 257.854C1028.24 237.16 899.667 224.465 770.339 203.771C642.699 183.84 513.56 155.91 386.107 169.875C256.967 183.84 129.327 237.16 63.7263 264.709L0 291.75V373H64.2888C128.577 373 256.78 373 386.107 373C514.122 373 642.887 373 770.339 373C899.667 373 1028.99 373 1156.45 373C1285.21 373 1413.23 373 1542.55 373C1670.76 373 1799.33 373 1928.66 373C2056.3 373 2185.44 373 2312.89 373C2442.03 373 2569.67 373 2635.27 373H2699V48Z" fill="#4E2287"/>
<path d="M0 140L64.2887 167.117C128.577 193.828 256.78 248.672 386.107 253.75C514.122 258.828 642.887 216.172 770.34 226.633C899.667 237.5 1028.99 302.5 1156.45 324.133C1285.21 346.172 1413.23 323.828 1542.55 307.883C1670.76 291.328 1799.33 281.172 1928.66 264.617C2056.3 248.672 2185.44 226.328 2312.89 237.5C2442.03 248.672 2569.67 291.328 2635.27 313.367L2699 335V400H2634.71C2570.42 400 2442.22 400 2312.89 400C2184.88 400 2056.11 400 1928.66 400C1799.33 400 1670.01 400 1542.55 400C1413.79 400 1285.77 400 1156.45 400C1028.24 400 899.667 400 770.34 400C642.699 400 513.56 400 386.107 400C256.967 400 129.327 400 63.7264 400H0V140Z" fill="#2D0C58"/>
<path d="M0 249.992L74.9722 243.816C149.944 237.174 299.889 225.522 449.833 243.816C599.778 262.809 749.722 311.748 899.667 343.209C1049.61 374.67 1199.56 386.322 1349.5 380.496C1499.44 374.67 1649.39 349.035 1799.33 355.677C1949.28 361.852 2099.22 399.139 2249.17 392.964C2399.11 386.322 2549.06 337.383 2624.03 312.098L2699 287.279V511H2624.03C2549.06 511 2399.11 511 2249.17 511C2099.22 511 1949.28 511 1799.33 511C1649.39 511 1499.44 511 1349.5 511C1199.56 511 1049.61 511 899.667 511C749.722 511 599.778 511 449.833 511C299.889 511 149.944 511 74.9722 511H0V249.992Z" fill="#1C033D"/>
</svg>
