<svg width="2699" height="439" viewBox="0 0 2699 439" fill="none" xmlns="http://www.w3.org/2000/svg">
<path d="M0 0L74.2778 35.5C148.556 71.6667 297.111 141.667 445.667 168.833C594.222 195 742.778 178.333 891.333 168.833C1039.89 160 1188.44 160 1337 133.333C1485.56 106.667 1634.11 53.3333 1782.67 44.5C1931.22 35 2079.78 71.6667 2228.33 124.5C2376.89 178.333 2525.44 248.333 2599.72 284.5L2674 320H2599.72C2525.44 320 2376.89 320 2228.33 320C2079.78 320 1931.22 320 1782.67 320C1634.11 320 1485.56 320 1337 320C1188.44 320 1039.89 320 891.333 320C742.778 320 594.222 320 445.667 320C297.111 320 148.556 320 74.2778 320H0V0Z" fill="#252770"/>
<path d="M2704 41L2639.59 70.0988C2575.18 98.7617 2446.74 157.613 2317.18 163.062C2188.93 168.512 2059.92 122.738 1932.23 133.964C1802.67 145.625 1673.1 215.375 1545.41 238.589C1416.41 262.238 1288.16 238.262 1158.59 221.151C1030.15 203.387 901.333 192.488 771.767 174.724C643.89 157.613 514.511 133.637 386.822 145.625C257.443 157.613 129.567 203.387 63.8445 227.036L0 250.25V320H64.4077C128.816 320 257.256 320 386.822 320C515.074 320 644.078 320 771.767 320C901.333 320 1030.9 320 1158.59 320C1287.59 320 1415.84 320 1545.41 320C1673.85 320 1802.67 320 1932.23 320C2060.11 320 2189.49 320 2317.18 320C2446.56 320 2574.43 320 2640.16 320H2704V41Z" fill="#292C89"/>
<path d="M0 120L64.4078 143.258C128.816 166.168 257.256 213.207 386.822 217.562C515.074 221.918 644.078 185.332 771.767 194.304C901.333 203.625 1030.9 259.375 1158.59 277.929C1287.59 296.832 1415.84 277.668 1545.41 263.992C1673.85 249.793 1802.67 241.082 1932.23 226.883C2060.11 213.207 2189.49 194.043 2317.18 203.625C2446.56 213.207 2574.43 249.793 2640.16 268.696L2704 287.25V343H2639.59C2575.18 343 2446.74 343 2317.18 343C2188.93 343 2059.92 343 1932.23 343C1802.67 343 1673.1 343 1545.41 343C1416.41 343 1288.16 343 1158.59 343C1030.15 343 901.333 343 771.767 343C643.89 343 514.511 343 386.822 343C257.443 343 129.567 343 63.8444 343H0V120Z" fill="#232564"/>
<path d="M0 214.74L75.4444 209.434C150.889 203.727 301.778 193.716 452.667 209.434C603.556 225.753 754.444 267.802 905.333 294.833C1056.22 321.864 1207.11 331.876 1358 326.87C1508.89 321.864 1659.78 299.839 1810.67 305.545C1961.56 310.851 2112.44 342.889 2263.33 337.582C2414.22 331.876 2565.11 289.827 2640.56 268.102L2716 246.777V439H2640.56C2565.11 439 2414.22 439 2263.33 439C2112.44 439 1961.56 439 1810.67 439C1659.78 439 1508.89 439 1358 439C1207.11 439 1056.22 439 905.333 439C754.444 439 603.556 439 452.667 439C301.778 439 150.889 439 75.4444 439H0V214.74Z" fill="#1F204C"/>
</svg>
