<svg width="2699" height="498" viewBox="0 0 2699 498" fill="none" xmlns="http://www.w3.org/2000/svg">
<path d="M0 497.996L74.9722 459.834C149.944 420.954 299.889 345.704 449.833 316.5C599.778 288.371 749.722 306.288 899.667 316.5C1049.61 325.996 1199.56 325.996 1349.5 354.663C1499.44 383.329 1649.39 440.663 1799.33 450.159C1949.28 460.371 2099.22 420.954 2249.17 364.159C2399.11 306.288 2549.06 231.038 2624.03 192.159L2699 153.996H2624.03C2549.06 153.996 2399.11 153.996 2249.17 153.996C2099.22 153.996 1949.28 153.996 1799.33 153.996C1649.39 153.996 1499.44 153.996 1349.5 153.996C1199.56 153.996 1049.61 153.996 899.667 153.996C749.722 153.996 599.778 153.996 449.833 153.996C299.889 153.996 149.944 153.996 74.9722 153.996H0V497.996Z" fill="#5F2EA0" fill-opacity="0.9"/>
<path d="M2699 435L2634.71 403.711C2570.42 372.891 2442.22 309.609 2312.89 303.75C2184.88 297.891 2056.11 347.109 1928.66 335.039C1799.33 322.5 1670.01 247.5 1542.55 222.539C1413.79 197.109 1285.77 222.891 1156.45 241.289C1028.24 260.391 899.667 272.109 770.34 291.211C642.699 309.609 513.56 335.391 386.107 322.5C256.967 309.609 129.327 260.391 63.7263 234.961L-7.24792e-05 210V135H64.2887C128.577 135 256.78 135 386.107 135C514.122 135 642.887 135 770.34 135C899.667 135 1028.99 135 1156.45 135C1285.21 135 1413.23 135 1542.55 135C1670.76 135 1799.33 135 1928.66 135C2056.3 135 2185.44 135 2312.89 135C2442.03 135 2569.67 135 2635.27 135H2699V435Z" fill="#4E2287"/>
<path d="M0 359.996L64.1696 330.271C128.339 300.992 256.304 240.875 385.392 235.309C513.17 229.742 641.696 276.5 768.913 265.033C898 253.121 1027.09 181.871 1154.3 158.158C1282.83 134 1410.61 158.492 1539.7 175.971C1667.66 194.117 1796 205.25 1925.09 223.396C2052.49 240.875 2181.39 265.367 2308.61 253.121C2437.51 240.875 2564.91 194.117 2630.39 169.959L2694 146.246V74.9961H2629.83C2565.66 74.9961 2437.7 74.9961 2308.61 74.9961C2180.83 74.9961 2052.3 74.9961 1925.09 74.9961C1796 74.9961 1666.91 74.9961 1539.7 74.9961C1411.17 74.9961 1283.39 74.9961 1154.3 74.9961C1026.34 74.9961 898 74.9961 768.913 74.9961C641.509 74.9961 512.608 74.9961 385.392 74.9961C256.491 74.9961 129.088 74.9961 63.6083 74.9961H0V359.996Z" fill="#3D1160"/>
<path d="M0 255.355L74.9722 261.397C149.944 267.894 299.889 279.294 449.833 261.397C599.778 242.815 749.722 194.936 899.667 164.157C1049.61 133.377 1199.56 121.977 1349.5 127.677C1499.44 133.377 1649.39 158.457 1799.33 151.959C1949.28 145.917 2099.22 109.438 2249.17 115.48C2399.11 121.977 2549.06 169.856 2624.03 194.594L2699 218.875V0H2624.03C2549.06 0 2399.11 0 2249.17 0C2099.22 0 1949.28 0 1799.33 0C1649.39 0 1499.44 0 1349.5 0C1199.56 0 1049.61 0 899.667 0C749.722 0 599.778 0 449.833 0C299.889 0 149.944 0 74.9722 0H0V255.355Z" fill="#1C033D"/>
</svg>
