<svg width="280" height="370" viewBox="0 90 495 370" fill="none" xmlns="http://www.w3.org/2000/svg">
<path d="M11.1909 309.426H469.614C475.759 309.426 480.758 300.774 480.758 290.138V19.2872C480.758 8.65218 475.759 0 469.614 0H11.1909C5.04617 0 0.0471191 8.65218 0.0471191 19.2872V290.138C0.0471191 300.774 5.04617 309.426 11.1909 309.426ZM469.614 2.29946C475.026 2.29946 479.429 9.92037 479.429 19.2872V290.138C479.429 299.505 475.026 307.127 469.614 307.127H11.1909C5.7789 307.127 1.3757 299.505 1.3757 290.138V19.2872C1.3757 9.92037 5.7789 2.29946 11.1909 2.29946H469.614Z" fill="white"/>
<path d="M274.755 318.99C274.053 327.809 268.935 334.595 263.324 334.148C257.714 333.7 253.735 326.189 254.438 317.367C254.671 313.839 255.744 310.418 257.57 307.391L261.014 270.062L278.492 272.053L273.241 308.64C274.565 311.92 275.084 315.469 274.755 318.99Z" fill="#FFB6B6"/>
<path d="M295.633 144.838C295.633 144.838 279.294 136.187 271.01 149.115C262.725 162.043 257.007 301.863 257.007 301.863L279.97 304.315L284.323 205.788L295.633 144.838V144.838Z" fill="#E6E6E6"/>
<path d="M329.544 526.156L316.242 526.155L309.914 474.832L329.547 474.833L329.544 526.156Z" fill="#FFB6B6"/>
<path d="M283.972 525.856C283.558 526.554 283.339 528.806 283.339 529.617C283.339 532.111 285.36 534.133 287.854 534.133H329.05C330.751 534.133 332.13 532.754 332.13 531.052V529.337C332.13 529.337 334.168 524.181 329.972 517.825C329.972 517.825 324.758 522.802 316.965 515.007L314.668 510.844L298.034 523.011L288.815 524.147C286.798 524.395 285.009 524.108 283.972 525.856H283.972H283.972Z" fill="#2F2E41"/>
<path d="M252.564 523.954L239.675 520.66L246.244 469.367L265.266 474.229L252.564 523.954Z" fill="#FFB6B6"/>
<path d="M208.479 512.379C207.906 512.953 207.137 515.081 206.936 515.867C206.319 518.283 207.777 520.743 210.193 521.36L250.107 531.559C251.755 531.98 253.433 530.985 253.854 529.336L254.278 527.674C254.278 527.674 257.529 523.183 255.036 515.987C255.036 515.987 248.752 519.517 243.131 510.037L241.935 505.434L222.808 513.105L213.595 511.922C211.579 511.664 209.917 510.943 208.48 512.379H208.479Z" fill="#2F2E41"/>
<path d="M340.549 133.805L341.18 129.227L333.683 110.914L313.086 108.625L308.639 134.842L340.549 133.805Z" fill="#FFB6B6"/>
<path opacity="0.1" d="M340.549 133.805L341.18 129.227L333.683 110.914L313.086 108.625L308.639 134.842L340.549 133.805Z" fill="black"/>
<path d="M364.58 263.141L373.734 288.322L366.869 302.056L332.54 501.21H309.718L314.232 324.948L261.595 501.21H239.006L257.171 382.176L270.749 272.298L278.985 267.209L318.809 244.828L364.58 263.141Z" fill="#2F2E41"/>
<path d="M306.226 280.31L319.957 282.599L338.266 239.105H297.072L306.226 280.31Z" fill="#E6E6E6"/>
<path d="M278.762 268.863L306.224 280.309L315.379 259.707L319.956 282.598L368.016 267.124L361.15 239.105L368.016 147.54L343.78 131.378L340.553 129.227L310.802 131.516L308.193 132.935L290.204 142.961L285.627 218.502L278.762 268.863Z" fill="#2F2E41"/>
<path d="M308.194 132.935L321.102 187.599L343.781 131.378L340.554 129.227L310.803 131.516L308.194 132.935Z" fill="#E6E6E6"/>
<path d="M330.251 129.227L334.828 137.111L330.251 139.74L332.54 187.741L323.385 200.189L314.231 181.792L321.097 139.74L318.808 129.227H330.251Z" fill="#2F2E41"/>
<path d="M323.391 124.65C311.384 124.65 301.65 114.913 301.65 102.903C301.65 90.8926 311.384 81.1562 323.391 81.1562C335.399 81.1562 345.133 90.8926 345.133 102.903C345.133 114.913 335.399 124.65 323.391 124.65Z" fill="#FFB6B6"/>
<path d="M337.284 104.811L332.587 106.861L330.537 94.5574C330.537 94.5574 322.336 90.4561 316.185 92.5068C310.035 94.5574 299.784 92.5068 299.784 92.5068C299.784 92.5068 299.784 72 314.135 72C328.486 72 342.838 74.0507 342.838 80.2027C342.838 86.3547 348.988 92.5068 348.988 92.5068C348.988 92.5068 357.189 104.811 348.988 113.014C340.787 121.216 336.687 121.216 336.687 121.216L337.284 104.811Z" fill="#2F2E41"/>
<path d="M379.467 318.344C379.706 327.188 375.337 334.479 369.71 334.63C364.084 334.781 359.331 327.734 359.093 318.888C358.95 315.355 359.655 311.84 361.148 308.635L360.611 271.152L378.202 271.275L376.864 308.214C378.528 311.334 379.421 314.808 379.467 318.344V318.344Z" fill="#FFB6B6"/>
<path d="M357.705 142.92C357.705 142.92 372.581 138.342 379.447 152.077C386.312 165.811 377.158 305.448 377.158 305.448H354.065L360.194 207.016L357.705 142.92V142.92Z" fill="#E6E6E6"/>
<path d="M118.206 279.035H159.236C162.488 279.035 165.125 281.672 165.125 284.926V301.852C165.125 305.105 162.488 307.743 159.236 307.743H118.206C114.953 307.743 112.316 305.105 112.316 301.852V284.926C112.316 281.672 114.953 279.035 118.206 279.035Z" fill="#3F3D56"/>
<path d="M32.104 295.961H73.1343C76.3868 295.961 79.0234 298.598 79.0234 301.852V301.852C79.0234 305.105 76.3868 307.742 73.1343 307.742H32.104C28.8515 307.742 26.2147 305.105 26.2147 301.852V301.852C26.2147 298.598 28.8515 295.961 32.104 295.961Z" fill="#280A4E"/>
</svg>
