<svg width="131" height="45" viewBox="0 0 251 45" fill="none" xmlns="http://www.w3.org/2000/svg">
<path d="M24.0698 1.19922H17.9357C15.2243 1.19922 12.6239 2.28531 10.7066 4.21856C8.78933 6.15181 7.71221 8.77387 7.71221 11.5079V17.6931H1.57812V25.94H7.71221V42.4339H15.891V25.94H22.0251L24.0698 17.6931H15.891V11.5079C15.891 10.9611 16.1064 10.4367 16.4899 10.05C16.8733 9.66338 17.3934 9.44616 17.9357 9.44616H24.0698V1.19922Z" stroke="black" stroke-width="1.87431" stroke-linecap="round" stroke-linejoin="round"/>
<path d="M89.3731 42.6841V35.4305C89.4434 34.5368 89.3226 33.6383 89.0189 32.7948C88.7151 31.9514 88.2353 31.1822 87.6112 30.5386C93.4966 29.8826 99.6818 27.6521 99.6818 17.4184C99.6813 14.8016 98.6747 12.2851 96.8703 10.3898C97.7247 8.10034 97.6643 5.56973 96.7016 3.32366C96.7016 3.32366 94.4899 2.66765 89.3731 6.09763C85.0772 4.93335 80.5488 4.93335 76.253 6.09763C71.1361 2.66765 68.9244 3.32366 68.9244 3.32366C67.9617 5.56973 67.9013 8.10034 68.7557 10.3898C66.9379 12.2991 65.9303 14.8384 65.9443 17.4747C65.9443 27.6334 72.1295 29.8638 78.0148 30.5948C77.3981 31.232 76.9226 31.9919 76.619 32.8251C76.3155 33.6582 76.1907 34.546 76.253 35.4305V42.6841M76.253 37.0612C66.8814 39.8726 66.8814 32.3754 63.1328 31.4382L76.253 37.0612Z" stroke="black" stroke-width="1.87431" stroke-linecap="round" stroke-linejoin="round"/>
<path d="M175.595 5.19922L162.475 42.6853L154.978 25.8166L138.109 18.3194L175.595 5.19922Z" stroke="black" stroke-width="1.87431" stroke-linecap="round" stroke-linejoin="round"/>
<path d="M175.594 5.19922L154.977 25.8166" stroke="black" stroke-width="1.87431" stroke-linecap="round" stroke-linejoin="round"/>
<path fill-rule="evenodd" clip-rule="evenodd" d="M220.13 5.24149C215.225 5.24149 211.249 9.21749 211.249 14.1221V33.7577C211.249 38.6623 215.225 42.6383 220.13 42.6383H239.766C244.67 42.6383 248.646 38.6623 248.646 33.7577V14.1221C248.646 9.21749 244.67 5.24149 239.766 5.24149H220.13ZM209.375 14.1221C209.375 8.18234 214.19 3.36719 220.13 3.36719H239.766C245.705 3.36719 250.52 8.18234 250.52 14.1221V33.7577C250.52 39.6975 245.705 44.5127 239.766 44.5127H220.13C214.19 44.5127 209.375 39.6975 209.375 33.7577V14.1221ZM231.04 17.0116C229.601 16.7982 228.131 17.044 226.84 17.7141C225.549 18.3842 224.501 19.4445 223.847 20.744C223.193 22.0436 222.965 23.5164 223.197 24.9528C223.428 26.3892 224.106 27.7162 225.135 28.745C226.163 29.7738 227.49 30.452 228.927 30.6831C230.363 30.9143 231.836 30.6866 233.136 30.0325C234.435 29.3784 235.495 28.3311 236.166 27.0397C236.836 25.7483 237.081 24.2785 236.868 22.8393C236.65 21.3713 235.966 20.0122 234.917 18.9628C233.867 17.9134 232.508 17.2293 231.04 17.0116ZM225.977 16.0505C227.618 15.1988 229.486 14.8864 231.315 15.1576C233.181 15.4343 234.908 16.3037 236.242 17.6374C237.576 18.9712 238.445 20.6985 238.722 22.5643C238.993 24.3935 238.681 26.2616 237.829 27.9029C236.978 29.5443 235.63 30.8753 233.978 31.7067C232.327 32.538 230.455 32.8274 228.629 32.5336C226.803 32.2398 225.117 31.3779 223.809 30.0703C222.502 28.7628 221.64 27.0762 221.346 25.2506C221.052 23.4249 221.342 21.5531 222.173 19.9014C223.004 18.2496 224.335 16.9021 225.977 16.0505ZM240.74 12.2031C240.222 12.2031 239.803 12.6227 239.803 13.1403C239.803 13.6579 240.222 14.0774 240.74 14.0774H240.758C241.276 14.0774 241.695 13.6579 241.695 13.1403C241.695 12.6227 241.276 12.2031 240.758 12.2031H240.74Z" fill="black"/>
</svg>
