<svg width="900" height="900" viewBox="0 0 1583 1617" fill="none" xmlns="http://www.w3.org/2000/svg">
<path opacity="0.7" d="M851.577 208.369C945.815 215.356 1036.41 292.568 1139.32 333.926C1242.69 375.804 1357.91 381.308 1422.51 433.159C1486.51 485.436 1498.85 583.966 1506.81 679.705C1515.22 775.966 1518.67 869.862 1497.09 967.28C1475.98 1065.22 1430.3 1167.2 1345.32 1211.92C1260.48 1255.68 1135.75 1242.61 1030.21 1229.33C924.82 1215.11 838.025 1201.11 733.112 1190.77C628.795 1180 506.815 1173.41 427.053 1119.73C346.836 1065.52 310.342 964.83 325.494 871.157C340.647 777.484 408.496 690.923 457.123 601.203C504.7 511.389 533.056 418.417 596.329 341.046C659.148 263.154 757.935 200.956 851.577 208.369Z" fill="#292C89"/>
<path opacity="0.9" d="M1440.06 478.576C1468.97 562.821 1423.64 675.314 1420.22 782.383C1416.44 890.076 1454.93 991.723 1425.93 1070.5C1396.27 1148.96 1298.8 1203.61 1202.55 1253.24C1105.94 1303.5 1009.87 1348.43 900.554 1373.39C790.871 1398.98 667.571 1405.23 588.593 1352.06C510.651 1298.59 476.361 1185.37 449.644 1088.59C423.965 991.508 405.189 910.536 375.667 815.602C346.817 720.992 306.855 613.044 331.94 520.391C357.39 427.115 447.827 350.705 550.797 321.888C653.768 293.072 769.578 312.797 881.29 314.564C992.697 315.385 1100.01 298.247 1204.53 318.14C1309.42 337.408 1411.83 394.653 1440.06 478.576Z" fill="#252770"/>
<path d="M1223.48 306.831C1294.77 366.611 1313.58 480.735 1367.64 573.122C1421.7 666.188 1511.02 736.836 1526.69 815.636C1541.57 894.437 1482.03 980.709 1420.92 1062.23C1359.8 1144.42 1296.34 1221.87 1210.16 1287.76C1123.97 1354.33 1015.07 1410.03 914.78 1397.13C815.277 1383.54 723.608 1301.34 647.609 1230.02C572.394 1158.01 512.065 1096.87 434.499 1028.26C357.717 959.651 263.698 884.247 237.059 795.257C210.42 705.588 251.945 603.691 330.295 537.118C408.644 470.546 524.601 439.976 627.239 395.821C729.093 350.987 817.627 292.566 923.399 266.752C1029.17 240.259 1152.96 247.052 1223.48 306.831Z" fill="#1F204C"/>
</svg>
