<svg width="300" height="200" viewBox="0 0 669 568" fill="none" xmlns="http://www.w3.org/2000/svg">
<g clip-path="url(#clip0_1156_6654)">
<path d="M645.246 237.444C611.808 280.205 548.712 289.997 496.505 275.104C479.423 270.111 462.943 263.251 447.365 254.647C438.316 249.733 429.484 244.342 420.832 238.599C418.704 237.191 416.575 235.763 414.468 234.305C413.032 233.324 411.601 232.33 410.174 231.325C392.308 218.755 375.142 204.965 358.264 191.255C316.13 157.03 272.842 121.752 221.075 105.423C210.411 102.06 196.614 100.487 190.018 109.521C184.296 117.365 187.789 128.47 192.631 136.884C210.591 168.049 243.192 187.727 275.822 202.858C308.452 217.99 343.017 230.25 371.382 252.374C399.747 274.498 421.402 309.66 415.601 345.155C410.6 375.743 385.626 400.595 356.589 411.426C327.553 422.25 295.168 420.742 264.984 413.713C234.8 406.678 206.146 394.404 177.015 383.825C159.452 377.439 136.491 373.023 124.837 387.635C114.995 399.981 120.652 419.457 132.638 429.732C144.623 440.008 160.845 443.45 176.323 446.538C224.38 456.135 272.438 465.73 320.496 475.322C335.238 478.259 350.326 481.333 363.17 489.155C376.015 496.97 386.377 510.622 386.009 525.653C385.641 540.467 374.795 553.557 361.503 560.116C348.219 566.668 332.878 567.678 318.078 566.971C262.617 564.316 103.616 476.203 65.4797 464.939C40.9747 457.708 14.1823 447.087 3.84892 423.722C-9.01703 394.634 12.1546 359.443 41.054 346.158C69.9463 332.867 103.442 335.811 134.932 340.285C166.423 344.758 198.951 350.452 229.605 341.951C260.257 333.451 288.342 305.742 285.318 274.079C282.684 246.529 257.869 225.769 231.755 216.619C211.312 209.454 189.564 207.505 168.09 204.28C162.129 203.392 156.19 202.397 150.31 201.17C135.248 198.014 120.557 193.299 106.473 187.099C91.6938 180.607 77.6533 172.549 64.5923 163.063C54.1749 155.508 44.4396 147.055 35.498 137.8C34.1341 136.386 32.7847 134.94 31.4497 133.463C30.1798 132.049 28.9241 130.606 27.6976 129.134C11.736 110.062 -0.0549319 86.5747 3.48112 62.3727C7.00943 38.2357 25.8214 18.1395 48.2195 8.48466C61.1647 2.90679 75.1275 0.410101 89.2633 0.0493074C99.5994 -0.157267 109.933 0.586693 120.133 2.2718C167.332 9.81959 210.584 32.7516 251.433 57.5814C292.274 82.4112 332.077 109.666 376.476 127.366C420.876 145.074 471.416 152.571 516.457 136.559C561.498 120.554 598.501 76.8839 596.301 29.1365C626.174 54.861 651.56 87.1953 662.802 124.978C674.044 162.76 669.527 206.387 645.246 237.444Z" fill="#1B1C37"/>
<path d="M430.002 188.097C432.902 188.097 435.253 185.746 435.253 182.845C435.253 179.945 432.902 177.594 430.002 177.594C427.102 177.594 424.75 179.945 424.75 182.845C424.75 185.746 427.102 188.097 430.002 188.097Z" fill="#6C63FF"/>
<path d="M615.45 121.692C619.934 121.692 623.569 118.057 623.569 113.572C623.569 109.088 619.934 105.453 615.45 105.453C610.966 105.453 607.331 109.088 607.331 113.572C607.331 118.057 610.966 121.692 615.45 121.692Z" fill="#FF6584"/>
<path d="M82.9187 372.016C84.5755 372.016 85.9187 370.672 85.9187 369.016C85.9187 367.359 84.5755 366.016 82.9187 366.016C81.2618 366.016 79.9187 367.359 79.9187 369.016C79.9187 370.672 81.2618 372.016 82.9187 372.016Z" fill="#FF6584"/>
<path d="M169.027 196.558C169.029 199.16 168.714 201.753 168.089 204.279C162.129 203.392 156.19 202.396 150.309 201.169C135.248 198.014 120.557 193.298 106.473 187.098C108.737 179.786 113.549 173.528 120.034 169.46C126.52 165.393 134.248 163.785 141.818 164.93C149.387 166.075 156.295 169.896 161.287 175.699C166.28 181.502 169.026 188.903 169.027 196.558Z" fill="#FF6584"/>
<path d="M563.496 169.316C565.19 169.316 566.564 167.942 566.564 166.248C566.564 164.553 565.19 163.18 563.496 163.18C561.801 163.18 560.428 164.553 560.428 166.248C560.428 167.942 561.801 169.316 563.496 169.316Z" fill="#F0F0F0"/>
<path d="M282.798 507.019C284.493 507.019 285.866 505.645 285.866 503.951C285.866 502.256 284.493 500.883 282.798 500.883C281.104 500.883 279.73 502.256 279.73 503.951C279.73 505.645 281.104 507.019 282.798 507.019Z" fill="#F0F0F0"/>
<path d="M326.815 549.593C328.51 549.593 329.883 548.22 329.883 546.525C329.883 544.831 328.51 543.457 326.815 543.457C325.121 543.457 323.747 544.831 323.747 546.525C323.747 548.22 325.121 549.593 326.815 549.593Z" fill="#F0F0F0"/>
<path d="M54.7764 428.367C56.4709 428.367 57.8446 426.993 57.8446 425.299C57.8446 423.604 56.4709 422.23 54.7764 422.23C53.0819 422.23 51.7083 423.604 51.7083 425.299C51.7083 426.993 53.0819 428.367 54.7764 428.367Z" fill="#F0F0F0"/>
<path d="M205.589 371.363C207.283 371.363 208.657 369.989 208.657 368.295C208.657 366.6 207.283 365.227 205.589 365.227C203.894 365.227 202.521 366.6 202.521 368.295C202.521 369.989 203.894 371.363 205.589 371.363Z" fill="#F0F0F0"/>
<path d="M190.435 66.8512C192.13 66.8512 193.504 65.4775 193.504 63.783C193.504 62.0885 192.13 60.7148 190.435 60.7148C188.741 60.7148 187.367 62.0885 187.367 63.783C187.367 65.4775 188.741 66.8512 190.435 66.8512Z" fill="#F0F0F0"/>
<path d="M375.883 307.14C377.578 307.14 378.951 305.767 378.951 304.072C378.951 302.378 377.578 301.004 375.883 301.004C374.189 301.004 372.815 302.378 372.815 304.072C372.815 305.767 374.189 307.14 375.883 307.14Z" fill="#F0F0F0"/>
<path d="M398.973 360.539C400.668 360.539 402.042 359.165 402.042 357.47C402.042 355.776 400.668 354.402 398.973 354.402C397.279 354.402 395.905 355.776 395.905 357.47C395.905 359.165 397.279 360.539 398.973 360.539Z" fill="#F0F0F0"/>
<path d="M122.412 73.5765C122.435 89.068 118.774 104.343 111.733 118.142C110.802 119.96 109.816 121.747 108.774 123.503C98.4625 140.917 83.0348 154.729 64.5914 163.06C54.174 155.506 44.4387 147.052 35.4971 137.798C34.1332 136.383 32.7838 134.938 31.4488 133.461C30.179 132.047 28.9232 130.604 27.6967 129.131C11.7352 110.06 -0.0558097 86.5723 3.48025 62.3703C7.00855 38.2332 25.8206 18.137 48.2186 8.48218C61.1638 2.90432 75.1266 0.407668 89.2624 0.046875C100.315 9.80782 109.029 21.932 114.756 35.5201C115.478 37.2302 116.141 38.962 116.769 40.7155C120.514 51.2662 122.423 62.3809 122.412 73.5765Z" fill="#292C89"/>
<path d="M167.151 78.6271C167.151 93.6578 152.474 107.599 125.819 117.896C120.486 119.96 114.778 121.829 108.775 123.503C86.3043 129.766 59.5623 133.237 31.4493 133.46C30.1795 132.046 28.9238 130.603 27.6973 129.131C28.0003 129.138 28.3033 129.138 28.6063 129.138C59.1367 129.138 88.1012 125.27 111.733 118.141C116.099 116.821 120.284 115.392 124.26 113.855C148.765 104.395 162.821 91.5507 162.821 78.6271C162.821 65.7035 148.765 52.8665 124.26 43.3993C121.835 42.4612 119.339 41.5664 116.77 40.715C116.142 38.9615 115.478 37.2297 114.757 35.5195C118.595 36.7174 122.283 37.997 125.819 39.3584C152.474 49.6554 167.151 63.6037 167.151 78.6271Z" fill="#E4E4E4"/>
<path d="M33.1292 24.9996C34.8237 24.9996 36.1974 23.6259 36.1974 21.9314C36.1974 20.2369 34.8237 18.8633 33.1292 18.8633C31.4347 18.8633 30.061 20.2369 30.061 21.9314C30.061 23.6259 31.4347 24.9996 33.1292 24.9996Z" fill="#F0F0F0"/>
<path d="M97.3504 44.484C99.0449 44.484 100.419 43.1103 100.419 41.4158C100.419 39.7213 99.0449 38.3477 97.3504 38.3477C95.6559 38.3477 94.2822 39.7213 94.2822 41.4158C94.2822 43.1103 95.6559 44.484 97.3504 44.484Z" fill="#F0F0F0"/>
<path d="M64.1573 102.278C80.6355 102.278 93.9938 88.9202 93.9938 72.4419C93.9938 55.9637 80.6355 42.6055 64.1573 42.6055C47.679 42.6055 34.3208 55.9637 34.3208 72.4419C34.3208 88.9202 47.679 102.278 64.1573 102.278Z" fill="#F0F0F0"/>
<path opacity="0.3" d="M615.162 230.355C608.466 232.333 593.702 233.79 577.466 234.685C561.238 235.573 543.436 235.962 525.858 236.337C495.09 237.001 464.324 237.668 433.56 238.336C429.332 238.43 425.089 238.517 420.832 238.596C418.703 237.189 416.574 235.76 414.467 234.303C418.241 234.324 422.015 234.303 425.76 234.23C441.758 233.913 455.302 232.665 470.729 232.073C494.469 231.156 520.1 231.878 544.843 232.246C569.587 232.621 597.779 232.484 615.162 230.355Z" fill="#F0F0F0"/>
<path opacity="0.3" d="M142.935 457.823L44.8567 376.117L140.139 461.096C140.323 461.406 140.579 461.669 140.885 461.861C141.191 462.053 141.539 462.169 141.899 462.2C142.259 462.231 142.621 462.176 142.956 462.039C143.29 461.902 143.587 461.687 143.822 461.412C144.057 461.137 144.223 460.811 144.306 460.459C144.389 460.107 144.388 459.741 144.301 459.39C144.214 459.039 144.045 458.714 143.808 458.441C143.57 458.169 143.271 457.957 142.935 457.823H142.935Z" fill="#F0F0F0"/>
<path d="M68.4866 148.39C70.1811 148.39 71.5548 147.017 71.5548 145.322C71.5548 143.628 70.1811 142.254 68.4866 142.254C66.7921 142.254 65.4185 143.628 65.4185 145.322C65.4185 147.017 66.7921 148.39 68.4866 148.39Z" fill="#F0F0F0"/>
<path d="M326.17 500.834L338.861 500.833L344.898 451.883L326.168 451.884L326.17 500.834Z" fill="#FFB6B6"/>
<path d="M322.933 496.691L326.505 496.691L340.451 491.02L347.926 496.69H347.927C352.151 496.69 356.202 498.368 359.189 501.355C362.176 504.342 363.854 508.393 363.854 512.617V513.135L322.934 513.136L322.933 496.691Z" fill="#2F2E41"/>
<path d="M231.13 500.834L218.44 500.833L212.402 451.883L231.133 451.884L231.13 500.834Z" fill="#FFB6B6"/>
<path d="M234.367 513.136L193.447 513.135V512.617C193.448 508.393 195.126 504.342 198.113 501.355C201.099 498.368 205.15 496.69 209.375 496.69H209.376L216.85 491.02L230.796 496.691L234.368 496.691L234.367 513.136Z" fill="#2F2E41"/>
<path d="M276.603 125.691L263.753 135.476L229.618 144.516C229.618 144.516 241.849 230.356 236.077 236.129C230.304 241.902 235.51 242.057 234.35 249.556C233.19 257.055 228.568 276.854 228.568 276.854H330.447C330.447 276.854 331.268 264.549 326.246 261.885C321.224 259.22 330.875 246.782 326.771 244.703C322.667 242.623 328.44 224.584 328.44 224.584L340.95 165.522L307.675 139.487L302.614 127.294L276.603 125.691Z" fill="#292C89"/>
<path d="M292.637 202.396C295.092 202.396 297.083 200.405 297.083 197.95C297.083 195.494 295.092 193.504 292.637 193.504C290.181 193.504 288.191 195.494 288.191 197.95C288.191 200.405 290.181 202.396 292.637 202.396Z" fill="#F2F2F2"/>
<path d="M228.568 276.855L224.367 385.036C224.367 385.036 206.227 464.938 209.378 467.038C212.529 469.139 213.864 481.664 213.864 481.664L231.719 483.765C231.719 483.765 231.719 475.362 235.92 472.211C240.122 469.06 278.983 320.968 278.983 320.968L316.895 464.152C316.895 464.152 317.844 472.211 320.995 472.211C324.146 472.211 325.196 483.765 325.196 483.765H343.051V472.211C343.051 472.211 351.074 469.668 347.923 461.265C344.772 452.863 330.448 276.855 330.448 276.855H228.568Z" fill="#2F2E41"/>
<path d="M289.947 119.246C301.838 119.246 311.478 109.606 311.478 97.7148C311.478 85.8234 301.838 76.1836 289.947 76.1836C278.055 76.1836 268.416 85.8234 268.416 97.7148C268.416 109.606 278.055 119.246 289.947 119.246Z" fill="#FFB6B6"/>
<path opacity="0.1" d="M326.771 194.405L330.972 197.556L333.072 182.852L326.771 194.405Z" fill="black"/>
<path d="M231.632 144.433C231.632 144.433 226.381 143.383 223.23 152.836C220.079 162.288 208.525 197.999 208.525 204.3C208.525 210.602 280.475 238.407 280.475 238.407L272.989 212.145L240.034 194.848L231.632 144.433Z" fill="#292C89"/>
<path d="M283.812 234.514C290.587 234.514 296.079 229.022 296.079 222.247C296.079 215.473 290.587 209.98 283.812 209.98C277.038 209.98 271.545 215.473 271.545 222.247C271.545 229.022 277.038 234.514 283.812 234.514Z" fill="#FFB6B6"/>
<path opacity="0.1" d="M239.074 181.836L240.034 194.845L270.507 210.84L243.403 192.66L239.074 181.836Z" fill="black"/>
<path d="M312.331 183.692H311.936V172.862C311.936 172.039 311.774 171.224 311.459 170.463C311.144 169.703 310.682 169.012 310.1 168.43C309.518 167.848 308.827 167.386 308.067 167.071C307.306 166.756 306.491 166.594 305.668 166.594H282.724C281.9 166.594 281.085 166.756 280.325 167.071C279.564 167.386 278.873 167.848 278.291 168.43C277.709 169.012 277.248 169.703 276.933 170.463C276.618 171.224 276.456 172.039 276.456 172.862V232.275C276.456 233.098 276.618 233.913 276.933 234.673C277.248 235.434 277.709 236.125 278.291 236.707C278.873 237.289 279.564 237.751 280.325 238.066C281.085 238.381 281.9 238.543 282.724 238.543H305.668C306.491 238.543 307.306 238.381 308.066 238.066C308.827 237.751 309.518 237.289 310.1 236.707C310.682 236.125 311.144 235.434 311.459 234.673C311.774 233.913 311.936 233.098 311.936 232.275V191.4H312.331V183.692Z" fill="#F0F0F0"/>
<path d="M340.95 165.523C340.95 165.523 344.101 167.624 346.201 177.077C348.302 186.529 361.956 222.24 356.704 230.642C351.453 239.045 349.903 248.012 332.048 235.409L307.34 212.787L325.195 195.982L332.548 201.234L340.95 165.523Z" fill="#292C89"/>
<path d="M294.477 193.073C297.377 193.073 299.728 190.722 299.728 187.822C299.728 184.921 297.377 182.57 294.477 182.57C291.576 182.57 289.225 184.921 289.225 187.822C289.225 190.722 291.576 193.073 294.477 193.073Z" fill="#6C63FF"/>
<path d="M309.679 211.596C316.453 211.596 321.946 206.104 321.946 199.329C321.946 192.555 316.453 187.062 309.679 187.062C302.904 187.062 297.412 192.555 297.412 199.329C297.412 206.104 302.904 211.596 309.679 211.596Z" fill="#FFB6B6"/>
<path opacity="0.1" d="M238.495 221.102L273.71 236.678L237.517 229.605L238.495 221.102Z" fill="black"/>
<path d="M268.224 102.004L265.267 90.7528C264.496 87.8172 263.718 84.8223 263.892 81.792C264.065 78.7617 265.35 75.6346 267.903 73.993C270.456 72.3513 274.354 72.7391 275.996 75.2914C276.309 71.2161 280.016 68.0813 283.949 66.9708C287.883 65.8603 292.059 66.2995 296.142 66.4868C300.225 66.6742 304.535 66.5434 308.059 64.4727C308.327 65.2784 308.31 66.1521 308.009 66.9463C307.708 67.7405 307.142 68.4065 306.407 68.832C307.283 69.071 308.217 68.9683 309.02 68.5447C309.823 68.1211 310.436 67.4082 310.733 66.5503C310.76 68.9105 309.887 71.1925 308.293 72.933C309.814 72.1786 311.561 72.0169 313.194 72.4794C314.828 72.9418 316.23 73.9954 317.13 75.4351C318.928 78.5529 317.92 82.4685 316.868 85.9105L311.468 103.577C310.649 100.891 310.495 98.0558 310.057 95.2826C309.619 92.5093 308.839 89.6773 307.008 87.5485C305.178 85.4198 302.068 84.187 299.467 85.2439C298.008 85.837 296.895 87.04 295.577 87.9035C292.874 89.6751 289.435 89.9292 286.223 89.5687C283.011 89.2082 279.881 88.2936 276.67 87.9282C274.659 87.6995 272.415 87.76 270.898 89.0994C269.854 90.1836 269.165 91.5595 268.922 93.0444C268.206 96.0043 267.924 99.0527 268.086 102.094" fill="#2F2E41"/>
</g>
<defs>
<clipPath id="clip0_1156_6654">
<rect width="668.646" height="567.163" fill="white"/>
</clipPath>
</defs>
</svg>
