<svg width="100%" height="100%" viewBox="0 0 2699 399" fill="none" xmlns="http://www.w3.org/2000/svg">
<path opacity="0.8" fill-rule="evenodd" clip-rule="evenodd" d="M0 0L90.1248 51.9306C180.25 103.861 360.499 206.857 539.168 250.998C719.417 296.004 899.667 280.425 1079.92 250.998C1260.17 221.57 1438.83 177.429 1619.08 199.933C1799.33 221.57 1979.58 310.718 2159.83 302.928C2338.5 296.004 2518.75 192.143 2608.88 140.213L2699 89.1475V399H2608.88C2518.75 399 2338.5 399 2159.83 399C1979.58 399 1799.33 399 1619.08 399C1438.83 399 1260.17 399 1079.92 399C899.667 399 719.417 399 539.168 399C360.499 399 180.25 399 90.1248 399H0V0Z" fill="#2C2E76"/>
<path opacity="0.95" fill-rule="evenodd" clip-rule="evenodd" d="M0 290.429L112.261 266.458C224.521 242.488 450.624 194.547 675.145 176.217C899.667 158.592 1124.19 170.577 1350.29 200.187C1574.81 230.503 1799.33 278.443 2023.85 278.443C2249.96 278.443 2474.48 230.503 2586.74 206.532L2699 182.562V399H2586.74C2474.48 399 2249.96 399 2023.85 399C1799.33 399 1574.81 399 1350.29 399C1124.19 399 899.667 399 675.145 399C450.624 399 224.521 399 112.261 399H0V290.429Z" fill="#3B3D7E"/>
<path opacity="0.8" fill-rule="evenodd" clip-rule="evenodd" d="M0 271.642L112.261 289.785C224.521 307.928 450.624 344.215 675.145 335.321C899.667 326.072 1124.19 271.642 1350.29 262.393C1574.81 253.143 1799.33 289.785 2023.85 292.631C2249.96 295.833 2474.48 265.594 2586.74 250.297L2699 235V399H2586.74C2474.48 399 2249.96 399 2023.85 399C1799.33 399 1574.81 399 1350.29 399C1124.19 399 899.667 399 675.145 399C450.624 399 224.521 399 112.261 399H0V271.642Z" fill="#1F204C"/>
</svg>
