<svg width="2699" height="416" viewBox="0 0 2699 416" fill="none" xmlns="http://www.w3.org/2000/svg">
<path opacity="0.8" fill-rule="evenodd" clip-rule="evenodd" d="M0 0L90.1248 43.9982C180.25 87.9964 360.499 175.26 539.168 212.658C719.417 250.79 899.667 237.59 1079.92 212.658C1260.17 187.726 1438.83 150.327 1619.08 169.393C1799.33 187.726 1979.58 263.256 2159.83 256.656C2338.5 250.79 2518.75 162.793 2608.88 118.795L2699 75.5303V338.053H2608.88C2518.75 338.053 2338.5 338.053 2159.83 338.053C1979.58 338.053 1799.33 338.053 1619.08 338.053C1438.83 338.053 1260.17 338.053 1079.92 338.053C899.667 338.053 719.417 338.053 539.168 338.053C360.499 338.053 180.25 338.053 90.1248 338.053H0V0Z" fill="#4E2287"/>
<path opacity="0.95" fill-rule="evenodd" clip-rule="evenodd" d="M0 313.845L112.261 293.536C224.521 273.227 450.624 232.609 675.145 217.079C899.667 202.146 1124.19 212.3 1350.29 237.388C1574.81 263.073 1799.33 303.69 2023.85 303.69C2249.96 303.69 2474.48 263.073 2586.74 242.764L2699 222.455V405.832H2586.74C2474.48 405.832 2249.96 405.832 2023.85 405.832C1799.33 405.832 1574.81 405.832 1350.29 405.832C1124.19 405.832 899.667 405.832 675.145 405.832C450.624 405.832 224.521 405.832 112.261 405.832H0V313.845Z" fill="#2D0C58"/>
<path opacity="0.8" fill-rule="evenodd" clip-rule="evenodd" d="M0 308.096L112.261 323.468C224.521 338.839 450.624 369.583 675.145 362.048C899.667 354.211 1124.19 308.096 1350.29 300.259C1574.81 292.423 1799.33 323.468 2023.85 325.879C2249.96 328.592 2474.48 302.972 2586.74 290.011L2699 277.051V416H2586.74C2474.48 416 2249.96 416 2023.85 416C1799.33 416 1574.81 416 1350.29 416C1124.19 416 899.667 416 675.145 416C450.624 416 224.521 416 112.261 416H0V308.096Z" fill="#1C033D"/>
</svg>
